<mxfile host="app.diagrams.net" agent="Mozilla/5.0 (Windows NT 10.0; Win64; x64) AppleWebKit/537.36 (KHTML, like Gecko) Chrome/140.0.0.0 Safari/537.36 Edg/140.0.0.0" version="28.2.0">
  <diagram name="PÃ¡gina-1" id="kZpo_9RtTOYSGo3LrRXL">
    <mxGraphModel dx="2219" dy="1214" grid="0" gridSize="10" guides="1" tooltips="1" connect="1" arrows="1" fold="1" page="0" pageScale="1" pageWidth="827" pageHeight="1169" math="0" shadow="0">
      <root>
        <mxCell id="0" />
        <mxCell id="1" parent="0" />
        <mxCell id="UaRX52oiEMcUlokc9c1a-10" value="" style="verticalLabelPosition=bottom;verticalAlign=top;html=1;shadow=0;dashed=0;strokeWidth=1;shape=mxgraph.android.tab2;strokeColor=#c0c0c0;" parent="1" vertex="1">
          <mxGeometry x="31.080000000000027" y="67.25" width="74.84" height="123.5" as="geometry" />
        </mxCell>
        <mxCell id="UaRX52oiEMcUlokc9c1a-11" value="Totem" style="text;html=1;align=center;verticalAlign=middle;whiteSpace=wrap;rounded=0;" parent="1" vertex="1">
          <mxGeometry x="-47.00000000000006" y="188" width="60" height="30" as="geometry" />
        </mxCell>
        <mxCell id="UaRX52oiEMcUlokc9c1a-14" style="edgeStyle=orthogonalEdgeStyle;rounded=0;orthogonalLoop=1;jettySize=auto;html=1;entryX=-0.005;entryY=0.466;entryDx=0;entryDy=0;entryPerimeter=0;" parent="1" source="UaRX52oiEMcUlokc9c1a-53" target="UaRX52oiEMcUlokc9c1a-10" edge="1">
          <mxGeometry relative="1" as="geometry">
            <mxPoint x="-206" y="208" as="sourcePoint" />
          </mxGeometry>
        </mxCell>
        <mxCell id="UaRX52oiEMcUlokc9c1a-16" value="" style="endArrow=classic;startArrow=classic;html=1;rounded=0;exitX=0.989;exitY=0.577;exitDx=0;exitDy=0;exitPerimeter=0;entryX=0.01;entryY=0.483;entryDx=0;entryDy=0;entryPerimeter=0;" parent="1" source="UaRX52oiEMcUlokc9c1a-10" target="MkQLDR_bNPGldUpGhnma-2" edge="1">
          <mxGeometry width="50" height="50" relative="1" as="geometry">
            <mxPoint x="7" y="218" as="sourcePoint" />
            <mxPoint x="402" y="144" as="targetPoint" />
          </mxGeometry>
        </mxCell>
        <mxCell id="UaRX52oiEMcUlokc9c1a-19" value="&lt;font style=&quot;font-size: 8px;&quot;&gt;HTTP/ HTTPS - JSON&lt;/font&gt;" style="text;html=1;align=center;verticalAlign=middle;whiteSpace=wrap;rounded=0;" parent="1" vertex="1">
          <mxGeometry x="240" y="114" width="214" height="30" as="geometry" />
        </mxCell>
        <mxCell id="UaRX52oiEMcUlokc9c1a-61" style="edgeStyle=orthogonalEdgeStyle;rounded=0;orthogonalLoop=1;jettySize=auto;html=1;entryX=0.5;entryY=1;entryDx=0;entryDy=0;exitX=-0.009;exitY=0.412;exitDx=0;exitDy=0;exitPerimeter=0;" parent="1" source="UaRX52oiEMcUlokc9c1a-40" target="UaRX52oiEMcUlokc9c1a-53" edge="1">
          <mxGeometry relative="1" as="geometry" />
        </mxCell>
        <mxCell id="UaRX52oiEMcUlokc9c1a-40" value="Painel de Pedidos" style="html=1;verticalLabelPosition=bottom;align=center;labelBackgroundColor=#ffffff;verticalAlign=top;strokeWidth=2;strokeColor=#0080F0;shadow=0;dashed=0;shape=mxgraph.ios7.icons.monitor;" parent="1" vertex="1">
          <mxGeometry x="22" y="331.36" width="93" height="55" as="geometry" />
        </mxCell>
        <mxCell id="UaRX52oiEMcUlokc9c1a-46" style="edgeStyle=orthogonalEdgeStyle;rounded=0;orthogonalLoop=1;jettySize=auto;html=1;startArrow=classic;startFill=1;entryX=0.983;entryY=0.467;entryDx=0;entryDy=0;entryPerimeter=0;" parent="1" source="UaRX52oiEMcUlokc9c1a-43" target="MkQLDR_bNPGldUpGhnma-2" edge="1">
          <mxGeometry relative="1" as="geometry">
            <mxPoint x="543" y="147" as="targetPoint" />
            <Array as="points">
              <mxPoint x="532" y="371" />
              <mxPoint x="532" y="137" />
            </Array>
          </mxGeometry>
        </mxCell>
        <mxCell id="UaRX52oiEMcUlokc9c1a-45" value="" style="endArrow=classic;startArrow=classic;html=1;rounded=0;exitX=0;exitY=0;exitDx=0;exitDy=0;" parent="1" target="UaRX52oiEMcUlokc9c1a-37" edge="1">
          <mxGeometry width="50" height="50" relative="1" as="geometry">
            <mxPoint x="472" y="136" as="sourcePoint" />
            <mxPoint x="825.48" y="209" as="targetPoint" />
          </mxGeometry>
        </mxCell>
        <mxCell id="UaRX52oiEMcUlokc9c1a-49" value="&lt;font style=&quot;font-size: 8px;&quot;&gt;HTTP/ HTTPS - JSON&lt;/font&gt;" style="text;html=1;align=center;verticalAlign=middle;whiteSpace=wrap;rounded=0;rotation=90;" parent="1" vertex="1">
          <mxGeometry x="483.94" y="259" width="128" height="30" as="geometry" />
        </mxCell>
        <mxCell id="UaRX52oiEMcUlokc9c1a-50" value="&lt;font style=&quot;font-size: 8px;&quot;&gt;HTTP/ HTTPS - JSON&lt;/font&gt;" style="text;html=1;align=center;verticalAlign=middle;whiteSpace=wrap;rounded=0;" parent="1" vertex="1">
          <mxGeometry x="535" y="132" width="115" height="30" as="geometry" />
        </mxCell>
        <mxCell id="UaRX52oiEMcUlokc9c1a-52" style="edgeStyle=orthogonalEdgeStyle;rounded=0;orthogonalLoop=1;jettySize=auto;html=1;entryX=0.996;entryY=0.415;entryDx=0;entryDy=0;entryPerimeter=0;" parent="1" source="UaRX52oiEMcUlokc9c1a-51" target="UaRX52oiEMcUlokc9c1a-37" edge="1">
          <mxGeometry relative="1" as="geometry" />
        </mxCell>
        <mxCell id="UaRX52oiEMcUlokc9c1a-53" value="" style="shape=image;verticalLabelPosition=bottom;labelBackgroundColor=default;verticalAlign=top;aspect=fixed;imageAspect=0;image=data:image/png,iVBORw0KGgoAAAANSUhEUgAAAgAAAAIACAYAAAD0eNT6AAAAAXNSR0IArs4c6QAAIABJREFUeAHtnQe4PEWVt39IFEGCCCqCEVEMiAkDgqiLmBMqrgkM7K4JM2YxoyLCml0Vc2DNiIIRFVRUzKiIiSAqCgKCStDv69/Sg/OfOzO3u6uqu7r7ree5z8zt6a7w1qmq0xXOkQgQgAAEIJAzgc0lHSDpG5LOlXSJpF9Jeoek2+accfIGAQhAAAIQgEAzAg+VdJak/7fk73BJGzaLnqcgAAEIQAACEMiJwKaS3rtk0J9VCL4tyTMFBAhAAAIQgAAEekpgD0ln1Bj8J8rAdyVt0dMyk20IQAACEIDAaAlsJOktkv7ZYPCfKAE/lLTVaAlScAhAAAIQgEDPCNy73Ng3GchDPq0EsBzQMwEguxCAAAQgMC4CN5J0TMAb/yJF4QRJG48LJaWFAAQgAAEI5E/Aa/VvlnRpgsF/ohR8SdIG+aMghxCAAAQgEJvAFSRtJmn92BETX2MCW0p6haTzEg78EwXAnx+WtFbj3PIgBCAAAQhkQeCqkm5frBU/sujUXyzpfZL8lvc9Sb9ZZVDxm+Y5kk6V9FNJx0v6RPkW6rieIOleknbgrTFJXW9TKGOHSbqwpYF/Wgl4eZISESkEIAABCCQh4Lf3ncqB2QO9Lb9Nd+qpv/9W0tckvbtI90WSHiHpDuwwr13Xtyot9l3Ucv3Nyse+tXPOAxCAAAQg0BqBtSXtUr4pegCe7cRz+d/maL8j6T2liVrvYL8uU82Xy4mN+Ownyefyc6mzi0vZujyTfIEABCAAge4JbC/pTZL+lNGA0WTg+nO5tPC2wmb9UyTZoM01u8fbSg68434vSR+S9PdM6/H0Qs68B4EAAQhAAAIdE/Db/hGJd4I3GchjP+MNb9MzBg+SdGNJXuboc7hO+aZ/ZMaD/mxdes/IOn2GTt4hAAEI9JnAHSXZdvts5zy2/8+X9C1JH5D00mIj4z6SzOYaGVbuupJuLelJkt7fwZ6MmLLhTZ8ECEAAAhBokYB3gnuKOMTUa8yBIOe4/irpR+VJhdeWmyHvI2nnclnBA3KKYK96O0ryLMVzy02Q35Tk/OTMq07e7E4YN8IppIc4IQABCMwQ8OY+DyZdHAGrMzD07d4/lEcav1EoBp+V9MHyWONBxVFG/72s3KR4wNTn5LfXF4rE24uTFp8s9ip8XdIvJF0woEF+tbo8RZJ9DxAgAAEIQCARAU9nHzuigWW1gYffm88keP3e0/exGL41kcwTLQQgAIHRE7irpN9F7LBjdfzEE28QbYOlj4Ta+NPEot8rI8mUl6LuPPpWCgAIQAACEQm4o34Ja/3R3lTbGGRzTMPHCW02+Eozsmn58sbJGHm2VUhMRc8A5l8IQAACTQh4vd8+3WN0zsQxXo7em7DdEgG0kx+foIghI7b0SIAABCAAgQAC65W7/GN0ysQRZ3DrG8fPS7pNRRn0qZKzIigBNlN8vYppchsEIAABCMwQ8PGxoyN0xn0bsMhvuKLitfhPSbrljExV+fcukQxJ+XgqAQIQgAAEahLwtL8963U9GHogsce/2b+uHdF0zSXX9G2f35Ygb1FT3mZvtxGl0DJadm43GzH/QwACEIDAcgJ28xraAVd93vb2vyDJ59j/s/DY5zfAm5Re+qyILAubSdq2tGh3D0mPkvScwvKebfd/TpLPhqMspK9Lu2R+vqSrL6usGr/ZKFKM/QC2h0CAAAQgAIGKBPZvYfA/XtLzSit4qw3yFbO98DbHbyVht1JBOFCS3RHblv+YDOVUVciq3ndpoXgdJcmeE1PUoR1KxTA0dfeFksEPEIAABCDwfwT81mVzsf9IpADYfoCt1rljzyX4+Nm1JXmQeEZpSc9W+OweuOpAOKb7bHLXszWeqdmqhUp8ZoR6sNljAgQgAIFRE/Axq5uVLl49TX64JFti+3GkndeLBsKzizc5d+RX7Bn9rSXZ8NGTy2OQXy0c57gsi8o51Ov2GWCzxI+VtEXLdWgvf9+LwJxZgJYrjuQgAIFuCexQunb1evh3C9v93qDV5iDlmYSDJW3SLYboqfvN19bmnlDa6f9y8f2PLbNNWY9/K5ZLXCafpd81A6M69lgYOiv1tehSQIQQgAAEMiKwqaSHlm/2Z3Q8IP2ymCreJSM2bWTF/H3s7cHlRkQ75vFAelrGFhS9QfLEUmaeUg74ninKLbwrgjzfKrdCkR8IQAACIQQ2Lry+Pbw8c20zqynfDKvG7WNgeGVbs1Y9qHpGxhvmnlSaw313cUztmKklGB9bq8q4zn3e6OhlHm/Ye3OpnOwt6aaSUrkgXrP04f95OSZ0Q6A3fhIgAAEI9J6AO2935ucnGjTqDDDT99rP/RV6T7e7AvhYoy3Y+W11j3JTpmcU9iv/vFFx2hXw06Z+21fS/crTDjuWJx+sIA4l2BfFtKzV/e7ZDnuyJEAAAhDoJQGfkfe0ct3OL/X9fnv1FDIBAqkIeInFNiNCZNlHTwkQgAAEekXAA/9xgZ1fSMe52rPP7RVNMttXArbhsJosLvv9F1MuiPvKgHxDAAIjIXDdTEzyLutUXzeSuqCY3RPwLMBfApUAG4QiQAACEMiWgDdnvbBY7/WRrGWDb9e/fYQ3qmxlaKgZ896XELn3iQICBCAAgSwJeLf4twM7uZAOsuqzv5G0eZYEydSQCbh9hJyY8MbZHI86DrnOKBsEIFCBwH9IyuU43zJFwHnkXHWFCuWWJARslXGZfK722z2T5IpIIQABCDQg4DeSdwR2aqt1ejF//68GZeQRCMQiYDsGIfL8zlgZIR4IQAACIQQ8jW63pSEdWpvPviqksDwLgQgE1pNk51JN5f5PiTwYRigaUUAAAmMhsE1h7OWkgI6saQfY5Dnbu3/YWCqGcmZPwH4mmsjx5JnbZV9CMggBCAyWwLUknRrYiU06s1ifXtv/feFT4OTCRe4JpfnY/5bkKdf1B1sTFKyPBO4Q2Hbs7IgAAQhAoHUCNkl6SmAH1nTQt3OaIyUdUrgBfnxpctb2Bvrmrrf1SiPBrAjY5HTIMsDxWZWGzEAAAqMgYPe4ds7SdACv+5yXGN5SOg3adhSEKeRYCLw1oB1dUijBVx4LKMoJAQh0T2Dt4vjcpwM6raqDv5cWDiusCN68+yKTAwgkI7BnYFv6t2Q5I2IIQAACMwTeENhhLVMALpVkl6e3xzrfDHX+HSoBnwY4L6BNsQ9gqJJBuSCQGYG9AjqqZQP/Pwpf80dIumFm5SU7EGiDwGcC2tXRbWSQNCAAgXET8Ca7cwM6qkUKwGclbTdutJR+5ATs4ndR+1jt+jnMlo1ceig+BBIT8G7lUNOlsx2Zpz33o/NKXHNE3wcCdwpQANyu2Bjbh1omjxDoKQEftZsdwEP+P1aSbQgQIAABaUNJFwe0MfwCIEUQgEASAltLsvexkAF/+tn3SLKrYAIEIPAvAt8KaGMH/CsavkEAAhCIR+DdAR3T9MDv769kyj9exRDToAi8KaCdvXdQJCgMBCCQBQG7y/UO/dmBvMn/T82iRGQCAnkSeHJAO7MjLgIEIACBqAQ+H9ApTSsJNtlLgAAEFhO4W0BbO3NxtPwCAQhAoD6BUEclEwXgKNyW1ofPE6Mj4E2xkzZT9/OfkjYYHTEKDAEIJCPwhYAOadKBfV/SRslySMQQGA4BH7W9MKDNbT8cFJQEAhDoksBOAR3RZPC/SNJNuiwEaUOgZwRCHGzZlgABAhCAQDCBGDv/XxicCyKAwLgIfDFA8X7QuFBRWghAIAWBLST9PaAj8gzADyTZyQkBAhCoTuADAe3OxroIEIAABIIIhFr984aknYNywMMQGCeB1wUoAHgFHKfMUGoIRCVwfEAn5Lf/I6PmhsggMB4Czw5oezayRYAABCDQmIA9/vkNfrKRr8nnrRunzoMQGDeBvQPaHuaAxy07lB4CwQSeH9ABWVnwmX8CBCDQjMANA9rfnZslyVMQgAAELiPw04AOyArA7QEJAQgEETixQRs8jU23Qcx5GAKjJ3CjBh3P9BKBzzATIACBMAJ7NGiH+4YlydMQgMDYCTypQcczrQA8c+wAKT8EIhF4RY22aJsdBAhAAAJBBD5Zo9OZHvj9/VJJ1whKnYchAIEJgbUKs8BWqC9e0iYvKez/HyTJJoQJEIAABBoTWEfSeUs6m9kBf/b/zzZOmQchAIFFBHwq51BJ3ptjt9xWtE+R9EZJN130ENchAAEI1CEQ6vnvUXUS414IQAACEIAABPIgYCtis2/1Vf+33QCm//OoR3IBAQhAAAIQqEXg6AAF4Ee1UuJmCEAAAhCAAASyIfD7AAXgkGxKQUYgAAEIQAACEKhMYOuAwd/LBHevnBI3QgACEIAABCCQDYF7BSgA3pV8pWxKQkYgAAEIQAACEKhM4IUBCgDW/ypj5kYIQAACEIBAXgQ+FqAAvD+vopAbCEAAAhCAAASqEjgpQAF4etVEuA8CEIAABCAAgXwI2OTohQEKwF3yKQo5gQAEIAABCECgKoHQEwBbVE2I+yAAAQhAAAIQyIfAHQPe/s/KpxjkBAIQgAAEIACBOgT2CVAAvl0nIe6FAAQgAAEIQCAfAi8OUAA+kk8xyAkEIAABCEAAAnUIvC1AATi4TkLcCwEIQAACEIBAPgQ+EaAAPCmfYpATCEAAAhCAAATqEDg+QAG4T52EuBcCEIAABCAAgXwI/DxAAbhVPsUgJxCAAAQgAAEI1CFwXoACcN06CXEvBCAAAQhAAAJ5EFgvYPC3G+DN8ygGuYDAIAisL+lRkj4j6TRJ50j6kaQ3S7rFIEpIISAAgWwIXCVAAfiHpLWzKQkZgUC/Cews6eRV2uO7JW3c72KSewhAIBcC267S4fgtf9Hfn3MpBPmAQM8J7CrpgiVtbboNetPuhj0vL9mHAAQyIHCjip3OdAc0+f6rDPJPFiDQdwKehTuzZjt8Q98LTf4hAIHuCdy6ZsczGfz9eWL32ScHEOg9gQMbtMFLJV2v9yWnABCAQKcE7tSg85koAcd1mvPlidtD4WMkHSrpcEmvkHT34tObHgkQyIWA5fEPDdvgC3MpBPmAAAT6SeAeDTsfKwFfzrDIG0k6RNLFC8p1hqSHZJhvsjROAnstkNOJkr3s81PjREapIQCBWARsyW9ZJ7Pst8/FykSkeLyWau+Ey/I8+e0ISZtFSpdoINCUwNEV5XUit9OfX2+aKM9BAAIQMIH7B3RAR2WEcC1JVkimO8jVvvuc9W4ZlYGsjIvAtST5KO1qcrrodysPBAhAAAKNCYRMQX68carxH9ynYUfqzVSvKv6uGD9LxAiBpQRC3HBbKXjZ0tj5EQIQgMAqBPZuOHC6A/I0eg7Bg7ff5he9KVW5/gtJu+dQGPIwCgJXkHRqoMzeZhSkKCQEIJCMwMMCOqH3J8tVvYifH1CGaeXA07FvLE4ObFovee6GQG0CDwiU2ZNqp8gDEIAABGYIPCKgI3rPTFxd/LuVpPMDyjCtAEy+/754O9tXkvcVECAQm4Dl6ruBMvvM2JkiPghAYHwE+q4A2EnKZOCO/fkNSbg7Hl+bSF3iewfK7CWSrp46k8QPAQgMn0CfFYCdJHkTX+yBfzq+f0r6oCTcHg+/LbRVwqpHVaflcPr7p9vKKOlAAALDJtBXBcCbqPyGPt0xpvx+UWE34LBij8BVhy0OlC4xgRDDWxP5vmfiPBI9BCAwEgJ9VQAe2+LgP+l4/fn3Yvr1rZK2GYl8UMy4BGw+e1qe6n7/uSQrvwQIQAACwQT6qADYzv8fAzvSuh3v7P2eEXiHpBsE1wARjIXAgyLI7OPHAotyQgAC6Qn0UQH4cISOdHZAb/q/jw4eKcleFQkQWERg48I51emBcnuOpCstSoDrEIAABOoS6JsC8MDATrTpQL/ac94saNPId+H4YF0RHMX9B0eQ24NGQYpCQgACrRHokwLgqX+f0V9tMO7691MkHSBpy9ZqkYRyJnDjJd4pq8rqBchTzlVM3iDQTwJ9UQBsPOUTPRj8pzt0bxj0EUKbGMaoUD/bR2iuXe9fjSC3rwjNCM9DAAIQmCXQFwVg/wid6PTg3Pb3kyU9XZJnMQjjIfCfEeT2PEmbjwcZJYUABNoi0AcFwNb4vOs+dND+k6S/RognJB8XS/qMpEfhc6AtEe8snZtGkjd7DSRAAAIQiE4gdwXAb8y/ijRo2wSrLfp5s17IIB7rWS8RfEqSHTJ5lzhhOAS8W/8nEeTsD5I2GQ4WSgIBCOREIGcFYL1i/fwrETpRD9g+Ojgd7h/BHWssRcDx/E3SxyQ9RNJG0xnley8JHB5Jbm3wigABCEAgCYGcFQBb3IsxyJ4tyV4DZ8OG5W59r7HGSCdWHPZvYItxPklwy9lM83/2BKzExZCFE7H6l31dk0EI9JpArgqA1z1jdKKOw659lwV7VrNVPxv1iZVmzHi8BPJGSbYBb6WFkC8BK2w+shda/7Yrcft8i0nOIACBIRDIUQHwbvnQDnTyvK30VT2CdxNJR2SsCLhMXir4rCT7g99Z0jpDEMKBlOFakn4XSXbfNRAmFAMCEMiYQG4KwBMk+e1nMoCHfLozbmKMx4qA9wzkOiMwzeQvko4uDM08V9IukrxvgtA+AXuJjLHpz3V7Jsf+2q9AUoTAGAnkpAA8L9LA707USsSegRVqC24f6okiMFEKfMzxSwXHF5Xlv0ogAx5fncBmkr4XUXZ9WoUAAQhAIDmBHBSAtYujTq+L2IF6MDwsIrkdSot+fZgRmCgC05+/KPP/NEl3xKFMRMm4zLDTtyPKLlP/UauHyCAAgWUEulYA/PbkKezpASv0+zclrb+s0A1/265ULHI7NVCXl08Z/LDc+GgLi3cuNhl6CptQj8A1I077uw5PwzhUvQrgbghAIIxAlwqAN7HZcU7dAWzZ/XYWtHUYklWfttEe+2WPtea7rDxt/mZ2n5d0SDEYPVqSLTBy6mC+ONy8HLBj1Y8tRN5uflJchQAEIJCGQBcKgDeq+ZjfJZEHf3einuJuK/h0wV0lfbJn+wTqDFpe9vhNcSTtc4UfgzdIerKku5UWFb10M8Zgl9QxjvpN18NTxwiSMkMAAt0SaFsB8Ma8n0Ue+Ccd6X91iPI6xdvyqyMeA5uUKedPmzI+SdLHyz0cXk64T2HR8GbFLMKVO6yLVElvIOn1EU+pTOr2ozWOqqYqG/FCAAIjJNCWArBbcUztC4kGfnekB2VSd34rvruk9xdn9S9MWN7J4JHzpy0w2pqdTRwfWnpDfGh5XNE+GVLs00glBrcu903E5m0FClv/qWqNeCEAgaUEUioAdojiteQTEg+E78v0Dcp7BfYpj+X19QRB7AFvNj47u/EROhtssv38V0nyaQXLpRWpW0jyZju/fXcRNi2VF2+cnM176P+2U3HtLgpFmhCAAARMILYCcL1y0Pe0cBtvwF6b7oPxm20Ll8bPSfQWGToQ9eX58yX9XNLx5b6LtxeWEF8m6SmSHl6aSrb53BtJulrgDMMVyxkLu5BOwcd7CLzJkgABCECgMwIhCsBXy07STnu+LMlvcyk6y0VxevB3R923YCXJ5o7NL8Wb5SJeY7xuJfQMST8qeX+inGnwSYcXSHpSqTzcq1ya8IyDN6ielVCWXecY++lbqyW/EOgpAe9W317SIwtXsweX69MefGwgxrbl+zgwHNPTwX9WhHz+/jHlFHhf66KP8tNVnj34P2xWCPgfAhCAQEwCXjf1WupRxVuON2N11eGlSNfH7rpaE45ZR7Nxec+Ej5h5avvUgdVZCjnoW5we/L1UQYAABCAQnYA3LPko3FcGfC7dbnHHcv7cszZ2juRp675bH+zbYB07v94E6hk4AgQgAIGoBGxO1+uW5w74rdEd6LOiUutXZHb76w1udvJzXLGh8KIB13XswTeH+Ly84+W3rfolduQWAhDIlYA3wHngH/rboXdi+0gY4V8EvARiq4fPLvcPpNqtnsPgOaQ82Fuj22wfN6/+S/r4BgEIdErgtgkt6uXU4dqxj4/QEZYT8EZPey18bHG23B7lTk5gsS4nueh7Xn5dmpFeXqv8CgEIQGCKgM+821jK0I+P2a6/p7vXnSo7X+sR8J6Q3Qu79c+Q9IFSKfBSSt8Hz6Hk/5+SXtsTOxb1JI+7IQCB6ARsX93e2obSAS4qx3cL+/I7RqdHhCZgGbJZZjufeW9hu9+sbdN/UV1wPT0b29DYHPGEAAQgsIjA1cvOesgdst3R7jeiXf6L6rrt6z5VsV1hpfABhYfG50n6kKQfsNGwVaXISzY+ukuAAAQgsAYB+7f/1YDf0v4s6SXFdKht5xPyIeCTBz6KaKt1tinx5nIGyu6BWUqIPzNgw1zb5FP95AQCEOiagI3D2KPaEN/8zyzt4w/RdWzXcpM6fXvyu7Gk+5XKwWGF455PlTMHQz6Omrod4h0wteQSPwR6QuAKpa/11J1Om/F78+Jni4Hi/mzw64kUNsumNyB6H8d9JD253LjqPQfHlqdX2nAU1aZcx0zLPi7GYuyqmXTxFARGQMDnhWN2LF3F5c7+aEmPk2Tb9wQImICVBM8i7FF6pfTGxFcWxz7fWc4mfKO4/svCcdJfBtIO6rQ/n4AhQAACIyVwM0k+Clen08jl3t+WHfgLyx3nni4mQCCEgA3neH3cLnTvUZrV9b4EH4m174SPSvqSpO9J8h6FvhvHukTS7UKA8SwEINBPAp76twGcXAb0RfmwMZNDJe1frgXfXJLNEhMgkAMBT6NvUdhAuEGx7LRz0ab2LGwhPLRw9fv4nuyr+aEkb8QkQAACIyLwxESDv+2R+y3pZeWRL/s+D0nr3SOqE4o6LAKW3UWK7WrXn1TMcLnt2HOj25LP8ady5WzlmgABCIyEwEaFB7g/BnRO8zqvr5VTpvN22z8iIC0UgJEI5QCLGaIAzPPqt0nZxo4PaE/z2u5ZhRMh9wkECEBgBAQOiNiB2MrbnVZhhgKwCiB+HiSB2ArANCSbX3bbmzegN7n2zOnI+Q4BCAyTgNcsT4vQcdhIy/Mrrh+iAAxTlijVcgIpFQCnbB8W3gQbw2CSNzVyLHB5ffIrBHpPwGemm7whTD9jd6M+Y181oABUJcV9QyKQWgGYsPI+gRj7A+45iZBPCEBgmAQ+HKgA2LuYdznXCSgAdWhx71AItKUAmNdeEWYC3j8U8JQDAhBYSWCDwqTq+YEKwIEro131CgrAqoi4YYAE2lQAjO+lgW3b5pWxpzFAQaRIEDCBuwR2ED9r2EGgACB/YyTQtgKwXjET8OPANr7rGCuKMkNgDAT89j69ll/3u52yNAkoAE2o8UzfCbStAJiX3S3XbdfT97+g79DJPwQgMJ+AHeRMN/Y6308J2CWMAjC/Prg6bAJdKADeyW/fBnXa9vS9Rw27SigdBMZL4PSAjuF5AdjGpgDYpryXWx4l6d9L2/I2vUyoRsCD2G0kPaw0fOMz796/0rfQhQJgRj4aOD2o1/l+at8gk18IQGB1Arb0VacjmL3XHXLTMBYFwF4I3yBpnhvaMyU9BffES0XIG9BskOb3c2TV3vpeJ+kqS2PI68euFAA7+Jltv1X/9ymfDfPCSG4gAIFQAtsHdAo+ORBiJGQMCsBOks6owNg23XFmtFKarTx9vQI/G6y5ycrHs7zSlQJg5z4XVGC5SCm4fpY0yRQEINCYwG4BHcIPGqd62YNDVwC2XfDWuqiD/WJFC4qB2HvzuN/869i3t6J19R6UrisFwGhCTgPs0gO2ZBECEKhBwFa+Fg1Iq13/VI105t06dAXg4w3Y2l0s4TICnvZfTQZnf++D0ZouFYDPNGA6Ybyabw/kFgIQ6BkBWwqbNPC6nx8MLOuQFYDtGnL9taS1ArkO4XFvjvxdA4a2f79N5gC6VACOaMB00i940yUBAhAYEIGQ88EfCeQwZAXAG/smHWfdz76sZQdW/9LHbx3A7z+Wxtz9j10qAB8L4IoC0L3skAMIRCVw94AOIfRs8JAVgNcHcL1v1BruZ2R7B/B7deZF7lIBCFkCuHPmXMkeBCBQk4CP8dV9Q53c/5Oaac3ePmQF4F0BXG0nYOxhvwB+b80cXpcKgM12T9pv3U/PyhAgAIEBEdgyoEO4iGOACyUBBWAhmko/oADMH6gfWYne/Jt8DPDigPbeJ1sL8wlwFQIQWEEg5GzwzVfEVv0CMwDzO3lmACQUgPmyEaIA3DJg8LfNDwIEIDBAAiFngw8I4GFzuHWnISf3fyAg3TYeZQYgjPKQFQDL7kSO637aDHLT8JyAdENtfjTNM89BAAKJCXwyoGM4NiBvIScQQm0QBGS70qMoAJUwLbxpyArAkQHtzW2mafhKQLo+PUCAAAQGSOBZAR2DbYTfoCGTewSka9O5OQcUgLDaGbICEDIQ+9ROk2Azvm6rdWccJvc/rUmiPAMBCORPIGRt0B3EwQ2L6GNFkw6m7ue3G6bZ1mMoAGGkh6wAfDdA7pta47PDpLptbPr+kL0+YZLA0xCAQFICtrp2dkAHca4kO22pG24VkKaPM+UcUADCamfICsDPA+Teynrd4LZ5XkCaf5KE2+q61LkfAj0i8NGADsJvCm9sUNZrBqR5ToP02nzk8ICy+XTE2MNjA/i9JXN4Vpin367rfHebqRveFJCe8/a/dRPkfghAoF8EQo7kuZO4RNKONYu8XuC6ZM7nkr0sUqdjn753z5och3j7/QP4vTRjIH4bn67rOt+9hr9uzbK5Tbpt1kln9t6Qkwc1s8vtEIBAFwSuGLgM4E7DU5tXrpn5PwZ0TjvXTKvN2/dtWC538nYjPPbgjaWzA1HV/21GONdw+4BynVWzUBtJsrXOqtzm3efp/w1qpsvtEIBADwkcGthZuAOpez7/ewFp5jxV7je9vzco2wk9lJtUWf5hA342arVJqgxFiNeGfOYNtFWuua3UCR8KSGuSn0PqJMi9EIBAfwnsEKHDcMdRxzjQhwPSfHHmqF/boGxM//+rUpvYich5+t8le0kTJAgyAAAgAElEQVQDmZgMxm4rVcPzAtKZpOfZqBtVTZD7IACB/hPw+fpJBxDyuX9FFCEdojcu5hw8deo3+qocPQNDWJOAN/RV5Xe8pPXXfDy7/0Lc8VZVeJ9eg9kytl/Mjh4ZggAEkhLYJVLn4Y7lsArHhx4ekN7vk5KIE/nmkj63Shn9pnVQBVZxctSvWOzAxmfYzWjZYPXpzKf+J9R/t0o5lpXRprOXhbWKHw8MiH827d2WJcZvEIDAMAkcE7ETsf/xqy3BdIvAtK63JO5cfnLH/BBJtgB36VR5vV59hCTbQyAsJ3BbSX57vnCKn3e3f0mSlwrMOPdga3yzg2yd/3daUsBrSIrZbj+7JC1+ggAEBkzA63529Vunc1p2r3cv+01/XiftY01/C0gr542A80TEpy22k+Tz3HWPdM2Lb2zXzGwbSR5MzbJPwV4el7WTZb+5jcyTFxvo2UeSd+sve77Ob277rP33SbLIKwQiE/CUdJ1Oo8q9Nt/7b3MUga8HpJW70ZfI1UJ0PSbwtgA5dxuZDlam7ybpxIA4F7XZV00nxHcIQGB8BLyBLcRN8KLOxddPkvR4SVuWWL1XYNn9y3776fiqhhL3lMDJAXLuNuKwVfG2/8RiSclyv6xdNP3NbZ5z/yVsPiAwZgJen29ylr1q5/OP4i3mGxU2ya0WX1NvhGOuW8reLoHtAwdsbyT9piS3mdXaQ9Pf3daX7TNolxipQQACnRMIccrStCOq+5zdGRMgkDOBZyccuOu2l0X32/8CAQIQgMAaBOqcxV7UuaS87vPfBAjkTMAymrINhMb95pzhkTcIQKA7At5pbBO/oZ1Mquc9LbrsqGF35EgZApet26ecug9tVx+RtDYVBQEIQGARAR9B+lTGSoA3FRIgkCMBy2boIJ3q+U8uOF6YI0fyBAEIdEjAu4O/kGln9htJdi9MgEBOBGya2LKZagAPidcbC3M3nZxTXZIXCIyegJWAd2faod179LUDgNwI3CfTtnI4g39uokJ+INAfAk+bMWsb8iYS61lcl/ZHfsaSU8tkLPmOEY/NJz9lLPApJwQgkI7AHpLOzqiDs6MVpjTT1Tcx1yNgWbTDqhgDd4w4bC74rvWKwN0QgAAEFhOwZbL3ZNTJ9c03wGKy/NJ3ArbRH2PgjhHHkZK27jtQ8g8BCORJYHdJP8ugw7NtdAIEciBg3xcxBu+QOH5VWBDcMwcY5AECEBg2gQ2LfQHPL+z82/tfSKcV+uwdho2Z0vWAwK4dtwG3QbdFt0kCBCAAgdYIuNN5giS/fYQO5k2et2ETAgS6JPDxjmT/l6Wjrb65Su6yrkgbAhBIQGCdwqPgXpI8IF/YYodoq2s3SVAeooRAFQI7Svpni/LutvXRsq1h0a9KDXEPBCDQKoErlR3UhySd00Ln+L+tlo7EIPAvAh9rQb7dhtyWHiTJbYsAAQhAoDcErl9sGtxb0sGSjpV0hqSLInacngW4WW9okNGhELh55Lf/i8u24TbituI247az1lCAUQ4IQAACEwJXkbRDoRTcqez4muwBmDzDXoAJVT7bIhC69v9bSXeWdGNJV20r06QDAQhAIDcCtlg2GcybfHod9la5FYr8DJbAzhHe/p86WDoUDAIQgEANAj5N8IdAJeDrTJfWIM6tTQl4Sv64QFm1pb6NmmaA5yAAAQgMjcBzAztVzxw8ZGhQKE92BB4WQU6fk12pyBAEIACBDglcOcKpgdMxiNJhDQ4/aZ+5PzVQAThX0qbDR0UJIQABCNQj8JLAztWzALaKRoBACgIHRpBPyzgBAhCAAARmCPhkwPmBnexfy+NTM1HzLwSCCGwnybLVZJPq5JkLJG0RlAsehgAEIDBgAq8K7GTd2X6RDYEDlpD2i+aNfz6fPxnIm34e1H7WSRECEIBAfwh4L8DvInS2j+5Pkclp5gT2iyCPPuWySeblJHsQgAAEOifwHxE6XG+2wi9651XZ+wxcLcLmVM8YPK73JCgABCAAgRYI2NHJDyIoAXacMvSwrqT7FMrO/0j6mqSvSHpvsVt9X0kxPMXZ/rwHrw+U8X9V0lsl3VOSnUANPYRa/PPg/31JOO8ZuqRQPghAIBqB3SMoAO58PRAONdxe0k+WcPK0s09FbNYAgDervahw9/zHJfFbSbt1g7j78ogVn6br/dPP3bUvBSafEIAABHIhEOPtyzuvt8+lQBHzcW9Jf6s4QHn3+pGl/3grDfMUgs0l7SLpiZI+UyNuu6jdI2K5conKjnhCT6RYCcBPRS41Sj4gAIFeEbiupL9XHOSm37hmv39H0nq9KvnyzF5P0nmBXC4t17btbtYeFWeZ1fnfcWy7PMu9+tXLKicEMjE/e7308UECBCAAAQg0IOCjU3UGo0X3vrJB2rk+Yv/wi8rZ1fV35gqrQb5eHYnvKxqkzSMQgAAEIFASWF/SSRE6ZL/leuNa34On6v323tVAvyhdz9R4w2Dfw70izIiY0c8ibcLsO0/yDwEIQCCIwO0iDXqeqvbabp+DlZhFg3DX171xs8/B0/V/jsDXyqb3UxAgAAEIQCACgddG6Jg9QP6w52+qPtXQ9UC/KP0HR6jnrqLw7MWPIrF9TVeFIF0IQAACQySwwSpH3hYNSvOuf7DHgOzyeF6Zcrjmkwl9DbH2VTD131cJIN8QgEDWBO4QaX3Wg+Uzsi7p4sztkLEC4FMbfQzPisTUezN8zJIAAQhAAAIJCBwSqbP2Ou0DE+SvjShjbIqMPWPgo5Z9DHtFVCqZ+u+jBJBnCECgNwQ2LHdYxxjAbCDHGwz7FnJcBujj9L/f1qsaU1pN3myRMYbp5b7JIvmFAAQg0CqBm0iyBbrVOuUqv/+pp8Za3h2p/FUYrXbPW1qt/TiJebnCppJXK1uV321t8sZxskUsEIAABCCwGoFHReq83cGfLMm27/sUbK3ujREZVBnoZu/5Z+Hi9nU9dHRzVUk/j8juEX0SHPIKAQhAYAgE3haxE7fHNhvZ6Vv4N0knRuQwO8gv+t+mcvt47n8TSd6vsKhcda/3cfajbzJOfiEAAQisIOCjgTE7829I2nhFKvlfWKvgYAt2X5Tkt/K6g1jV+71x8hhJe0pymn0L3j9id8ZVy7vafVYaWffvmxSQXwhAYDAEriXp7Iid+nE9NxTk6e1Hlt7/7IxmtUFstd99tM1M9pd0jR5LjQfqL0XgMeFli4F9PfbY42ok6xCAAATWJHC/yG++R0myD4K+h00l3aVwa/s0SYeXSwVnFjYQvGltMpBNPn3tt+WMih37PKV4W76zpCv3HUJZl67TSVlDPz3Lct8BcKEIEIAABAZB4GURO3gPEEdL8pTxUMM6kq5S7nvw96EG16HrMnTQn37eskaAAAQgAIFMCHhN+j2RO3qvFw/hDTiTKmo9GxuV+yKmB+/Q7zYZ3Mf9D63DJ0EIQAACbRJYr/DC9oXISoA3GfbtiGCbzHNNazNJ3tQZOuBPP/+VgSwN5Vpn5AsCEIBAEAF3/D+N3PH/QNLVgnLFw20SuHrp9XF68A79bkt/li0CBCAAAQhkTODakn4fWQk4Q9LNMy4zWbuMgC3y/SZy3Z8l6foAhgAEIACBfhC45YLd7iFvgudLuns/ij/KXPrEg4/nhdTx7LP2F3HbUdKk0BCAAAR6TOA+ki6JPCBcLGnfHjMZatZdJ66b2QE85H/LTh+dHA21jikXBCAAgVoE9pZkYzYhA8G8Z1/ZQxv4tcD15Oa1JR2UoH49+NvrIgECEIAABHpM4MEJZgKsFHxZ0lY95tL3rNuOgU0Tz1PQQq5ZYXx43+GQfwhAAAIQuIyA3+ZSzAScLmlnILdO4BaSfp1g8Le/A7z7tV6dJAgBCEAgLYF9JLmDD3k7nPfs3yQ9Nm3WiX2KwH6S/p6gHi0bdjNNgAAEIACBARLwZrEUSoAVg//tqUvhvlSzXfm+L8HA77qzff//6AsI8gkBCEAAAs0IPC6hEuAlATvRIcQl4CN+ZjtvBib0mhVCZnDi1hexQQACEMiWwP0l+Yx36OAx73m/TR6G2dgodb9uEcuBCRU2LyX4pAgBAhCAAARGRGC3BIZjphWCH0m6/Yh4xi6q2ZnhNNOY38+RtGvsTBMfBCAAAQj0g8AOhWGfUxMOMp4NsJdCH1kjVCPgtX7PoKTaq2El4reSdqyWHe6CAAQgAIGhEriGpO8lVAI84PxO0iOHCjBiuWx5L9Va/2T24MeStomYZ6KCAAQgAIEeE9i0NOwzGSRSfX6eN8+5UmJHS2aTivskXhtvcl0TIAABCEAAApcTWF/Se1sYhDy1/U5JW1+e8ni/mMHhiaf7J4O/69Z1TIAABCAAAQjMJfBESRe1oAhcKOklkq48NxfDvuh1/pdKMoPJAJ3q03XpOiVAAAIQgAAEViVwqwR+5RcNcHYz7E1vV1s1V/2/YYuiCD7W5x34i3jEvH4GJzH6LzSUAAIQgEDbBDxYtbEuPRnwLigVgSEuDWxZVJ4H/vNaGvjN9CsjUarabhekBwEIQGAUBNaR9JrSVOxkoE79aeM0Pjo4BBsCLoPX3lPY7l9UDz566Tpz3REgAAEIQAACQQQe2NJGtdlB7QeS/kvSxkG5b/dh59V5dt5ny5P6f2+w3Kvd4pIaBCAAAQgMnUCbb7GzA6X3CdgRzn0lbZAhaOfpfmUendfZ/Lf1v+uIAAEIQAACEIhKoEsFYHoA9c75I0vDQleKWsJ6kXnQt+EeL1e0ubY/zWL2OwpAvTrkbghAAAIQqEAgFwVgetDzxsFjimOLzyn3DNh5TqqwnqRdJD2/3BzZxhG+6bJW+Y4CkKr2iRcCEIDAiAnkqADMDooTheCVxTHGfSTtXJws2KxBnW1eKBa3k/ToYsnhoIwH/NnyowA0qGwegQAEIACB5QT6oADMDoiT//8g6TuSvijpk+Va/VuKY3L+894CX/tSec9ZHa7hT/Lb9BMFYLkM8ysEIAABCDQg0GcFoOmA2rfnUAAaCDaPQAACEIDAcgIoAN3t7q+qiKAALJdhfoUABCAAgQYEUABQABqIDY9AAAIQgEDfCaAAoAD0XYbJPwQgAAEINCAQogD4vLxt01edyh7rfWZkVk3LzxJAA8HmEQhAAAIQWE4gRAGY+KG/Q2nEx/bqmw5yQ3zuOEl3KfGbVdMyogAsl2F+hQAEIACBBgRiKACTZG8p6aOFUZ1LAwa7poNkLs+57B+RdIsJlPITBWAGCP9CAAIQgEC3BGIqAJOSXEPSAYXBndNGpAj8vjQudO0JhJlPFIAZIPwLAQhAAALdEkihAExKtHa59v35ll0PtzkbYENEj5S0mrliFICJVPAJAQhAAAJZEEipAEwX8AaF6+EXSPrhAGYF7BLYZXGZqgYUgKqkuA8CEIAABFoh0JYCMF2Y60jaX5I3yfVl4+BJRQEOlHTD6YLU+I4CUAMWt0IAAhCAQHoCXSgA06XaTtKzS8c8dvrT5vT9srT+UnokfJak601nuOF3FICG4HgMAhCAAATSEOhaAZgulfcM+CSBZweOkHROiwqBB3zvVfBb/l0l2U1wzIACEJMmcUEAAhCAQDCBnBSA2cJYIdhR0sPLHfZHSvJU/F8DFIMLJf24OKb3KUl2L/zvxdHFm0pyWikDCkBKusQNAQhAAAK1CeSsACwrzJbFefubSNqt2Fj4gHIn/n6Spv+8O9+/7SrpxpKuuizCxL+hACQGTPQQgAAEIFCPQF8VgHql7P5uFIDu64AcQAACEIDAFAEUgCkYCb+iACSES9QQgAAEIFCfAApAfWZNnkABaEKNZyAAAQhAIBkBFIBkaNeIGAVgDRz8AwEIQAACXRNAAWinBlAA2uFMKhCAAAQgUJEACkBFUIG3oQAEAuRxCEAAAhCISwAFIC7PRbGhACwiw3UIQAACEOiEAApAO9hRANrhTCoQgAAEILCEwNUkPVDS6wqvdv8IsKrnQY1QjUCIAuA6OqQ0arRVteS4CwIQgAAEICBdt7SU99bSlG4sD3woANWlK0QBmHVadGbpK8E+E+w7Ya3q2eBOCEAAAhAYKgE7sbm9pGdK+qSkPwa84c8OPLP/33aoEBOUy6xm+cX633Xsun5GWfexHRklwEGUEIAABCAQSmDj0nudvdjZm12Io5y6A9IlRead7hVCCzHg5/127jf1ixIqALP1drGk70g6rJjxeZCkqwyYL0WDAAQgMBoC1yg7dXfu7uRD1vBnB46m/1vxuPpoaqB6Qe186NMtDvzL6u+Xkt5TOkuyYyQCBCAAAQhkTMAuat1Z28OdO+9fZzKYzBto/iBpz4xZtp213SX9NuP68j4Cu1c+QNIuklg2aFtCSA8CEIDAFIErlZ2xO2V3zudkPIDMUwK8udAzE+tOlWlsX9cpCuxlkUt7VncXFEtJx0k6SNK9JW06toqjvBCAAATaJOAjXe5s3em6821znXjeAB7r2gnFjIVPHowtbCPpaz0b+BfVuRWYk4qlHZ8ceaSka42tMikvBCAAgZgEUh3HW9SJd3n9XEl7x4SXeVz3k3T2QAb/RXIze/yQzZ+ZCyXZgwAEuiHgqWCf0fYO8CMknTXwwWHRoOG9Cxt2UwWtpLpBueyxqPxDvn5eefLESx53LWayzIIAAQhAYHQEujyOl/sg46nkmw5QIm4o6fsjVezmyZyPhXL8cICCTpEgAIE1CeR4HG9ep5zLNdsn8GzIUILXxb1xLhe+ueaD44dDkXjKAYGREujTcbxcB4JJvj5STJlv1mM58kzP+xj4Gys+v+P4YY+ln6xDYAQE+n4cbzLY5vr5m9Jkbd9E6VaSTmHwbzz4z5NHjh/2rRWQXwgMjICt2O1VnH0+VNK3JXktc15nNfRrv5f0sdKmvDmkLK+PPNp2fR8c2TiPzmvqY5pm7nRcB66LlPxzjdttzxzsqdJt0p4rCRCAAASiERjTcbxlHf3s+uz0YDwxaJPa1PAXMjcjbHO+RyUejCcGlGat8c3uM4nlxXGZTOT4G8cPo3V9RASBcRGYPY6X0jtejp3nJE+zO7Q9sFUJPt7lddtJPCk+czUj3IY5X8vjPatUhKQrzzh++lvieklR1zHi5PhhRYHhNgiMjYA3mN1L0itLq2xj7ST/XL65Pk/SrpKuGCAIfhP9YuLBxjMNL5dkha3r4Dw4L6lnP8zUbJsG16nr1nXsWQrXeYwBtm9xuI3bAqPbvNt+nzeZNpUFnoPAKAnYGpmdmdicbi7e8broQL2xzrvT/6s8cx/bSpvj80CTen/E8R2bnbXJW+chZR2aoVmmqCPbW7AMWBYsEynLkWvcVty8j8AKwR16ss9klJ03hYZAUwLbSzpY0ukj7eRmO193+m0Ed6inJmZuJ0gPaKMwM2k4zdQOmMzODNsIlolZORnj/6cV1ihfLWm7NqCTBgQgkI7APYo3fm8cG+uGqEUduHeo3zYd9jVi9hSrd6ovykus628KXLpYI9NL/vFUutOKle9F8ZhZW9PTloXUpxYWlTPX6+4zPofb6iUtgZ8gkCkBr+15ij/XziWHfJ0hyR4G2wqPL/zJp95j8cPCl8IOCQvkuJ1GyvozI7NqK1gGLAspy9T3uL8lyS8TBAhAIGMCnrb7zIA7M7+VnBxxRuPYljfS3UzSTxLXz4XFUs9jEsio43TcKQczszGjtoI3MFoGYpTJsvnzSHHFyE+KOD5d7Je4fluVQzoQgEA1AvYgZy9jqd8wU3Qqy+JcdBzPu86XPVfnt9dWQxztLk+hHxYx/4vK+tFIU+g+Tvf+FvJrT4i2KtlmOCRiuV5WZnzoxw8vLuXXZp4JEIBAxwT2GNDmPm8q81vGc4qjdHdc4jLV/gaOidh5P6SDOnyoJJ/RXjSAx7hu40W3CSibn3UcMfKyKA4zMIu2g+t8UZ7qXrcsWibnhcnxw+cO7PihN2ja7gUBAhDogICnL/3Wn/r8dd3OsM79IVbLNo84ONnG+k06qMO2jtFZTuoco7OVQ3sjTL0xzsfPuphStmviWMqXB8ItasrOrHXNOm0mp3u97OHZrHVrlp/bIQCBAALblMY8cuoMVsvLpZLs6/6tkuwe9toB5Z88umPEdWmv324yibjFz7YUuapmhLs059sGdk9dx9qH4SU3Oz0KDfavce/SPsdxkjzNvlp7yun3EyRdJxQCz0MAAqsTsCnUs3vQQfit2tbbXizJyxSp1gz3icjiEx0aQrl7YZTGZn5TduyecVk2bevffE/KPLiMLmsXwTMbruNY5ds3USHcVu5Wtp0vFU6P3JZi5TlVPO6TqpppToSNaCEwbALeiZ3aulzTDsIe2Y4sNiIeUFobnHXWkrJm3hyxg/RabVdhS0mfjViWeXU5b9q2rVkID2Yh5nxD68UWBecxaXLNMtdW8P6CGxfK2X6SvFkytXGpJjz8jGf52jzC2RZ/0oFApwT85uJ13KYNM8Vzy7zjtQ3La5C2bx6jnN5T0dUbqrlN1t9TTwP7bLfXoreNyG4Rfyutlt9FG+XakBfPbniAWpTHOte/WZjOXb+NTC9JY9b7YU57gbwvoM6ekyXF5CcIjJuA36TfG6njqtPJTd/rzWC2+W4TofdpsOmpjRq8ZsQp9D9F2qMQUu7bt2Cf3g5xUjvFsY19l6XL4P0mrtNpmW763UsYlrXcgjcium26jbqtpt7AuRo/91ltzgLmVh/kBwLBBPyWcXSkjmu1Bjv9e9XjeMEFjBzBnSIukZzYkmndZQhsCtfn+afrpk/fY9kiWMZotd98DM91GYObZzLs9rgPYYPyKK2P1PpobWq/DfP4ejmr65mSPtQVeYTACgLWnj8VqeOa1zinr/lI1IcLX/b/UR6H6/P03dMjMjt8Ra10c8GOavpk5Ml5bcvh0mo14jqclvWQ789YLbGMf3eb9lHX/yzb+vkRuSxj6j6MY4IZCwZZy4+AN2V9JHEDtVnXt5W7jYekpXsN3crMsk6pzm/uMHMIdl3rY5R18t7Fvc6j85pDcN3FYnBEhydEUrB0m99T0v9EPEq7iPX/tmxyOwUv4oRAKwSsqds/+aLGFHr93NJ4h88eDzVsJOnHkRh6M94umYDytG4bZoSbylgX5nwXVc3Okv4eSQZ+JskmfocavH/AmzRj7ZOYJz9WoLrcBDrUuqNcAyMQ80jbdEP0piDbK2/b3npX1bN9RGtvpxcucH1EL5ewtyQrctP12+V358V5yiW4rlxnMZh4ecyyNIZgxfkVCTcQ2o00AQIQWEDgqZE6rdmOzx7PUrqJXVCczi97V7TPvc/yaPK/LbTltJbZhhnhKpy6Mue7SLi8fPblSHVu2XngooQGfN1eRT8XieGsDNnENAECEJghYCtasc4pTxqdN2N5Y9+Yg99oJjxCPw/ODKQVEh/7iqXk1OHjNJ12TkqRq8d1VKccy+617Iw1eC/NEyIuo0w4u4/DYuBYpYpyzyVgH+ixd+X+QtJOc1Mb10WvO8Z6m/Gg9+AM8bmjnnSwbX06zdyC6yaWMmSZYc1aumVEp1sT2XRfl8tG0dxkmPyMjICdr9hYyqRxxPj0ud8uHNvkWnVXicj4L6VZ1hzKulVhlOkNHTmP8eZIp+085BBsKtd1E6P9uD3W9fCXA4NUedi0dGUcg+0kDjN230eAwGgJeJot9ll/n3v2OihhTQJD8Bw4KZE3ctrnQiyXtpNOucmnHdUc1LHCmaOHv0ldDeXTsyH25NlERhY9Y0NBfbY5MpS6pRwdEbCVrkWNo8l1d8RWKgjzCTw8Iu9PdsDa6+12CGPHS03kI+UzPkJmpcRHFdsMlveYNjPscIswn4BZx/ZJ8uz5SXEVAsMmcIeIZmvdsfsEAWF1Am+JOHi25TnQb0kPk/SriHlPpQw4j85rW292roNYZfEbLmF1AraIGIu5zSvnYmdj9ZJzBwQiELCN95jr/m0NRBGK3nkUfov2kb4YHVgbngPtxe67kfIbo8xV47BFwAclru27RDw5k4OHv8S4okb/wogyaZsN7LmIWj1EljOBmA5ebNyHUI9AbM+BPpMfO9xG0pcidrJVB+7Y97kMLkvsYOaxLNfZw982sTM4gvheGVE+PzYCXhQRAv9nMS1WJ2urgYRmBOzVzdOPMeriOxHXvm11zrbTYx1ni1G+0DhcFpcplkU97zMw89B8+fk+efhrJulpn4q5MfChabNK7BDoloCPvfhtI0bHdQy7/YMrM+Zapv2fhwTLhu38x1JKYshY7Di8ZGJ/AdcIAVW8rb8jUhty+ew9ktCcgE8cfT5SfXhGJ5djpc2J8CQEFhCItVv5J5J8NpcQRsC7mmN6DmxiddH21717PrYhqNiDd8z47InSJ1aayHBMD38f7+AkR5jE5vm0HSX9KJIS4NM1BAgMjsBDIjWQsyVdZ3B0uiuQB+BYbnbtfc5e6KoET2P77TPWOnbdAdobr3zkzX+xHOfUzYPLbgZVjw7G9PDnOnfdE+IQuJ6kcyL1cTla24xDiVhGScAa8pkRGofXUu87SoJpC32DiN71XM/LXC37eJx3x/8ygjzUHXB9vztpzzhccQrpeqV9gbM6ypMVENs3WGZ6N6aHP8+2jNE51lSVJ/l6r0h7V2znosnsUJJCESkEQgkcGqljfVVoRnh+IYGYngO9832eNUYf6ft+JFmoO/jbHbQ3bC0zv+rjqZ6a/2tHefTS1ryjg7H9Oey1UAr4IZTAayLJziGhGeF5CORAwDbKbTe9boc9e/83MvS8lgPfmHmI6TnQHeEkeOo6lovaWblY7X9vvDtC0rUnmanwuXWpLHS1IdGyvttUPvHwNwUj869WfL8Wob+z7NlJGgECvSXgTWbHRmgMtvme4qx5b8EmynjsN02vb38iQv2vNsgv+t2b3G4UwMrT5I5jUfypr5udGcY6Eund6suWGQJQ8egUASubMfxUWGl2H0qAQC8J/HukznPfXpa+n5m2RbKYVhpTD5Lz4v+qpNtFxO+4HOe8tPpyDQ9/EQWiQn+ei4kAACAASURBVFSPjSQve1dIi1sgkB0Bb6yKYbvd3gIJ7RK4eYfr4CED6qI19Fj0vIfhe5E69pBy1n32b4U721vHgkA8lQnYLXndupq934rb+pVT5EYIZELgaRGE38ekrpZJecaWjUdHqL/ZzizV/+4kH9WSAx6fYnBap/aIj+uS0D4BG3yKcTRw//azTooQaE5gk0jnu3FN2rwOYjwZ08xpisHfNiG6cMFrtpOjg7EsW6bg4zjt/ZHQHYEYhpv+KMlHqQkQ6AWBl0d4O/JOWjbAdFvdMT0HxhzgQizpxSaasyXDE5g+jl3dtePzjNHxEfrDF9dOmQcg0AEBG4G5IFDgfWzwJh3knSRXErCXuK4M5MwqDZYLO4BaZmhoZQnaueI8+W27q6ODs6xcZ3j4a6fuV0tlxwhy8RdJNgZFgEDWBF4bOPi7I5s+Q551YUeSuTtH6MBmB6g6//sYnM/y22Jh7sF57NqboZUQ1xkhHwKvi9AvYggtn/okJ3MIXKU4t2xNtU7nPnuv31y8h4CQF4FnBtbrbD1X/f84SbvkhaJSbrzr/osdMbOXR0JeBGza12v5VeV+3n2eWfUxXQIEsiTw0kABt9B70wwhPwKxPQfO6+Cmr/14gVnc/Mgsz5GPDp4YoV1Ms1n2HQ9/y+ujy1+fFEEOXtRlAUgbAosIeJdq6JEXn+OeZ0N+UZpcb5eAN7x5YF42AIX+5uN1qznGabfU4alZebKN/1MSs/sZu8XDKythDO7bQtuPT75snDCPRA2BRgSeHaFzszctQt4EbhjJzOmsouDjdH5D8vG6oQaX7cmJNlXa9KzrhpA3gftF6Ce9HEeAQDYEfFws1Kf6tzj2l019rpYRu2SOZZ/e65r2wDemfR9XKu0XxLAXb0XKdYGHv9WkNp/ffTxzVgGu8/8ZOEbLpzLJiRTD5r/XSgn9IfDKwE7MR/psaGjMlh69ocvKz98DWdqLI6E/BO4eWN9WFua5je4PAXI6KALfDBRoG/0h9IuADZx8tkG9T470Xb9fxU2a221LZciui+u8CfreL+DhL2ndpIr8Kw3qelo26DNT1Qzx1iJwm0BBtlDvXitFbs6FwGaSvlOj/o+RtFMumc8wH7eQ9LkaPL8tycfLCP0jsEeNep4e+Ke/W14IEOiUwHsDBdmzB4T+ErAS8L5VZMAD1V36W8TWc+7lMDOb7uxnv7+Hwb/1eomdYOjx0HfGzhDxQaAOAXf+f12lo5rtuGb/v3+dBLk3WwI2fHNoaff8l5Ks2L29MIZzRzZ3NqozHx3ctWRolmZqm/JmfKtGMfJQbgQeHNh3egMtToJyq9UR5efxgQLsc/9eSyZAAAIQGBuBtSX9PLAPfdzYoFHefAiETmEhvPnUJTmBAATaJ/DEQAXgG+1nmRQhIN00UHD/XDj98XloAgQgAIGxErBVv3MD+9IdxgqPcndH4JBAoT24u6yTMgQgAIFsCPx3YF+Kl8BsqnIcGfG6fYjlP593vu44UFFKCEAAAksJbB9oWfNXbLRdypcfIxPwzu7Z3fx1/vdZZwIEIAABCFxGwCc86vShs/faHgsBAq0QeEOgsO7dSi5JBAIQgEA/CNgN+uygXuf/1/SjmOSy7wQ8/X9mgLDaneUGfYdA/iEAAQhEJLB5oE+I37AMELE2iGohgVDTv29cGDM/QAACEBgvgY8FvFh5tmDH8aKj5G0RODBQSL1/gAABCEAAAmsSeEBg3/rsNaPjPwjEJ/CtACH10gGW/+LXCTFCAAL9J7CepD8F9K9f7T8CSpAzgatKauKydLKZ5XU5F468QQACEOiYwFsCFIBLJXkvAQECqxLYprBD/e+SXibpCEnfl/RrSedIuiRACCeDPZ9hu3rhtzo/d3i/lfRRSZ4+tQOdtsKWRXovLt0hn0d7CdrBjqyvLuuhjNynu293H+++3n3+SyU9tHA4dc22Gg3pdEfAU++7S7KGeQodFh3WAGXgOElbt9DEHinp/AHyCx1keD79QJ6KsZ0SvVnSnVimbaEHaTGJq5Wa3ql0WAz6I5CB0yRdPWH7CnXekqoDJ97+Dr651Z2PFHp2wGMHoacEriXJR+7+NoJOP7cGRH667Yy/mKjN3orlMZToEfWnf5Vko2/bJmpPRJuAgI3seG2Sgb/bQQgloFv+eyRoW0ePqPNHfruV35z4eyx5IQbcEvQokaO8s6Rf0EnxloIM6PDIbcsnYLzpMKeOmbxQH23KgPeOeY8AITMCaxf5sYEeOig6hDY7hJzT+lHkNuoZhZzLS96onzZkwMfADyr2CHjMIWRAYFNJXvNso/JJA859kYHfRW6bD6GN0ccgA5fLwOclbRK5jRFdTQLepfk9hPJyoezL4EQ+0ytSP6zZlla7/a60M9oZMrCGDPy4pWO3q7XNUf5+bUm/QiDXEEgG1vQDa18YvzNyr7AFS2y0NfrbFTLgMcgnzggtEvCGpJMRxhXC2JfBiXymV1T8xh47fIY2R5tDBlbIwM+K44JWkAktENhI0rcRwhVCyKCaflDtC+PPJWqHt8AOAO2OvneuDNhJ3JUStTuinSLwAQRwrgD2ZXAin2kVFds632qqvcT++vjiTPQ/aYO0QWRghQy8N3ZjI741CeyH0K0QOgbUtANqn/ge25L50odJOpe2SFtEBlbIwGPWHLL4LxaB7bHut0LY+jQ4kdf4isrFkmz7357N7h2roVWMx2ueL5Dkqc+zGQhom8jA/8mAzQdvV7ENcVsNAj53mWIQ+WXpM2BvSTuW/qQx8lCjYrgVAhCAQOYE3KdvLunmpQvgNyU8RWaT2YSIBOyzOebgb2tOH5G0S8s+1CMiISoIQAACEAggsFZhRO6Okj5azGZ5TIg5xjwoIF88OkVgXUne2BSrcuwz3W/6BAhAAAIQgIAJ7CTp6xHHGfukWQe04QT2iVQplxRZsb+AK4RniRggAAEIQGBgBDwjsL8k762J8cL5iIHxab04Hqx/GqEyLpB099ZzT4IQgAAEINA3AveUdGGEcecnvHCGVb3d+4ZqYvblvFtYNngaAhCAAARGRMBufz12hI4/u4+IWfSivitCBbAZI3q1ECEEIACBwROIsfn88MFTSlRAm1X8S6AC8PpEeSNaCEAAAhAYPoE3B45B50vacPiY4pfwHoHgbSDFfgMIEIAABCAAgSYENpZ0RuBYtGeThMf+zGsCoT9y7AApPwQgAAEIBBPYN3AsenVwDkYYwYkB0G03gDOYIxQaigwBCEAgMgHbovlNwHj0ncj5GXx0Bh5yFtM2ygkQgAAEIACBGAReHKAAeCzzmEaoSOCGAbB9bMOOgwgQgAAEIACBGAR2CByTbhAjE2OJ474BsE8fCyTKCQEIQAACrRH4bcC41La3ztagpEjoSQGgP5kiQ8QJAQhAAAKjJnBkwLj0hFGTq1n45waA9ukBAgQgAAEIQCAmgdcGjEvPjpmRocf1SkAPvYopHwQgAIFeEQh5MX15r0racWYPC1AAntxx3kkeAhCAAASGR8BjS1PfAB7TCBUJ/HcAaO8fIEAAAhCAAARiEgjZm+YxjVCRAApARVDcBgEIQAACrRBAAWgFs4QC0BJokoEABCAAgUoEUAAqYQq/CQUgnCExQAACEIBAPAIoAPFYLo0JBWApHn6EAAQgAIGWCaAAtAQcBaAl0CQDAQhAAAKVCKAAVMIUfhMKQDhDYoAABCAAgXgEUADisVwaEwrAUjz8CAEIjIjAxiMqa85FRQFoqXZQAFoCTTIQGBmBtSTdU9IRkuw47CJJf5B0tKR9Ja2XAY8NJT1N0rfK/Nn4zF8lfbnI82MkrZNBHseYBRSAlmodBeAy0FeUtKOk+0l6rKT9Jdkc5QslHSDp8ZIeWHRet5W0RUt1kyKZWxad8H9Jep6kJ0q6naQrpEiowzi3lXR7STeXtGmH+Rhz0leT9KVVjIz9pGxzXXHauVRMllmc+5Gk7brKoKRNJO0l6RmSDuro7wWlwnadFjmgALQEe6wKwPaS/rN8O/m1pH+s0lnNdhJ2V3lUqRx4UM19ELWLTHe4s+Xw/y7/w1qSt1TJbFB2kqfMlPESSZ+XdOdUCVeI94a6zN7GT8u3y3l1EOva2ZKOl/RMSV1NZ28p6Zcz9bCofOdJ2qkCw9i3ePD3m/6ifE1fP0tSm4Ofy7p58aLxhqlZien8dPn9C6ViHbs+ZuNDAZglkuj/MSkA1y8YHlijc6rT0M6UZBvUniHILdg5RpWyvK0Hisw8tu6c/aa2Whlf3/KUrpXCVxSzLVZCVstbit893b7nPGCJr32mZnl/U77pJs7W5dF72v+0mnk8QZKXNNoInnH4Rc38pZCfRXH+TdKDEoNAAUgMeBL9GBSAu0s6tpjO/2dLjerE4q36UZmscdZtSC+bCEZPPq9Ss7N8Y4vlOrwleVvUUfv6peWyVlvFvlPDMr+nrQyWa/7LmC36zcuDqYOXrH7ekOGifKe47v0cd0gIo26/NV1Gj2mEigSGrAC4wX63w8bkqfV9JK1dsS5i33b1Ylr8gprl94Bx49gZSRjfB2qWzx1FG2/F3kA23Sl1+f0vkq6ZsA6mo/6fgHJ7j00b4ZsN82hZSx1e2zBvXciXl7RSbZJEAUgtaWX8Q1QAPNXvncZdNIp5af6g3GzXUpVensyLGjJ48+Ux5P3FU6VNZnWOS1ysdSV5j8g8Wejq2lsTl3kS/fcDyv1HSd48mDJ4Gt9T2E3qwQNeyuCNyHUV9ibliPlMKmUaBSClpE3FPSQFwGuu3rnftIHHbBizcXmToVl7cGgrfKNhR+eZiz6Epzcsn+si5UCzR8N8zcpMzP//3JLsnRFY9k8nXmu/ckD+vMEyZfi3gLzFlJU6cR2aCAgKQCKws9EORQHYqtztXUd4u7jXO9LbUgJ+17BD8TJAV8sWs/K57P+3Nyyf633XZREH/vacgHyllEmffEkdvBk2tAz7Jcyk19ib5s9KVMrwuIC8NS1T6HOfSAQEBSAR2Nloh6AAeOd908EutAE0ef7g2UpI9P/5AR1KV0fI6qD4aED57l8noZr35rqOa9sIqUMMBcDT4KnO3uesANj+SJP+pMtnPp5IoFAAEoGdjbbvCsA9erhudnFL54pRABZ3qA+YbQgR//e0aJed8qK0Uw2q0+hiKADO/9cTzULlrADcNVO5WSRPvv666cqP+B0FICLMZVH1WQGw8RoPpssENNffvFchdUABWCwbY1MAvH6dasf2tBzHUgDcblO0kZwVABuzCmmzXfR13reQIqAApKA6J86+KgD37dDASoyGZmMpqUNIZzL0JYCxKQBtneyIqQDYgNKtIzeSnBUAF9XmfmP0L23E4dNNqSygogBEFvxF0fVRAfAGrqpmPNtoCE3S+M6iCol4HQVgcWc6JgXAcrB1RLlaFlVMBcDtyuarfTwuVshdAfAphUUmu5v0M6me+bskm1NOFVAAUpGdibdvCoDNvp7TIy15UQO0o5TUAQUABcBv0fYD0VaIrQC4/XhTZayQuwLgcrqPs82BRX1H19e9STO1VUQUgFgSv0o8fVIA7D7UNrm7bgAx0k+1eWa6ulEAFsvKGGYAfDLGG8vaDCkUANtt2D1SIfqgALio9gLo00I5zXTa6JbtNNwoUl0siwYFYBmdiL/1SQE4JPHg77clr2v9b+FG1ju57UTHtvHfVAj9hyV9r7StHkMBaONIFgrA+BQAOwD6qqSnSrpSxH6ialQpFAC3t9MLZ1ubVc3Ekvv6ogBMiuA6vFcx6/nk0vOoXZPP+/tYQN9o08jz4pxcs8Gtf5d0jUmmWvhEAWgBspPoiwLgs/51XfZWGag9SL5Tko8TVtn4tlH5VuVNVec2bHQ2U9xGQAHonwKwfxuCkTCNVAqA2/K7I+S7bwpA1SLbtXmV/m7ePW1tEK1aFt+HAlCHVsC9fVAAfHzJb9/zhLfpNXdUTyum2TygNw12K/romq5F/SZjJz1tBBSAxTKT6xIACsDiOnNbD3VDiwKwki8KQBu9caZp9EEBCNEGZxUET/N7ba3K237VKrMi8MIKBomsxFy7aqQR7kMBWNnZTeQBBSCCgM2JIuUMgOsu1GEQCsDKNoECMEeQx3IpdwXAR4Bimfn12/cdE1asHcx4x7Kd6UwGGi9bHC/JZj7bMMQyXTwUgH/Vw6Q+Jp8oANOSEu97agXA9eclNHv1axJQAFa2CRSAJpI0kGdyVwCeODWYTjrvJp92U9rW1LtFw0sLPnvtkwtdBRSAlZ3dRHZQANJIZRsKgOvQjnOaBBSAlW0CBaCJJA3kmZwVAL8xnxpBAbDRHR+rGVtAAVjZ2aEApG0FbSkATR0GoQCsbBMoAGnbRNax56wA+PjLpMNu+nmKpKtmXQPpMocCsFh+mAFII3dtKQDuD7y0VtdtNQrAyjaBApCmLfQi1pwVgCMCFYC/SdqpF7WQJpMoACs7u4kiiQKQRubaVABcl8+pWQwUgJVtAgWgphAN6fZcFQAb/fAAPumwm3zagMWYAwrAYvlBAUjTMtpWAOwN9FY1ioICsLJNoADUEKCh3ZqrAvDgwMH/hx3sus9NNlAAVnZ2E0USBSCNtLatALg+T6rhMAgFYGWbQAFI0xZ6EWuuCsBbAhWA1M4q+lC5KAArOzsUgLSS24UC4Dq1bY8qAQVgZZtAAagiOQO9J1cF4OQABcDuNJueEx5SNaMArOzsUADSSnhXCkBVh0EoACvbBApA2jaRdew5KgBbBAz+7uCfmTXx9jKHArCys8tdAZjkr+6n/bP7xMsbC2dWN25PxFak1JUCYF5VHAahAKxsEygAK8R4PBdyVAB2CVQAthlP9S0tKQrAys5uMrDmugdgkr+Qz0uLNfFXNTgit1SYKv7YpQJgZu9aJZ8oACvbBArAKkIz5J9zVAAeE6AA/GzIlVWzbCgAKzu7ycA6ZAVgUsb3drAUFqIA/Cmg3U/K7M/7L2knKAAr2wQKwBKBGfpPOSoABwV0BHbtS7iMAArAys5uMlCMQQFwWfdruTGEKAB7SfLsxaSOmn4ucxiEArCSLwpAy40kp+RyVAD+J6ATeFZOcDvOCwrAys5uMqiMRQGwI602/VGEKAD21fHqgLY/qVt/LnIYhAKwsk2gAHTcUXeZfI4KwAcDOoG9u4SZWdooACs7u8kgMRYFwOW9W4tyGaoArC/Jjrsm9RTyaQ+cswEFYCVbFIBZKRnR/zkqAEcFdAD3GFHdrVZUFICVnd1kQBmTAvDc1QQl4u+hCoCz4lMMoVZAXc/zHAahAKxsEygAERtA36LKUQE4JkAB2KNvFZAwvygAKzu7MSoAr00oY7NRx1AAHKeX8iZ1FfI56zAIBWAlVxSAWSke0f85KgAfC2j8y3YAj6ha/6+oKAArO7vJYDKmGYBntyj4sRSAK0g6NqAfmNSzP6fLjwKwsk2gALTYQHJLKkcF4N0BDb/tXc+51ed0flAAVnZ2k4FhTArAnaeFIvH3WAqAs3kdSecF9AWTup52GIQCsLJNoAAkbhQ5R5+jAvD6gEZf1SZ4znUSK28oACs7u8mgMBYF4AxJ68YSqArxxFQAnFyITZBJXfvTDoM2kIQCsLJNoABUEOyh3pKjAvCMAAXgC0OtqAblQgFY2dlNBoWxKACPaiA3IY/EVgCcl48E9AeT+vbna1AA5u6rQAEIkfieP5ujAnDvgAbv3cPW9AkSCsC4FYC3ddAIUigAV5X0+4A+YaIE2GGQvYRO/q/7+ecOeFZN8j8DyoUCUJXyAO/LUQG4QYAwu1Hfc4D11KRIKACLO/shzwBcVLSfF3VgBtgymkIBcLz3DewTJoN9iCKBAtCkF2r2zJMC6ttjGqEigRwVgHUU9vb64YplH/ptKADjUQDOLWzg/6C0pHe9DgU7lQLgItnM92Qg7+ITBaA9wUIBaIl1jgqAix5iDMi7fq/VEr+ck0EBWDxg5DoDsH/OAlUhbykVgI1Kl8ddDP5OEwWgggBEugUFIBLI1aLJVQF4eqC2/6bVCj6C31EAUADaFvOUCoDLcodIDoOaKBEoAO1JEwpAS6xzVQB2DFQALpHkOMYcUABQANqW/9QKgMsTy2FQXSUABaA9aUIBaIl1rgqAi//jQCXgWy17QmupyiongwKAAlBZWCLd2IYCYIdB3u9QdwAPvR8FIJKQVIgGBaACpBi35KwAHBChkR8aA1KDOHyS4TmS3ifpCEk+avNwSVdsEFfTR1AAFg8S7AFoKlXLn2tDAXAOYjkMqqMUoAAsr/uYv6IAxKS5JK6cFYCtJXkqv04jnXevhamtsKWkZe6M/yRpn5YygwKwWHZQANIIYVsKgHMf4wVhXn+x6BoKQBqZmRcrCsA8Kgmu5awAuLh+g17UIKtetwEQG8pIHbatsUv5kNSZCTxKuXEL+QtN4qMBsoECEEp//vNtKgAxHQZV6UtQAObXeYqrKAApqM6JM3cFYAdJHsCrNNDV7nm5pLXnMIhxaRtJv6qZz9RKCTMAi+UGBSCG1K+Mo00FwKnHchi0Wt/h31EAVtZ3qisoAKnIzsSbuwLg7MayBe5G/KUENgK2r/HmP93R2HiLnZOkCigAKACpZGtRvG0rAM5HLIdB021z3ncUgEW1Hv86CkB8pnNj7IMCYMtmf635dj2vAU+uXVicJX6+pBjT3I+WdEFA3lK6L0YBQAGY2+gTXuxCAXBxYr4kTPqJ2U8UgISCMxM1CsAMkFT/9kEBcNlfEDDIzjbkyf9nS3qZJO/YrxO89mjb5MdHyJP3OKQKKAAoAKlka1G8XSkAsRwGTfqGeZ8oAItqPf51FID4TOfG2BcFwGd/fxphwJ3XsH3t+5JeJ2lvSTtJcofiI3v+8/r+zSU9ovj+jmIX/28i5uMrc2slzsXYCsCGkjab85dyGWMZCTYBLqPTzW9dKQAubSyHQYv6CBSA9mQKBaAl1n1RAIzDlv3s7ndRA+3j9c8lrOcQBaAuS/tfsHEWe6GzktBGGKICUJf77P2e1fLM1DMjLXHVrccuFQDnNaXDIBSAutLQ/H4UgObsaj3ZJwXABQvxez3bWebw/8G1aqvezW0qANMsz2nJJTMKwHJl+A+S9qwnMsF3d60ApHQYhAIQLB6VI0ABqIwq7Ma+KQAubUotf3oga+P7bmHVt/TprhQAc7tU0n2W5i78RxSA5QrApB7uF466cgxdKwDOaCqHQSgAlcUg+EYUgGCE1SLoowKwjqQjB7AU4KnalKFLBcCDz3mFCeStEhYQBWB1BcD18BdJ10xYD9NR56AAOD+vSdA/oABM13Ta7ygAafleHnsfFQBn3hvSvpagkbvDbOPPg+N2l9dCmi9dKwDm+No0Rfu/WFEAqsvqWxPWw3TUuSgAKRwGoQBM13Ta7ygAafleHntfFQAX4EqSjmppwI6pFNhuwK6X10C6LzkoAKdLWitREVEAqisAHrzWTVQP09HmogA4T7EdBqEATNd02u8oAGn5Xh57nxUAF8LLAT6aF3OAThmXjRDd6XL6ab/koACY5RaJiokCUE/ubbEydchJAXBZYzoMQgFILT3/ih8F4F8skn7ruwJgOH7DfFYkz4EpB38PyLsnrc01I3eHlbI8VeOua2hpzVIs/i9EAbj/4miDf/GyR1U2bd53++CSrR5BbgqAfX/EWir06ZZcw2MDZO4NGRYKBaClShmCAjBBdesGDnna6oBPKcyV3mSS0ZY+fx7QKcTkksouwP8ElO+OCesg5ltnzHpIvefESHNTAJwnOwyKMRtmZ1+5Bp+4aSorNoueW0ABaKlGhqQAGJmt0lmj9TG0pg0i9nNHtGgcZ1ps3pMBA1tvTBWe3rB89i6Z8nTCXRrmK7bcTcdnA0FeLksdzggo+5YJMxfyhjzh+PmE+QuNemtJ/2zIvm1bEVXKigJQhVKEe4amAEyQ3ELS1xs2iEmDD/38vaS9Jhnq4PPfOi6/+dmHQ6pw/Yauoj0lnDJ4s13IQBgqd/Oef3PKAk/F/b2GMmeFPZWr7kn2PtUwbxOeKWV5kseQz2MblO93knxiIreAAtBSjQxVAZjg26UDmwHe5X9Q4Vtgk0kmOvw8pkGnMOnwQj99AiCGx8Vl+OxMqW4+91gWYaTf9mmQr7rlqHq/p7/9hthGaGqk67stZM6zPmc1rBcrKNduIY8hSXiPh2e3qsqF73tcSIIJn0UBSAh3OuqhKwCTst6u6AS9ZnxuzQZSpzHZSdCzE+56n5SlzufVJHWxF8DGZ7wnI3XYXJL3V1StJ8t7W+HtNfJVNf9177tE0r3bKrCkuzUss/dNtBHsMKjJVPmb2shchDSeUYP/uyOklyoKFIBUZGfiHYsCMCn2BpIeLOlwSafWaCyLOt7Tyj0Hd21hCnNShrqfVgKOjlDWRQxmr58k6WZ1Mxlwv9/M7IhoNh+z/x/ach3ZbfRLJNlR0mxe2vjf07uWy7aDPVzWKd9vJdmGf1vBLsDr5M+y1Wb+Qjk8prT+uKiMVgpfUcim5TPXgALQUs2MTQGYxep15IcWRwlfLOlDkr5VuP39ZTlVaM+Dbiw+/uPp7O8UO/k/UlghfHXpNvhas5Fl/r8HAys+P5H0x7JcLpvLuKizmL5uHr5/3t/JhbfGjxdv4w9rabPZLGqvYz61qJefzZTFg6+XQdowvDSbp8n/3n3vo4E/kuTloWmmsb/bAdBXSxY2lNVFsNlhD+pVymaZauN44iwH73yvslHY+4hSbk6czVes/73c4T7NfZZnPW1/xIq5leAbxkokYTwoAAnhTkc9dgVgmgXfh0HA691e8vEsxJWHUaTelcLKsQefZUqAlWrXU1dh51I5nLdu/mtJHoTaODnRVflzThcFoKXaQQFoCTTJQGBkBDzF/IjiDf9zU1PSfuM/oTiX/7TSn0cOSPyG730S+5WzgVYcc54ez4FZ6jygAKQmXMaPAtASaJKBwMgJdLUkMXLsvSw+CkBL1YYC0BJokoEABCAAgUoEtRE67wAABNNJREFUUAAqYQq/CQUgnCExQAACEIBAPAIoAPFYLo0JBWApHn6EAAQgAIGWCaAAtAQcBaAl0CQDAQhAAAKVCKAAVMIUfhMKQDhDYoAABCAAgXgEUADisVwaEwrAUjz8CAEIQAACLRNAAWgJOApAS6BJBgIQgAAEKhFAAaiEKfymw1ax1rXMkteTw5MnBghAAAIQgMAaBDy2LBt7lv3mMY1QkYCdQiyDuey351RMg9sgAAEIQAACVQk8L2BcennVRLhP8iC+bJBf9tvBAIQABCAAAQhEJnBIwLhkl+yEigSeGAD6UxXT4DYIQAACEIBAVQKfDhiXHl81Ee6T7hMA+kwAQgACEIAABCISWEvS7wLGpXtGzMvgo7pBAGgvD+wweEIUEAIQgAAE2iJw08Ax6fptZXQI6djf9cUBwA8cAgTKAAEIQAACWRB4WcB4dJEkj2mEGgS+HQD8VEnr1kiLWyEAAQhAAALzCKwn6fSA8eib8yLl2nICrwoA7mWARy+Pnl8hAAEIQAACqxJ4XOBY5GPthJoE9gyE7g0bm9RMk9shAAEIQAACEwJXlvTbwLHorpPI+KxO4IqSzgsE/9bqyXEnBCAAAQhAYA0C7wgcg/4saYM1YuSfygRC4Xsp4GGVU+NGCEAAAhCAwGUEHhU4+Hv8eRswmxPYLUIF/F3SXZpngSchAAEIQGBkBDxt7937HsRD/u44Mm5Ri2vjCz8OrABX3l91mXGhqJkjMghAAAIQGByB+5VjRsjA72d/KMljGCGAgKfwQyvCz/+zWIs5SNLaAXnhUQhAAAIQGCYBD9YHSLo00pjzkGFiardUHrBPiVQhVgROkHTLdotAahCAAAQgkDGBW0v6VsRx5me8bMar7QdGrJjJbMAnJN1J0hXiZZOYIAABCECgJwTc9+8uyQ7kPEMcY6Z5Eof92RAiEvhs5AqaVJStBvq4oJcabiHpKpJs+YkAAQhAAALDIOA+3X27+/iHl7vzT0s0puCRNoHM2JnChYkqbKIM8BlXC4YnPJEBZGBMMvAXSddJMP4RZWned0zCRFnpPJEBZAAZ6I8MPJKROi2BdzELEHWtis6lP50LdUVdIQP5ysDb0w59xG4CG0qydyUaAgyQAWQAGUAGcpCB4yXZfD2hBQLezPETlACUIGQAGUAGkIGOZeAkSZu3MO6RxBSBbYvdnL/ouOJz0DzJA29AyAAygAx0IwO2UbPN1LjE1xYJbCXpRJQA3gCQAWQAGUAGWpaB70jassXxjqTmELC/5qNbrni07W60bbjDHRlABnKQgaMkbTxnPOJSBwRsw3l/SRejCPAWgAwgA8gAMpBIBi4pxrcDsSDbwShfIUm7Xjw5UcXnoHWSB95+kAFkABnoRgZ+KukOFcYhbumQwLrlbIAtMtFQYIAMIAPIADIQIgO2QOu3/vU7HNdIuiaBa0o6FPPBKEEogsgAMoAMNJCBCyQdUvgNuEbNsYfbMyLgXZrW3n7VQABCtEae5a0DGUAGkIH+ycAvi7HiRZKumtE4RlYCCXij4K6S3iDJazk0TBggA8gAMoAMWAZsWO71knaR5LGCMHACntZ5SFFGzw58UJLPdFrzO4fTBChHKIjIADIwKBnwCbGzyz7efb37fPf9Dy7cwV994GPdwuL9f76hqlNyG2fKAAAAAElFTkSuQmCC;" parent="1" vertex="1">
          <mxGeometry x="-150" y="72" width="106" height="106" as="geometry" />
        </mxCell>
        <mxCell id="UaRX52oiEMcUlokc9c1a-57" style="edgeStyle=orthogonalEdgeStyle;rounded=0;orthogonalLoop=1;jettySize=auto;html=1;" parent="1" source="UaRX52oiEMcUlokc9c1a-56" target="UaRX52oiEMcUlokc9c1a-43" edge="1">
          <mxGeometry relative="1" as="geometry" />
        </mxCell>
        <mxCell id="UaRX52oiEMcUlokc9c1a-58" style="edgeStyle=orthogonalEdgeStyle;rounded=0;orthogonalLoop=1;jettySize=auto;html=1;exitX=0.067;exitY=0.771;exitDx=0;exitDy=0;exitPerimeter=0;entryX=0.963;entryY=0.66;entryDx=0;entryDy=0;entryPerimeter=0;" parent="1" source="MkQLDR_bNPGldUpGhnma-2" target="UaRX52oiEMcUlokc9c1a-40" edge="1">
          <mxGeometry relative="1" as="geometry">
            <mxPoint x="282.1264000000001" y="246.31000000000017" as="sourcePoint" />
            <mxPoint x="203" y="328" as="targetPoint" />
            <Array as="points">
              <mxPoint x="332" y="155" />
              <mxPoint x="332" y="368" />
            </Array>
          </mxGeometry>
        </mxCell>
        <mxCell id="UaRX52oiEMcUlokc9c1a-59" value="&lt;font style=&quot;font-size: 8px;&quot;&gt;HTTP/ HTTPS - JSON&lt;/font&gt;" style="text;html=1;align=center;verticalAlign=middle;whiteSpace=wrap;rounded=0;" parent="1" vertex="1">
          <mxGeometry x="182" y="361" width="214" height="30" as="geometry" />
        </mxCell>
        <mxCell id="ExuR_AfsgaEFRH0pLKmp-28" style="edgeStyle=orthogonalEdgeStyle;rounded=0;orthogonalLoop=1;jettySize=auto;html=1;entryX=1;entryY=0.5;entryDx=0;entryDy=0;" edge="1" parent="1" source="MkQLDR_bNPGldUpGhnma-1" target="UaRX52oiEMcUlokc9c1a-22">
          <mxGeometry relative="1" as="geometry" />
        </mxCell>
        <mxCell id="MkQLDR_bNPGldUpGhnma-2" value="" style="points=[];aspect=fixed;html=1;align=center;shadow=0;dashed=0;fillColor=#FF6A00;strokeColor=none;shape=mxgraph.alibaba_cloud.alb_application_load_balancer_02;" parent="1" vertex="1">
          <mxGeometry x="418" y="109" width="60" height="60" as="geometry" />
        </mxCell>
        <mxCell id="MkQLDR_bNPGldUpGhnma-3" value="ELB- Load Balancer" style="text;html=1;align=center;verticalAlign=middle;whiteSpace=wrap;rounded=0;" parent="1" vertex="1">
          <mxGeometry x="378" y="169" width="140" height="30" as="geometry" />
        </mxCell>
        <mxCell id="MkQLDR_bNPGldUpGhnma-4" style="edgeStyle=orthogonalEdgeStyle;rounded=0;orthogonalLoop=1;jettySize=auto;html=1;entryX=0.5;entryY=1;entryDx=0;entryDy=0;entryPerimeter=0;" parent="1" source="MkQLDR_bNPGldUpGhnma-2" target="MkQLDR_bNPGldUpGhnma-1" edge="1">
          <mxGeometry relative="1" as="geometry" />
        </mxCell>
        <mxCell id="ExuR_AfsgaEFRH0pLKmp-23" value="Custer Kubernetes&amp;nbsp; - Controle de Pedidos" style="swimlane;horizontal=0;whiteSpace=wrap;html=1;" vertex="1" parent="1">
          <mxGeometry x="149" y="-228" width="579" height="681" as="geometry" />
        </mxCell>
        <mxCell id="UaRX52oiEMcUlokc9c1a-32" value="&lt;font&gt;HTTP/ HTTPS - JSON&lt;/font&gt;" style="text;html=1;align=center;verticalAlign=middle;whiteSpace=wrap;rounded=0;rotation=90;strokeWidth=1;fontSize=12;" parent="ExuR_AfsgaEFRH0pLKmp-23" vertex="1">
          <mxGeometry x="249" y="216" width="133" height="31" as="geometry" />
        </mxCell>
        <mxCell id="UaRX52oiEMcUlokc9c1a-3" value="MySQL - Database Instance" style="image;html=1;image=img/lib/clip_art/computers/Database_128x128.png" parent="ExuR_AfsgaEFRH0pLKmp-23" vertex="1">
          <mxGeometry x="454" y="240" width="72" height="61" as="geometry" />
        </mxCell>
        <mxCell id="UaRX52oiEMcUlokc9c1a-25" value="CriaÃ§Ã£o de QR Code Pagamento" style="text;html=1;align=center;verticalAlign=middle;whiteSpace=wrap;rounded=0;" parent="ExuR_AfsgaEFRH0pLKmp-23" vertex="1">
          <mxGeometry x="68" y="127" width="185" height="30" as="geometry" />
        </mxCell>
        <mxCell id="MkQLDR_bNPGldUpGhnma-1" value="" style="aspect=fixed;sketch=0;html=1;dashed=0;whitespace=wrap;verticalLabelPosition=bottom;verticalAlign=top;fillColor=#2875E2;strokeColor=#ffffff;points=[[0.005,0.63,0],[0.1,0.2,0],[0.9,0.2,0],[0.5,0,0],[0.995,0.63,0],[0.72,0.99,0],[0.5,1,0],[0.28,0.99,0]];shape=mxgraph.kubernetes.icon2;kubernetesLabel=1;prIcon=api" parent="ExuR_AfsgaEFRH0pLKmp-23" vertex="1">
          <mxGeometry x="263.06" y="93.5" width="71.88" height="69" as="geometry" />
        </mxCell>
        <mxCell id="UaRX52oiEMcUlokc9c1a-6" value="" style="endArrow=classic;startArrow=classic;html=1;rounded=0;exitX=0.995;exitY=0.63;exitDx=0;exitDy=0;exitPerimeter=0;" parent="ExuR_AfsgaEFRH0pLKmp-23" source="MkQLDR_bNPGldUpGhnma-1" target="UaRX52oiEMcUlokc9c1a-3" edge="1">
          <mxGeometry width="50" height="50" relative="1" as="geometry">
            <mxPoint x="491" y="451" as="sourcePoint" />
            <mxPoint x="608" y="287" as="targetPoint" />
          </mxGeometry>
        </mxCell>
        <mxCell id="UaRX52oiEMcUlokc9c1a-36" value="Callback Pagamento QR Code" style="text;html=1;align=center;verticalAlign=middle;whiteSpace=wrap;rounded=0;" parent="ExuR_AfsgaEFRH0pLKmp-23" vertex="1">
          <mxGeometry x="68" y="30" width="192" height="30" as="geometry" />
        </mxCell>
        <mxCell id="ExuR_AfsgaEFRH0pLKmp-47" value="&lt;font&gt;HTTP/ HTTPS - JSON&lt;/font&gt;" style="text;html=1;align=center;verticalAlign=middle;whiteSpace=wrap;rounded=0;rotation=0;strokeWidth=1;fontSize=12;" vertex="1" parent="ExuR_AfsgaEFRH0pLKmp-23">
          <mxGeometry x="393" y="96" width="133" height="31" as="geometry" />
        </mxCell>
        <mxCell id="ExuR_AfsgaEFRH0pLKmp-29" value="&amp;nbsp;ServiÃ§o Pagamento Externo" style="swimlane;horizontal=0;whiteSpace=wrap;html=1;" vertex="1" parent="1">
          <mxGeometry x="-169" y="-228" width="304" height="230" as="geometry" />
        </mxCell>
        <mxCell id="UaRX52oiEMcUlokc9c1a-22" value="" style="shape=image;verticalLabelPosition=bottom;labelBackgroundColor=default;verticalAlign=top;aspect=fixed;imageAspect=0;image=data:image/png,iVBORw0KGgoAAAANSUhEUgAAAP4AAABABAMAAADIeNdnAAAAJ1BMVEUAAAAKAIAMAIALAIAKAID///8AvP+FgMAFXsBHQKDCv98IL6ADjd85ymnpAAAABHRSTlMAgEC/+QGcAgAAByJJREFUWMO9mc1u00AQgGM3D+D8PIDj5gGa2A+A44E0hGOjqjmjCAmOqar0jKJIcDSqyrlRBeeoQgpHFCG1D8XOj3f9U1NTtYzAmcxu/M3OzNq721pROg3fB/D9RsOtPYf44V8a7VYASsYbQOk1nx6/B2E53Vfoz3e7mZIPd6tPAJHz1Px2OX8fYHs3S8mHFUDvf/HtAH7uZnlZQfi0IQggLMXP7pF3G3Cely/4cWHwkoSP9zng9Zp0bSTfW3q6eI0+Xv1GM2lKenV6rvBt3+85GfyhwRdz4NxTKhDyVbKqxEmaBnSl2hEtdKWTo/iIo/4Pjl6kEAELUJp0PUgYEPH8Qr4F0pZoA9FC4rfZqB8w3Rz+brXKGD6G+SIWESqAdiUgWFvaTFejhewJ9tPDWWYyvsXGw2W6CPsZPqTFpfv5AeEsuq+F7ADbkNprkQaaX8fcUH+WQFiC34wuz6/PYlilHAAnG/7Qa4NcDxQDmwPBgd/co7qgNtLUd9dSPGoPub+N/bliRvM06+NoPUFZUAjEpcys2SMe0F0AXkhN17Urct1TbdjOP6DmGnkGpr8SG04nczj8LKnfIp7kGODzDum3MFrHqQDUMXJCDVQWOZO2Hq7wbbR7nksoR9tCCzuxe3S3oWJdxzBezT582oDyJpHpHGC8VaaL9eQkTPPxS5dRzPc8r0PDFacg/axoAfLZhnx0VNzDzjzeM0AZzYcCZ+MihsuL76imAtDN8EMbWJg/IAgYegDA/Ihomi9hsxLg9Gxx8X0Kp6guLvAjIyeDMr6l+QObYwrMklphvgILn8pHieQqQ7oaIj4GGK5z/Ck8gs+zPuogn21t4h9ovjXKUGL0Zg7nxzoPxrWD8vj3PRJX+Cb/OOs8vDK/GP/6y0yQh1T3pxiDL4UElPAJymL4rvrSaDQ51lam/qSThR+58M+J/HUiXmQlKuHjQLJ8xXIZUCc+etFlG/MHhp/JMQ4/iXwhA3O3hK+H6whfsQ74AVOnJpz7bNtDtkqFGLn6DR/Op99gLV/yATg6uJ+PuJ6Lz1PmEyVyyEC1pqxAlcCdsH/o7tMktV5ma0wZv5piyBdACX9PvwqFb4uBm1oBVTqIONKfjPVclZ0tzlMBzzZOoxI+JgDlgPloNQbRtC007jnqJqeTcjmmVBgp5VsyfOEbA1FFszSUA8A/Py+lF0swLuHzvSM34aMhIIM44Lva5lFzi/pT67DEg8IcnF5CrVw6Xs5gey4rHimi6lZRg08Aw/IcXA01fQGwefod4Zg2ORelDsTi2zeA8d2v5+DP1FsfRmUhOBnR4GNFVysj58n5kGxyyhyYf8XFCe6Nnoe/S5b4p9PL88k0w77mOfgNcHn+PPxA+MqBGGCRrcUrfhnrjeEz1F+w1MveoUJdxsP09OO38eekCzzAt920WknaNzORt6f4+pvGlxfp1zFGYaf5qXMSSDbmHR980mxfn1fYAakVpPtqJvJLsdS/qxG8zgbg6EZvQnIbMFdv/RxtcwjPahX+oeZ/4Qm3VhWXeQMdLZMImUVl9lVidl7AT2ZRq/DHCf+9HvYV8/F6PFI+LAu7ULOprIvmGM28aSsdRyXZ/QALyfwRR2K+xsso1hGSAfFQew2Q/Va/0xat1wkAXlBzs0PND4oNN2aPORI++3GMATmhuS/tLww/lKVUm5KAVGOrK59EfVgAhyeykfjDUD/7T7A+Jf26oOrIQ2okm0D13dI2s/uLKp0HSXpNCV5fY9nx+uvqxngHNcN36KcC2Ge+2Cgmoj4sXXiT2uUvhjLvpl9pAfodlqYxNL8BFz8IYO8HoPiyqepKTFCtWICQPuiREoBJvKbV6GGq7UWKrz+Izgt9V2yg+W6VAqAKFLnbnNK8iycnqvqOxj92ZvjgFPk866M8f1CRz93GMyO3o/g18TEA82U6NGGtyJfVHce/OP5aBbFMkE0K1P+j4QJ2pjSwvHP5xx09LyM1H/2h/ItaRQLIHn+pFBzDGa64fqbOpHT4ZXvFfJl1zJfjNyp8ca+KdCkARt6PFqBwsNwZ26/M07xLVEsfpaAXNmq80zI7zUp8G3IOfFQDX21p8Cb64GT4EXvB/Lo+BOsif4/I+5yxalMQVrMyEbwZC1MiH32ysYE3lW2xAQ2o1yKXq0mgHSjFg5Pjg0ZFqMk7mdVAa5WEJ/GyCDa1B4NcxbTlBY+f1CzUgF0RYzWRu/y4H38LtFfL8S0AqTJpZjXkSd8WY1Wx6QfjZcng85lESKdtNpV9JlmtfjLpG0HUq4w3e+PVLke/ZXy/VuCXSMmkr+qAPgbmo2AAwVfgq8MuOdN7rAMi2x+r1e/VdrsBja/Cx4Tzk+mRDrShIIKvxMclP0/6x0rBgbIq7haTbOb/I+FctQU6lXaR3y8abTPpHy+dVobeLJmuXkkFSbgeL3SK2ZK/v3v/XkH+P+L/AM876xKyEUZwAAAAAElFTkSuQmCC;" parent="ExuR_AfsgaEFRH0pLKmp-29" vertex="1">
          <mxGeometry x="68" y="110" width="142.88" height="36" as="geometry" />
        </mxCell>
        <mxCell id="UaRX52oiEMcUlokc9c1a-26" value="" style="shape=image;verticalLabelPosition=bottom;labelBackgroundColor=default;verticalAlign=top;aspect=fixed;imageAspect=0;image=data:image/png,iVBORw0KGgoAAAANSUhEUgAAAP4AAABABAMAAADIeNdnAAAAJ1BMVEUAAAAKAIAMAIALAIAKAID///8AvP+FgMAFXsBHQKDCv98IL6ADjd85ymnpAAAABHRSTlMAgEC/+QGcAgAAByJJREFUWMO9mc1u00AQgGM3D+D8PIDj5gGa2A+A44E0hGOjqjmjCAmOqar0jKJIcDSqyrlRBeeoQgpHFCG1D8XOj3f9U1NTtYzAmcxu/M3OzNq721pROg3fB/D9RsOtPYf44V8a7VYASsYbQOk1nx6/B2E53Vfoz3e7mZIPd6tPAJHz1Px2OX8fYHs3S8mHFUDvf/HtAH7uZnlZQfi0IQggLMXP7pF3G3Cely/4cWHwkoSP9zng9Zp0bSTfW3q6eI0+Xv1GM2lKenV6rvBt3+85GfyhwRdz4NxTKhDyVbKqxEmaBnSl2hEtdKWTo/iIo/4Pjl6kEAELUJp0PUgYEPH8Qr4F0pZoA9FC4rfZqB8w3Rz+brXKGD6G+SIWESqAdiUgWFvaTFejhewJ9tPDWWYyvsXGw2W6CPsZPqTFpfv5AeEsuq+F7ADbkNprkQaaX8fcUH+WQFiC34wuz6/PYlilHAAnG/7Qa4NcDxQDmwPBgd/co7qgNtLUd9dSPGoPub+N/bliRvM06+NoPUFZUAjEpcys2SMe0F0AXkhN17Urct1TbdjOP6DmGnkGpr8SG04nczj8LKnfIp7kGODzDum3MFrHqQDUMXJCDVQWOZO2Hq7wbbR7nksoR9tCCzuxe3S3oWJdxzBezT582oDyJpHpHGC8VaaL9eQkTPPxS5dRzPc8r0PDFacg/axoAfLZhnx0VNzDzjzeM0AZzYcCZ+MihsuL76imAtDN8EMbWJg/IAgYegDA/Ihomi9hsxLg9Gxx8X0Kp6guLvAjIyeDMr6l+QObYwrMklphvgILn8pHieQqQ7oaIj4GGK5z/Ck8gs+zPuogn21t4h9ovjXKUGL0Zg7nxzoPxrWD8vj3PRJX+Cb/OOs8vDK/GP/6y0yQh1T3pxiDL4UElPAJymL4rvrSaDQ51lam/qSThR+58M+J/HUiXmQlKuHjQLJ8xXIZUCc+etFlG/MHhp/JMQ4/iXwhA3O3hK+H6whfsQ74AVOnJpz7bNtDtkqFGLn6DR/Op99gLV/yATg6uJ+PuJ6Lz1PmEyVyyEC1pqxAlcCdsH/o7tMktV5ma0wZv5piyBdACX9PvwqFb4uBm1oBVTqIONKfjPVclZ0tzlMBzzZOoxI+JgDlgPloNQbRtC007jnqJqeTcjmmVBgp5VsyfOEbA1FFszSUA8A/Py+lF0swLuHzvSM34aMhIIM44Lva5lFzi/pT67DEg8IcnF5CrVw6Xs5gey4rHimi6lZRg08Aw/IcXA01fQGwefod4Zg2ORelDsTi2zeA8d2v5+DP1FsfRmUhOBnR4GNFVysj58n5kGxyyhyYf8XFCe6Nnoe/S5b4p9PL88k0w77mOfgNcHn+PPxA+MqBGGCRrcUrfhnrjeEz1F+w1MveoUJdxsP09OO38eekCzzAt920WknaNzORt6f4+pvGlxfp1zFGYaf5qXMSSDbmHR980mxfn1fYAakVpPtqJvJLsdS/qxG8zgbg6EZvQnIbMFdv/RxtcwjPahX+oeZ/4Qm3VhWXeQMdLZMImUVl9lVidl7AT2ZRq/DHCf+9HvYV8/F6PFI+LAu7ULOprIvmGM28aSsdRyXZ/QALyfwRR2K+xsso1hGSAfFQew2Q/Va/0xat1wkAXlBzs0PND4oNN2aPORI++3GMATmhuS/tLww/lKVUm5KAVGOrK59EfVgAhyeykfjDUD/7T7A+Jf26oOrIQ2okm0D13dI2s/uLKp0HSXpNCV5fY9nx+uvqxngHNcN36KcC2Ge+2Cgmoj4sXXiT2uUvhjLvpl9pAfodlqYxNL8BFz8IYO8HoPiyqepKTFCtWICQPuiREoBJvKbV6GGq7UWKrz+Izgt9V2yg+W6VAqAKFLnbnNK8iycnqvqOxj92ZvjgFPk866M8f1CRz93GMyO3o/g18TEA82U6NGGtyJfVHce/OP5aBbFMkE0K1P+j4QJ2pjSwvHP5xx09LyM1H/2h/ItaRQLIHn+pFBzDGa64fqbOpHT4ZXvFfJl1zJfjNyp8ca+KdCkARt6PFqBwsNwZ26/M07xLVEsfpaAXNmq80zI7zUp8G3IOfFQDX21p8Cb64GT4EXvB/Lo+BOsif4/I+5yxalMQVrMyEbwZC1MiH32ysYE3lW2xAQ2o1yKXq0mgHSjFg5Pjg0ZFqMk7mdVAa5WEJ/GyCDa1B4NcxbTlBY+f1CzUgF0RYzWRu/y4H38LtFfL8S0AqTJpZjXkSd8WY1Wx6QfjZcng85lESKdtNpV9JlmtfjLpG0HUq4w3e+PVLke/ZXy/VuCXSMmkr+qAPgbmo2AAwVfgq8MuOdN7rAMi2x+r1e/VdrsBja/Cx4Tzk+mRDrShIIKvxMclP0/6x0rBgbIq7haTbOb/I+FctQU6lXaR3y8abTPpHy+dVobeLJmuXkkFSbgeL3SK2ZK/v3v/XkH+P+L/AM876xKyEUZwAAAAAElFTkSuQmCC;" parent="ExuR_AfsgaEFRH0pLKmp-29" vertex="1">
          <mxGeometry x="74" y="45" width="142.88" height="36" as="geometry" />
        </mxCell>
        <mxCell id="UaRX52oiEMcUlokc9c1a-35" value="&lt;font style=&quot;font-size: 8px;&quot;&gt;HTTP/ HTTPS - JSON&lt;/font&gt;" style="text;html=1;align=center;verticalAlign=middle;whiteSpace=wrap;rounded=0;rotation=0;" parent="ExuR_AfsgaEFRH0pLKmp-29" vertex="1">
          <mxGeometry x="190" y="75" width="126" height="31" as="geometry" />
        </mxCell>
        <mxCell id="ExuR_AfsgaEFRH0pLKmp-32" style="edgeStyle=orthogonalEdgeStyle;rounded=0;orthogonalLoop=1;jettySize=auto;html=1;entryX=0.5;entryY=0;entryDx=0;entryDy=0;entryPerimeter=0;" edge="1" parent="1" source="UaRX52oiEMcUlokc9c1a-26" target="MkQLDR_bNPGldUpGhnma-1">
          <mxGeometry relative="1" as="geometry" />
        </mxCell>
        <mxCell id="UaRX52oiEMcUlokc9c1a-37" value="Web Application - Cozinha" style="html=1;verticalLabelPosition=bottom;align=center;labelBackgroundColor=#ffffff;verticalAlign=top;strokeWidth=2;strokeColor=#0080F0;shadow=0;dashed=0;shape=mxgraph.ios7.icons.monitor;" parent="1" vertex="1">
          <mxGeometry x="826" y="108" width="93" height="55" as="geometry" />
        </mxCell>
        <mxCell id="UaRX52oiEMcUlokc9c1a-51" value="Cozinha" style="shape=image;verticalLabelPosition=bottom;labelBackgroundColor=default;verticalAlign=top;aspect=fixed;imageAspect=0;image=data:image/png,iVBORw0KGgoAAAANSUhEUgAAAgAAAAIACAYAAAD0eNT6AAAAAXNSR0IArs4c6QAAIABJREFUeAHtnQv8fdWY/z+hC4qiaCQlISIk1z8zhMi1MZghMkO51IyM+0QhmdIYhNxyy63RMDQYl1yGidyVck0GUZTo4tZ1/uejc3I6v/M95+z9rL33Wnu/1+v1fZ39PWfvtZ7n/azLs/de61kSCQIQ6BuBa0jaXtKDJD1T0hslfUzSFyWdIumHkn4l6eLxn4/9nX/zOT73DZKeMc7DeTlPEgQgAAEIQAACGRHYVNJDJL1S0jckXSTp/xL/Oc+vS3rFuKzrZqQ/okAAAhCAAAQGQ+D2kl42ukP/iqRLEw/2qzgPLvPLkg6TdLvBUEdRCEAAAhCAQAcEbiRp/9Ed+Nc6GPCXOQXfGvF4kaRtO+BCkRCAAAQgAIFeEthd0sc7utNfNvDP/u4nA5b1Ab20BEpBAAIQgAAEGiaw3vhd+5cyvNufHfTX+v+k0eTCvSRdvWFWZA8BCEAAAhAonsDVJO0p6dSCB/5Zh8CrCx4tyU4NCQIQgAAEIACBGQI7Sfp8jwb+WUfgq5J2mdGZfyEAAQhAAAKDJXCtkeaeQNfE8r3ZQbjr/y+RdISkTQZrbRSHAAQgAAEIjNbtP0zSGT2+61/L4fjJKK7AQ6kBEIAABCAAgaERcGQ9r6G/fICD/7RT4CiFGwzN+OgLAQhAAALDJLC1pC8MfOCfdgIczOimw6wKaA0BCEAAAk0R8GB7H0n7SnqVpHdI+g9Jx48j2TmAzenjP4fRdSz8j4wGpKMlHSrp8ZLuPAqzmyr0rePzn8vgv06o4l+O7PHARJXAtrLNbDvb0La0TW1b23hib9ve0QxdF1wnXDdcR1xXXGdcd0gQgAAEIFAAgc0lPVLS68bR8i5MPND+TNKnJB0+XqN/vYpMHMVv6I/8p+/8Z4/N5mkVmdoG3gfBNrFtzkxsc9chR148crQ08xGSXMdIEIAABCDQMQEHmNltvAnOyR0MrpeN7ypfIMmx+Rclz/KfHfD4fz6TFy4COWZ9oCQHSbIN2uTo8hzgyJsi3Y8gR0ssxc8QgAAEEhO4raR/keQ78jY7/2VlfWfkhBw08z7bwW+87G3ZtU38fvb4rvjVozvjJ40fa99R0s1Gd7RbjB6Pbzj+87G/829+9O1zfY3vqJ1HE7Ity9PMpgMHbTdm+92O5FlL3p+Onz7cJnEdJzsIQAACEBgT8Fr5/cbvcNfqjHP53neJ/zVe5ub3z23J9ZvR3fEHxwN4yvfXNxnneZwkl9GWPmbnpYIf7eBOv46O3i7ZdfSatFoIQAACEIgTuI6k50n6RYsDT53Ov6trLpb0Xkn3H9/Nx4kvzsFPDVzWsZJcdld651zuzyU9h2BHiysSv0IAAhBYi4And714NCnsVwwycwfZs8Z8vEVwV8llHyzJsuQ8IHclm1d7eO7HZl0ZiHIhAAEIlETAm+HsLcnLwrrquHMu95zxY+acgudYFj/6tmw5s+tKNnN5wsychpLaJLJCAAIQaJzA7Xq+GU5kAPLjdk+M27RxK9QvYOPRpb7j/T2OwFxHyAGP7lQfL1dCAAIQ6B+Ba48DsFzKwDF34HCgmpIi5XnG/iex5VxbejOkV45WDnhSKwkCEIDAoAnsIOmbDBZrDha+o/ZrkdKSl/A58NEQdjis82THS0a9nJUEAQhAYJAE9mp5WVmdjrqra/5X0t17UCt2kfR9HLy5Dt7vRrEs9umBjVEBAhCAwMoE/Mi/zfXxXQ3idct1AB4vf+xLcmz+T+MEzHUCXEfexiuBvlR19IAABBYR8PI+dsJbe7b8B0bbBG+0CGChv3mlgOMV1HWK+n6dNyVyREYSBCAAgV4S2EZSbqFccxpY3irpGr20/BVKee+G1+MErOkEeV6Aoy6SIAABCPSKgGOlO256FwOuy/Vjde8S6N3m/lLSfcdLsm492gbWs9Z3HMfC33X0zvoxoyh3B0g6StLnWpqn4JnhQ0lt7I3gkMW23ZvGtrRNbVvvd2Bb2+a2vZfluS64TnjSouuI60pXdfWMsXxDqQvoCQEI9JyA92ZvM6Lfj8fvVT3J8MYJ2PqufCdJT5H0n5J+m9iReV+hM/3rovWqhvcnZmibeK+CJ49t5acN0eT9FFyH3j4K5POTxPIucoQdQZB4AVHrcT0EINA5AS/zayNCnCMHvna0ccxdWtDYm728KtGA4PkQQ9w8xjqfmIihn560wfCuo/f0R0ryAL1oAE/xm9vMLVuoyxQBAQhAoBECvvv23XiKDnGtPLwn/CMktRka13eXfl+7lkyrfn/awCd+edKbGazKa63zvi0pxR3/qo3Adc11zhP31pIpxfc/Gr2G2mpVoTgPAhCAQC4EvPTr5AY7yBMkPaQjZR+XQK8/jLbuvX1H8udUrOeGpAgd/OiOlLrHaF7BhxLUh7UchlMleeUMCQIQgEARBHyH5AF6rU4t8r2DyuzWIQW/v06xkuEZHeqQW9HPTFBX/BTA0Qe7SrtL+kECPea1DU9mXL8rxSgXAhCAQBUCqd6PT3eGjpp2UEt73i/S9YEJOnnH9u9ysFqkXxe/2alKsXfA/bsQfqpMx29oajOkl0+VwyEEIACBLAnsMRqoL08wSE4P/idlNCHqo0Hd/Oh/+ywt161Qt5BkNtN2r3r84W5VuLJ0T3xN/frLbaqrV15XKsYBBCAAgbUIbNvAcr83ZBQZ7+YJnJtD1oLH9zo06ABcNl7fnwNKr0pwDIKqTsyi8736gEBBOVgXGSAAgasQ8DtKz8hf1IFV+c13gw7eklN6cVA/B3nxPgik+QQ2Hm2O87MgY78myik9NsGTjel242WjfY4WmZPtkAUCEFiRwHODHfd0J3dhxxP91lI5uqvd36+VMd9fScDR+KbrQtVjLyvMLd1L0nlBvaY5MIE0NwsjDwQGTMCPJR16dbqTqnt81iii2x0yZOkgMHV18nVnthSsJkN0lUTyo/OfB1l7C+Lc0s4J9JrUvwuID5CbeZEHAsMl8B/BDnvSsZ2d0WS/WWtG308/azZD/l+TQPRp0kvWzLnbHxzZL1VUzGO7VYXSIQABCEheejUZwCOfjuV+t4yBeiVCXf0uGoUp3jxj3XIT7frB9+ZfzU2hKXn8dMKvuOrWpenrvCSVBAEIQKATAp74lyL4iQfI+3WiwWqF3ig4+/+9qxXDWVME/j0wSHrJ3JZTeeV2aKf54oB+Eyfge0wIzM20yAOB4RB4fIJOzJ3ZUzNH5pnck063zmfXAWoyxztXPEfWq8N6ck1uK0hmlfSE0Imskc89ZzPmfwhAAAJNE3D0Nscpj3RevraEd5neAa6unp79TRjX6rXRzH4d4H5E9SJbv+I9Af0m9dEhkN0WSRCAAARaI/CoBJ2Xl2x506Dc09cDuh6Tu3IZyxd5DeCYFLmnTST5Mf5kMK/7+fDcFUU+CECgPwQcx/4bwY7LUdvuUgASL0u7JKCrdw4k1SPwdwHunleyYb1iW73q7pLcFuoO/r7ua+wt0arNKAwCgybgCXuRDsvXOsRvCWmnoK6Ebq1v5e2C7HesX3SrVx4V1NPt6T6tSkxhEIDAYAm8K9hh/bKgZXGRVx0OaEOKEXBsiLrOZimPxq+XID7A0THMXA0BCEBgOQG/t/Sa/bqdsq974vJisjnjwICuuexOlw3MGoL8V4D/ATXK6+qSJwf0dJtyJE7vpUCCAAQg0BiBvw12VD8sbO3ymwP6/nNjVhhOxocF+Hs3vlKSVz38KKCrnYC9SlEWOSEAgTIJfDrYSflOp6Tku/i6Tzv2KUnRTGV9SoD/cZnqtJZY+wV0dR39xFoZ8z0EIACBKAFHxIvMWPZWryXMzJ7m9JVAp7zbdEYc1yLwgAD/EpYCTkPZaLxpVF2H020z5wiI07pyDAEIFEbAS9rqdk6+7gWF6WtxI49lb1WgvrmJ7Jn8deucXzeVlg4K6GtOuUdALM0eyAsBCIwJvC3QOTk++00LJBmZhb5VgfrmJvLWgTrnraVLS9sE953wkkISBCAAgeQEInfDnjtQYjo/MABtVqLCmcnsnQHrPgFwKOES02cDOp9eosLIDAEI5E3gZoFOyR24o7qVmP4Q0NvvdEkxAmZY1wGw7UpMewd0NqsSn7SVaCdkhsBgCEQ6JT/+36JQUnU3pPG6bFIaAnXjTvwqTfGt53LD4GuAJ7QuMQVCAAK9JvDawF3JyQWTqbvnwSkF65yb6N+qWfccI7/U5PpT98nHq0tVGrkhAIE8CXwy0CG9Mk+VVpLKwXzqdMSHr5Q7J61C4OU1bXDIKplneo4H8Tr1ztcQDyBToyIWBEolcEagQ3poqUpL8iz031fU3e+ePZublIaA32lXnYvxO0klr8LYo2Kdm3YWfpwGO7lAAAIQuCLGuN/jT3cyVY49iJac/rGi7s8qWdlMZX9uRRvsn6keq4plB7JKG5s+1231WqsWxHkQgAAEFhHYOdAZeTLceosyL+S3VV8FvKwQfUoU069Vpge6ecce/Ep+9D+xy9WCm27dfpIRnxCAAAQiBB6xQsc7rzP2d1+PFJzZtQ+StNbkrFMlPTgzefsojl8nrTUp8JuSdu+R0icF2l0pWyH3yFyoAoF+EvD2vWsN8Mu+P6aHSHYaxzXwY2nHN7hdD3XMXSUzN/uJDW6bu8A15HtvoN2VGnejBiYugQAEmiTw9EBH9IomBSNvCPSYwBGBdve0HnNBNQhAoEUCBwY6ooNblJOiINAnAp7LsOwJ21q/P79PINAFAhDojoAntq3V0Sz7/jndiU3JECiaQNWVD9Nt8bCiNUd4CEAgGwKvCzgAT81GCwSBQFkE9g20uyPLUhVpIQCBXAl4i9Hpu4sqx95DgAQBCFQnENl/g22Bq/PmCghAYA4B301UGfSnz/VdDAkCEKhO4O8D7c57d5AgAAEIhAk4lv/0oF7l2CsISBCAQHUCzwi0u3+tXhxXQAACEFiXQGQSoCcykSAAgeoE/ingABxavTiugAAEILAugRfTEa0LhW8g0DCBiOP9woZlI3sIQGAgBCKBgJiMNJBKgprJCbw14Hj/Q3JpyBACEBgkgccGOqIPDpIYSkMgTuBDgXb36Hjx5AABCEBAekCgI/oiACEAgVoEvhxod7vVKpGLIAABCMwQuGOgIzp7Ji/+hQAEViPwy0C7u8NqRXAWBCAAgcUEbhDoiLxkcJPF2fMrBCAwQ+C6wTZ3vZn8+BcCEIBAbQIXBjoktsutjZ0LB0pg50B7O3+gzFAbAhBoiMCpgQ7JkwhJEIDA6gQeH2hvJ61eDGdCAAIQWE7guECHdPjy7DkDAhCYIvDyQHv7j6l8OIQABCAQJvDPgQ7pY+HSyQACwyLwiUB7e8mwUKEtBCDQNAGvK66yB8D0uedJunrTApI/BHpCwG3l14H29qiecEANCEAgEwI7BjokOwNMBMzEkIiRPQEv4Zt2oKse75C9hggIAQgURWB9Sb8NdEze2pQEAQgsJ/C0QDtzG73G8iI4AwIQgEA1Ap8JdEzvrVYUZ0NgsATeF2hnnxosNRSHAAQaJXBwoGM6q1HJyBwC/SFwZqCdvag/GNAEAhDIiYDji1d9Hzl9/vY5KYMsEMiQwC2Dbey+GeqESBCAQA8IOKTvJYEO6kk9YIAKEGiSwFMC7cttc+MmhSNvCEBg2AS+FuigCFAy7LqD9ssJRAJufWV59pwBAQhAoD6BVwUcgAskbVC/aK6EQK8JuG24jUy/Nqty/Ipe00E5CECgcwJ/Feig3Jndu3MNEAACeRLYNdi2Hp6nWkgFAQj0hcCmwXkAL+sLCPSAQGIC3jOjyh3/9Ll+/++2SYIABCDQKIETAh3VyY1KRuYQKJfAKYF29bly1UZyCECgJALPD3RUl0u6cUnKIisEWiDgNuG2MX1XX+XYbZIEAQhAoHECuwQ6KndqT2hcQgqAQFkEnhhsUzuXpS7SQgACpRK4mqSfBzoswgKXannkborAsYH2dLYkt0kSBCAAgVYIvCPQYf2K7YFbsRGFlEHA2/+eG2hPR5ehJlJCAAJ9IfCYQIfl1wB37QsI9IBAkIDbQpX3/bPnui2SIAABCLRGYHNJlwU6roNak5SCIJA3AW/gMzuor/q/2+AWeauHdBCAQB8JfDXQcX2+j0DQCQI1CJwYaEeE/60BnEsgAIE4gZcGOq5LJV0vLgI5QKBoAptJcltY9Y5/9rxDitYe4SEAgWIJ/EWg43JH5rDCJAgMmcCjgm3onkOGh+4QgEB3BNaXdH6gA3tTd6JTMgSyIPCWQPvxxkFugyQIQAACnRCIbF96RicSUygE8iHwk4AD8IF81EASCEBgiAT2DXRgfg2wwxChoTMEJN062HaeCkUIQAACXRLYPtiJ7dOl8JQNgQ4JeACfndRX5f+bdSg7RUMAAhD4I4HTAx2ZIwqSIDBEAu8JtJvThggMnSEAgfwIvD7Qkf1vfuogEQRaIRB5///aViSkEAhAAAJLCOwRcAD8yHPrJfnzMwT6RuCmwTbz0L4BQR8IQKBMAg5mEgkLTCzzMu2O1PUJ7BVwANzWCKJVnz1XQgACiQl8K9ChvS6xLGQHgdwJOAZGlQl/0+eekrtyyAcBCAyLQKRD854CJAgMicDJAQcAh3lINQVdIVAAgccHOrSLJG1YgI6ICIEUBDaSdHGgveyZQgjygAAEIJCKgNckTz+mrHq8SypByAcCmRO4S7CtbJu5fogHAQgMkMCZgY7tKQPkhcrDJLBfoJ38bJjI0BoCEMidwAcDHdtRuSuHfBBIRCCyAdD7E8lANhCAAASSEnhRwAH4elJJyAwC+RKITAB8Qb5qIRkEIDBkAg8LOACeFMVEwCHXnmHo7joemQD4kGFgQksIQKA0AjcJOACeNLhjaQojLwQqErhtsI1sVbE8TocABCDQGoFzAh3cX7UmJQVBoBsCjwq0j192IzKlQgACEFiNwKcCHRzvN1djzFnlEjgo0D4+Ua7aSA4BCAyBwMsDHdy7hwAIHQdN4JhA+3jZoMmhPAQgkD2ByCYnrATI3rwIGCTwjYAD8Lhg2VwOAQhAoFECdwt0cL+VdLVGpSNzCHRHwHXbdbxqlMzJ+Y4gSIIABCCQLYHNAx2cO7ptstUMwSAQI7BdsG2wBXCMP1dDAAItEPhVoKO7XwvyUQQEuiBw/0C7OLcLgSkTAhCAQFUCXw50dE+sWhjnQ6AQAk8OtIsTC9ERMSEAgYET8Gz+yXvLqp8OJ0yCQB8JHBJoF+/oIxB0ggAE+kcgsifAW/uHA40g8EcCRwccgANhCAEIQKAEAo8NdHSfLEFBZIRADQKfCbSLv6lRHpdAAAIQaJ3AXQMd3WmtS0uBEGiHwA8C7eJO7YhIKRCAAARiBCKbAv1B0nqx4rkaAtkRcAyAiwIOwI2y0wiBIAABCMwhsL6kywKd3ZZz8uQrCJRMwAN41Qmxk/Pdlq5RsvLIDgEIDIvA2YEO787DQoW2AyDgKH6TAb3q51kD4IOKEIBAjwicHOjwHpoph40l/T9Jls+f/r/UdEtJDkzjv1uUqoSkTca2eFjmNrF8VQf+yfnskVFwBUV0CAyRwEcDHd7fZQZsR0nvl+T5CZNO2Z/+/98l3SozedcSZwNJ/yDphzN6WJfTJf29JL++KSHdWtL71rCJbeXfc0oOcDVdd6ocfyQnRZAFAhCAwDICXs9fpZObPvfZyzJv8fe9V5i8ZUfg8S3KVKeoG0j6/Ao2OUHSFnUKaPEaO4izzth0/fGxJ9zl5Eg+ZwX2szpM/n9zi2wpCgIQgECYwEsDHd5h4dLTZPDXki5fUQ9P1Hp4mmKT53JNSV9ZUQ8POl+S5GtyTI+oYBPb7pGZKHF4Bf6TgX/yeXAmOiAGBCAAgZUI+HHypAOr+pnDHc9mkqpuauTzc9yxzQNIVRu8cCUrt3uSbeJNcaro8mtJ129XzLmlRZ6IPWVujnwJAQhAIFMCf1Wxo57u1D+QgU4eAKdlWvX4eRnIPi2C7+QvqKHL+ZI2ms4og+N/qqGH7fb8DGQ/rqbsln+PDORHBAhAAAIrE9g10OH9z8qlNHfiV2vKn9uubQ+sqYcHngc0h7dWzma7qiM2fZ53p+w6eW7FtExVju/VtfCUDwEIQKAKgTsGOrxvVymooXPr3DW7U784szvnpwfs8LSG2NbJdsMx2yoD5+Tc8+oUmPia7wXscPvEspAdBCAAgUYJbB/o8H7RqGTLM3co4mWzzCeDy7zPnOK2132VYb1ymgdgpvNYr/Ld75ebvPEzzgnIv13j0lEABCAAgYQEvOxslc553jmXZLAfwLy18vNknfddTpO2Ilsz+9pckpnOY73Kd7Zll8n7AERCY2/epfCUDQEIQKAqAT+yXaVzXuuca1UtMPH5kUlbRyWWJZJdXxwArwxZq64s+/6DEYAJrnW0wmUyLvq9lOBMCVCRBQQg0BcCkcfoXd/1HBTotHMK3doXB+AbAXsc2HGDijwN+23HslM8BCAAgVoEIhsCeUvhLlNk9nxOEwH74ABEJgD6znr3LiuSpG0DzgsbAXVsPIqHAATqETgt0PHtUK/IZFfdMCC7B51dkkkSy6gPDkBkAqBt0fX20t6XYNEj/kW/fTdmfq6GAAQg0A2Bumvp3SHu3I3IVyn1p4GO+8lXyam7f/rgAEQmAJ7RHforS7YzuGiQX/SbwzKTIAABCBRH4NOBju8eGWgbmQj4pgzktwh9cAA8qXLRILnot64nANoGfx6Q//hM6hFiQAACEKhEIDKA7lappGZOjkwE/FozIlXOtQ8OgFkuGuQX/WYbdp3uH5A/h7DYXfOjfAhAoEAC3pd9Uee86Lcc4p8/KCC/t6P15LWuU+kOgBma5aK6sug3T+bsOv1lQP5juxae8iEAAQjUIfBvgY7vMXUKTHxNHyYClu4AlD4B0FVyz0A7eHfiOk12EIAABFoh8M5Ax7d3KxIuL6T0iYClOwClTwB0Ddsn0A6OXl5FOQMCEIBAfgQie6C/WJJjoHf9F5nI6Lu3ruU/IjD4+Nqu5TfDRY/4F/1m23Utv8t3XV4k56Lf3pJfs0YiCEAAAssJeCb8os6N3+BDHVhcB96wvJlxBgQgAIH8CByJA4ADRB0I1YHX5NeskQgCEIDAcgKRx8/cGS6+M4TPMPi8cnkz4wwIQAAC+RF4OXd/obs/BvlhDPKL7Hx4fs0aiSAAAQgsJ3AoDgAOAHUgVAf+eXkz4wwIQAAC+RE4mM4/1PkvujPkt2E8HfAKAhIEIACB4ghEQukywA1jgMPOi+18YHGtHoEhAAEISDqAJwA8AaAOhOqA2xAJAhCAQHEEnk/nH+r8uTtefHc8BD44AMV1ewgMAQiYAA4AA9gQBukmdcQBoC+FAASKJIADgAPQ5OA4hLxxAIrs+hAaAhDAAcABGMIg3aSOOAD0oxCAQJEEcABwAJocHIeQNw5AkV0fQkMAAjgAOABDGKSb1BEHgH4UAhAokoA7r7qd468lnc4fDHpQB1yX67YDHIAiuz6EhgAEIk8ADgEfBHpCwHUZB6AnxkQNCEBgNQI4AKtx4qx+E8AB6Ld90Q4CEJhDAAdgDhS+GhwBHIDBmRyFIQABHADqAAQkHABqAQQgMDgCOACDMzkKzyGAAzAHCl9BAAL9JoAD0G/7ot1qBHAAVuPEWRCAQI8I4AD0yJioUpsADkBtdFwIAQiUSgAHoFTLIXdKAjgAKWmSFwQgUAQBHIAizISQDRPAAWgYMNlDAAL5EcAByM8mSNQ+ARyA9plTIgQg0DEBHICODUDxWRDAAcjCDAgBAQi0SQAHoE3alJUrARyAXC2DXBCAQGMEcAAaQ0vGBRHAASjIWIgKAQikIYADkIYjuZRNAAegbPshPQQgUIMADkANaFzSOwI4AL0zKQpBAALLCOAALCPE70MggAMwBCujIwQgcBUCOABXwcE/AyWAAzBQw6M2BIZMIOIAnCnpqxn8fV7Sv0vaT9LmHRhzV0mvkfTxDFjkYI8SZXBd/r+af25DJAhAAAJFEdhe0kdrdnp1O8umr7tA0j+2ZIWbS7Lz0bRO5J83Y7ch1wUSBCAAgawJrCfpgZL+S9JlPR683tiwFXaWdG6P+eF0VHM63JbcpnZvuN6RPQQgAIFaBG4h6VMDGrT8SqCJtKmkMwbEEWegmjPwSZ4INNHsyBMCEKhDYP3RYPVCSb8f2KDlO3QP1qnTSwfGEQegmgNgXm5rB0m6RurKR34QgAAEViWwiaSPDHjAevyqoFY8z69QuPuvPiAO1Yk4XtJ1V6xbnAYBCEAgGYFtJZ064MHfg85bktG8IiNPnBzqYIbe9Wx/iqRtEtdDsoMABCCwJoGtJf2UweqPE7PWhFTjh3vAFAeoRh1wW7xxjfrGJRCAAAQqEfBj/5NqdFJ9vMM7phK55SfvBFccgJp1wE/jeB2wvI1xBgQgUJPA1Qf+zn/WiTmwJse1LttY0h9qDgCzsvF/vUfqJXP7sCS3URIEIACB5AQcBKfkDjKl7JePIgTumJywdByMqWOBOvD0BuokWUIAAgMn4Pf+FwY6ppSDbw55HdtQfdil50GUcrBdn2VwtErmAzTUOMkWAkMl8EEG/yvvTH8k6QYNVoTIHgp9HtzQbbUncO9vsG6SNQQgMDACd2bwv3Lw/0ZLy66eK+lSuF/JncF/tcF/wslPkkgQgAAEwgTewUCkr0vaV5IjH7aVbiPpPZL8WHfSsfMJi1XqwNvbqqSUAwEI9JeAH3Wnmpnu8LkOnvM4SfeSdMclf88MDHyfWZL3srInv3ui32Ydm9dOh4O9TGTis10WrkurDLrzznEdXmYvtwW3ibcm3ATK4YK36LjeUjwEIFA4gWcFOr9Jh3ixpBdL8jK3KmmPQNkfqFIQ50JgAQHXpUldrvrpOlwlOc7GSyRdEihzIuMzqhTMuRCAAARmCXw22BGdJ+nes5mu+D8OwIqgOK1RAm06ABNF7iPJbWcymNf59JMLEgQgAIFaBK4ZvBPxXcz9a5V8xUWbhaQkAAAgAElEQVQ4AAF4XJqMQBcOgIXfPTgR9CJJGyWjQEYQgMCgCNw9eAdyRJAWDkAQIJcnIdCVA2DhXxdsg3dJQoBMIACBwRF4YqDz8d1HdK08DsDgqlyWCnfpAGwpyXNo6rwC8DV/lyVRhIIABLIn4MlIdTuejyfQDgcgAUSyCBPo0gGw8McH2qEn35IgAAEIVCYQefx4UOXS1r0AB2BdJnzTPoGuHYAXBRyAI9vHRYkQgEAfCDiYSN0nAPskAIADkAAiWYQJdO0AuC3VbYdvC2tPBhCAwCAJvDPQ8Tw2ATEcgAQQySJMoGsHwG2prgPgNkyCAAQgUJkADkBlZFzQQwI4AD00KipBAAKLCeAALObDr8MggAMwDDujJQQgMEUAB2AKBoeDJYADMFjTozgEhksAB2C4tkfzPxHAAfgTC44gAIGBEMABGIihUXMhARyAhXj4EQIQ6CMBHIA+WhWdqhLAAahKjPMhAIHiCeAAFG9CFEhAAAcgAUSygAAEyiKAA1CWvZC2GQI4AM1wJVcIQCBjAjgAGRsH0VojgAPQGmoKggAEciGAA5CLJZCjSwI4AF3Sp2wIQKATAjgAnWCn0MwI4ABkZhDEgQAEmieAA9A8Y0rInwAOQP42QkIIQCAxARyAxEDJrkgCOABFmg2hIQCBCAEcgAg9ru0LARyAvlgSPSAAgZUJ4ACsjIoTe0wAB6DHxkU1CEBgPoG3BvYhf8r8LCt9u0egfHfaJAikINC1A/DUQDt4SwoA5AEBCAyPwBGBjufgBLhwABJAJIswga4dgEMC7fBVYe3JAAIQGCSBFwc6ns8lIIYDkAAiWYQJdO0AnBBohy8Ma08GEIDAIAk8NtDxXCpp2yA1HIAgQC5PQqBLB2A7SZcF2uFjkhAgEwhAYHAE7hToeP5PkicRRhIOQIQe16Yi0KUD8J5gG7xjKgjkAwEIDIvABpJ+E+yAnhBAhgMQgMelyQh05QA8Ltj2LpS0fjIKZAQBCAyOwMeDndAfJNV9DIkDMLjqlqXCXTgAfv3mtuMnaXX//itLmggFAQgUQ2C/QAc06bgul/Q2STeuqDUOQEVgnN4IgTYdgK0lHZ2gzbntpViK2whQMoUABMogcH1JFyXqkC6W9InRnc3zJPnx5iOX/B0eKNedNgkCKQhEHADX4WX13G3hnyQdL8ltZOI4Rz799GCzFMqTBwQgMGwC707UKUU6tKrX4gAMu86m1D7iAFStt6nOj07ATcmPvCAAgYIJ3Dq4FClVp1YlHxyAgitcZqKX5gB42eBtMmOIOBCAQMEE/q2wpwA4AAVXtsxEL80B4O4/swqEOBAoncCWks4ryAnAASi9xuUjf0kOwPmSbpQPOiSBAAT6QuDJOAB9MSV6VCBQkgOwdwW9OBUCEIBAJQLvKsQJ4AlAJbNy8gICpTgAfk1HggAEINAYgY0lfaUAJwAHoLEqMLiMS3AAvijp2oOzDApDAAKtE9hC0nczdwJwAFqvFr0tMHcH4NuSNu8tfRSDAASyI3A9SSdm7ATgAGRXZYoVKGcH4MuSblAsWQSHAASKJbCJpH/P1Ak4rliqCJ4bAdelKjEo2jr3GB7751ZVkAcCwyOwb4JdA1N3mh8dnhnQuCECH8vMAbhAklfkkCAAAQhkQcCbmPhpgDf+ST2Y18nv01lQQYg+EPhMJnXabcsz/bfqA1R0gAAE+kfgDqMwpO+TdGnHneYJ/UOLRh0R+ELHdfkSSe+VdLuO9KdYCEAAApUIOHLgMyR9LuFuglWeBJxcSVpOhsDaBE7pwAHwbn7/PYq++XRJN1xbNH6BAAQgkDeBa0n6C0lPkvSvkt4s6dgV/j4S6Hh/ljcSpCuIwFmBeug6vEpdP2o0oe9fJO0j6Z6S3GZIEIAABAZLwPuZV7nrnz7Xd1AkCEQJrBd8gnXdqABcDwEIQGCoBH4fcAK8TJEEgQgBD+DTjmWVY9ddEgQgAAEI1CTwo0AHfKuaZXIZBCYEbhOofz+cZMInBCAAAQhUJ+AY51XuuqbPfWD14rgCAlch8JBA/fv8VXLiHwhAAAIQqETgg4EO2AGKSBCIEHhaoP69P1Iw10IAAhAYOoHXBTrgVwwdHvqHCRwRqH+vCZdOBhCAAAQGTGD/QAd8/IC5oXoaAo4oOf1aqcrxfmlEIBcIQAACwySwW6ADPnuYyNA6IYFzAvVv14RykBUEIACBwRG4caAD9t2aIxKSIFCHwI2Cdc/XkyAAAQhAoCYBB2I5P9ARP7hmuVwGgT0C9c51lgQBCEAAAkECXw50xIcGy+by4RJwaN4q7/ynzz1xuNjQHAIQgEA6Am8MdMTejIgEgToEIrsAvr5OgVwDAQhAAAJXJfD4gAPgcKwbXTU7/oPAUgLejOeiQL177NISOAECEIAABJYSuHmgI/ZjWa8kIEGgCoEHBevcTasUxrkQgAAEIDCfgCcC/iLQIb9yfrZ8C4E1CTiIz/Q7/SrHP18zV36AAAQgAIHKBCIhgb9buTQuGDqB0wIOwPuGDg/9IQABCKQk8OxAh+y7tx1SCkNevSYQ2QHQde0fe00H5SAAAQi0TCDaKb+wZXkprlwCLwk6m7csV3UkhwAEIJAnAe+vXuVd7PS538lTJaTKkMD3AvXs9Az1QSQIQAACxRN4baBjtjOwU/EEUKBpAncM1rFXNS0g+UMAAhAYIoHdg53zq4cIDZ0rEXAAn+knR1WP71epNE6GAAQgAIGVCDigz28CHfSvJF1zpZI4aYgEHPznvED9ukDShkMEh84QgAAE2iDwnkAH7bu5vdoQkjKKJPC3wbr1ziK1RmgIQAAChRCIvgY4WZIDC5EgMEvgG0EHgMf/s0T5HwIQgEBCAleXdGawo941oTxk1Q8CDhdd9X3/9Pk/k+S6SYIABCAAgQYJvDzYWX+kQdnIukwCnwjWqcPKVBupIQABCJRFIBoU6HJJdypLZaRtkMAuklwnpu/oqx67TpIgAAEIQKAFAl8KdtgfbkFGiiiDwMeDdenzZaiJlBCAAAT6QeDRwU7bd3h36wcKtAgQuEeCevSIQPlcCgEIQAACFQmsL+mMYOf92Yplcnq/CHg1iO/eqz7unz7/R5Ku0S8saAMBCEAgfwLPDXbe7sgfmb+aSNgQgT0T1J9nNiQb2UIAAhCAwAICmwUjA9oB+IkkR4AjDYuAI0L+OOgAOPLfpsPChrYQgAAE8iHwymAnbifg4HzUQZKWCPxzgnrj5agkCEAAAhDoiMAWknwnNv1eturxRZJYxtWRATso9raSLg7WmQsl3aAD2SkSAhCAAASmCBwa7MztMHhZIZHcpqD29PBqkr6QoL7w1KinFQS1IACBsghcL7iL2+SJwbPKUhtpaxB4XoLB37tK8u6/BnwugQAEINAEgYMSdOx/kHSHJoQjzywI7CzJr3smDl/dzwOy0AYhIAABCEDgjwQ2ThAXwAPCtyV5hjipXwSuLel7CQZ/rxxwXiQIQAACEMiIwF8n6ODtBLw1I50QJQ2BdyWqG0T9S2MPcoEABCCQnMCnEnX0T0kuGRl2ReBpierE8V0pQLkQgAAEILCcwK0TLPHyUwC/K2avgOW8cz/Dsf6jS/4m9WGH3JVFPghAAAJDJ3B4oju+n0vadugwC9b/ZpLOTlQXDiuYA6JDAAIQGAyBjSSdmqjj96RAhxwmlUXAS0O/m7AOMDG0LPsjLQQgMGACd5Z0SaIB4DOS7FSQyiDgwfp/Etnerw92KUNtpIQABCAAgQkBR2vz+9sUfx+XtOEkYz6zJeBtoj+cyOauN44vQYIABCAAgcIIeJ/2LyccDN7P3u9Z1wCHcv63hPb+miQ7FCQIQAACECiQwK0keeOWFE8BnMcxDApZ1oINJB2b0M7nS7pFlpoiFAQgAAEIrExgj9Gj3MsTDg5+xMyksJXxN36iX818IKF9XVcI+NO42SgAAhCAQDsEXpFwgPCTgE9Kuk47olPKAgLelMeTNFM94XE+L1tQHj9BAAIQgEBhBDwf4L8TDxSnjMIG36QwDn0SdytJ30hs008zz6NPVQRdIAABCFxBYMtEGwZN323+jB0EO6leXpp3ZuLB3xv93KATbSgUAhCAAAQaJ7CjJO/nPj2IR49/L+kJjUtOARMCj5X028Q2PE/STpMC+IQABCAAgX4SuHeifeFnHYfXSvJsdFIzBDzZ7w2JB37b0A7cnzcjMrlCAAIQgEBuBLx18GUNDCZfHS0VvGVuyvZAHm/E8/UG7OUZ/3v2gA8qQAACEIBABQLPamBA8R3lbyTtU0EOTl1MwFszp37kP3l6s//iovkVAhCAAAT6SuDZDTkBHmA+KmmbvoJrQS/vxPixBu1zQAs6UAQEIAABCGRM4PkNDjKOQui7TIepJa1GwEs2nzF+kjK5U0/9+dzVROEsCEAAAhDoO4EmnwR48PK2wg/oO8QE+nmC5skNOmS2hR0+EgQgAAEIQOBKAr4rTBkyeN5d6/skbX9liRxMCDjufspwvvPY27ae90GCAAQgAAEIrENgL0neA37eAJLqO68+8MY1N1un9OF94TkSbxzdlV/SMPOLJDl+AAkCEIAABCCwJoHdRu+gL2h4QLIz4UHpTQNdNuhdGt/cgrNlzg7yc581rc0PEIAABCAAgSkCt28g1OxaTxD8ROC40aY2fzFVfh8P1xvtx3AvSf/ZwquWCeufEuGvj1UJnSAAAQg0S2BrSV9q4UnAZLDy53ckPVPSFs2q1mrujq/vSZbfa5nlFyR5wyASBCAAAQhAoDKBpsLPTg/68479euBDkh5X6LbD15Xk+RQfaekx/yxDwjJXrupcAAEIQAAC8wj8raTftXwHOxnUHKvezsC+krabJ1wm33lS437jQf8PHbFyxEA7TSQIQAACEIBAMgJ3kPTdjga2iTPgTz9KP0rS4zteUnhzSXaM3jKKp39aBlwca+F2yaxNRhCAAAQgAIEpAteS9OoWJ7FND/xrHf9S0qckvUrSE0fH9xzNsL+xpKtNyV330Hl4LoTz3FvSEeOyXOZa8rT9vSdRvlLSNesqyXUQgAAEIACBVQl4WdmPMxoE5w26nkfwA0knSvqwpKPHA/hhkvznwEf+m/zvwd3n+Fxfc3pD2ybPk7Xudz+S5OiBJAhAAAIQgEBrBDzRzY+/m44eWHdw7PN1Zu7XINdpzdoUBAEIQAACEJghsEsHywX7PLgv0+0bku4+YwP+hQAEIAABCHRCwO/KveztnMxfCywbXHP+/dfsrNhJ3aZQCEAAAhBYgYCD3vwcJyD5BEEzNVsSBCAAAQhAIFsC38cBSO4AmCkJAhCAAAQgkDUBHID0SwRxALKu8ggHAQhAAAImgAOAA0BLgAAEIACBARLAAcABGGC1R2UIQAACEMABwAGgFUAAAhCAwAAJ4ADgAAyw2qMyBCAAAQhEHID7SnqSpGMlXdCD1QTeQfH4ccjhBwf0MVMSBCAAAQhAIGsCEQfAO+xN0kajmPz3H28+lMNue6sGCbKs3lfAsluHSbJuq+Yxex4OwIQinxCAAAQgkC2BVA7ArIKbSvITghdJ+lAmAYccne+E8YZCD5G05azQU//jAEzB4BACEIAABPpHoCkHYB6pm0j6K0nPkXTkeCe/UyVdGLjbnr37dl7O07sEugyX9XBJLrtKwgGoQotzIQABCECgOAJtOgCL4Fxf0s7jpwa+O3+kpH1G+xXsN34nf7Ak/3lLYH+39/gcn+snDXeQ5DxSJRyAVCTJBwIQgAAEsiSQiwOQGxwcgNwsgjwQgAAEIJCUAA7AfJw4APO58C0EIAABCPSEAA7AfEPiAMznwrcQgAAEINATAjgA8w2JAzCfC99CAAIQgEBPCOAAzDckDsB8LnwLAQhAAAI9IYADMN+QOADzufAtBCAAAQj0hAAOwHxD4gDM58K3EIAABCDQEwI4APMNiQMwnwvfQgACEIBATwjgAMw3JA7AfC58CwEIQAACPSGAAzDfkDgA87nwLQQgAAEI9IQADsB8Q+IAzOfCtxCAAAQg0BMCOADzDYkDMJ8L30IAAhCAQE8I4ADMNyQOwHwufAsBCEAAAj0hgAMw35A4APO58C0EIAABCPSEAA7AfEPiAMznwrcQgAAEINATAjgA8w2JAzCfC99CAAIQgEBPCOAAzDckDsB8LnwLAQhAAAIFE7iapDtKOkDSBZL+r+afB8m+pogDYKZma8ZmTYIABCAAAQh0RmBzSY+U9EZJP6054M86CjgAy52ncyQdK+lJkrbqzPoUDAEIQAACgyFw9fEd6HMlnSDpskSD/rQTgAOw3AGY5uXjb0k6bGST+0raYDC1EUUhAAEIQKBRAltK2mt8x/nrBgb82cEMB6C6AzDN8DeSjpe0v6RtGq0ZZA4BCEAAAr0icM3xnaTvKL8q6fIWBv3pAQwHIOYATLP08enjVzR+VbNJr2oqykAAAhCAQJjAduP3yX6vHJnANzv41PkfByCtAzBtg9+Nnw74FY4nE64XrjlkAAEIQAACRRG49vgu/whJ/9vyHf70gDTv+NZFkawm7G0yY32WpHeMJ3JuWk0VzoYABCAAgVII7CjJd35+P3xRZgPRtCNwl1KA1pDzbhlzv3T8ysevfu7BUsMa1uUSCEAAApkQuIGkPSW9U9IvMh54pgd/H3sme1/TbgXZwXXGdcd1yHWJBAEIQAACmRJoY4ne7GDdxP9/lynfFGLtXZADMGtblhqmqAHkAQEIQCARgbaX6M0OCk3870fQfU3/UrADMG1rlhr2tYaiFwQgkC0BL9G7v6RXSPp2TwaT6YHFx8dlSz8u2Id6ajPXRddJ103XURIEIAABCCQgkNMSvdnBuon/f9nTCWiO339uTx2A6XrAUsMEjZ4sIACBYRLIeYnedEff5PHtemh6r7tvklmuebPUsIeVGZUgAIE0BKZ30fuspEsGOlBMD2DPS4M2q1xegF3/WLddx9nVMKuqiTAQgECbBEpdojc9SK917NDBJwV3Bzy1TWO0VNZ3Ag6Ad1o007bDMq9l41Tfs9SwpcpHMRCAQHcEriHpnpIOGQdbaWIXvVSdcp18/N7+GEl/O4o7/2djzIcGBjzLsEt35kpe8p2DLF4ylshszdiszbyOrXK9xm3Ce0+4jbituM2QIAABCBRJYHqJ3q961llPR41z4J7151jofkGdHYSmL8kDdmTgdWS+2TR5dTSJ7nhxsIyIfE1cy1LDWYvzPwQgkC2Bvi/R82Pot4yWHz5K0vVWsIJ5XBgYlDwX4mYrlJP7KbeQZIep7iB5/hoO1qzetoltYxvZVnXLy/U6lhrOWpz/IQCBTgnsIOnpkj4qycufcu0868j1h1FM+E9Kerak29akHL3z9UY1pacog/fUBGCbPWtsQ9uyTh3I9Rq3Nbc5tz23QRIEIACBxglcR9JfSnrD6F3sj3rWqbqzP03Sa0bvYh8sycsRo+nhQUae9PbnUSE6vH7XoP62yQMSyG9bPmhs2+8nkCk3x8Bt0W3SbdNtlAQBCEAgCYE7jJct9XGJnh/R/6ekfRt63L5Bgo2IvCJgoySWbDcTvwKJzPz3IPszSd7jIXXyqxXb3FEXI69pcnMELI9fHU2WGrrtkiAAAQisTGA9SXcd3QE7bvvpPbtbmizRe5kk3516gG46uazoQHFk00I2kP8bE+jtlRRNJ9eBe49C+NpOfVxq6DZ8+LhNu22TIAABCKxDYKfR5LZXSzojQccdHfBSXu/lYv8mybvsTZboraN8g19sM3qCkmKG+l83KGPqrL2FbtSGfm9/o9SCrZBfn5caum0fIek2K3DgFAhAoOcE/Hj1IZKO71GQlVWW6LVtVk/miw6Ivy9kPsBfSLKsUX39BKHr1Oelho45sNeKKyy6tgPlQwACCQl4ydSBPVou5XfFVZboJUS5Ula3Ci6Fmwymv5Z0+5VK7OYkv3M+L8Hg7/fYN+9GhYWl9nGpoZdMOkzzKktbF8LhRwhAIG8Cng3twCkeSCaDSomfHiBOGOviTWZKeLd5VCLmtl2OKwN8559i8Hd9fG3ezehK6SY7VXqb4xRPPbpsi54MeZik616pHQcQgEAvCHhG9jMlnZNoEOqio/ISPQ8MqZbotW1Yv89ONePc68Ad9CaX9OiEA6CjRm6ei2IV5OjLUsOzJf1joStPKpiLUyEwDAKePFZiZDSHQm1yiV4X1nfHmtJ5skO0YReKjMv08sTXJ9bJwW36kEpfaugJg4/ogyHQAQJDJODZ5x9O3DmnHLzm5XXyeDlWW0v02q4XnnTpyVfzdK/73SnjzWPa1sWP/L+VWJcvNLTuv202s+WVvNTQTvhNZhXifwhAIE8CHmR8p5nqcXPdgWmV66aX6HWx5KsLC966gbDJjm/glQZ+J9108p3tuxpYNeInPts3LXwm+Ze21NB9yf49dc4yqRKIAYE4gZuOQqd+MfFd2SoD+arneIneiSP5XjgOTNJElLc4xeZzcBS6VZlVOc+TI+0INBEBbudRtETvUOgyqsi06rlPah57liW4Ddxl5FAdJMlPQCIbJ63Kuu55brvbZkkRoSAwcAKOA57j7H4v0XtrhV30hmJG30XX7YhXue6boycNzxlvZFRnlYSvcXAorxrxa4ZVyqx7jpdwkq4gkPtSQ0/SfBjGggAE8iDg94uO7uXHwHU74JTXTe+i5wGE9CcCHlQ3G8Us2FrSjqNALD9syWa/GDkC7x8FfXnpKLzz4yTdS5KXT/pxvv987O/8m8/xub4mZb1YK6/PdzyR8U/WyfMox10N3de8oqVQ2nlaBakgkAGBrUa7nH2lpY56rQ7c35e+RK8JU3qb1qeOn3740em5GdhpkQ27+M1x6m/YBPye5pnbUkO/buwivHZPzYtaEFidgO8gf9LRoOIJWw5+sl9Du+itTiGvMx1j3Ruv9G0/hSacA9dd3ifH6m8OSw29FbEntpIgAIGWCPhxbdvv+88ar/m+L4/+1rHy/Ue7C36uI2esicG56TzPzDTU7zqGLegLvwp023ydJPNt2obT+XteQI7RKQsyH6JCYDUCfyPJ79mnG2BTx3YyPL/gHpK8MQrpqgR2yXzVRVP1IpKvXxcNZbnfVWtLe/+5rbrNuu22daPgPimn6JTt0aYkCLRE4IktTfZzQB4vy/I7R9K6BMzlyMyXbEUG6aau9TvjLdbFyTcNEnBddVt2m27KrpN8Lxtvu92gOmQNgWESeOxoBz83sElja+Lzv8ezwYdJeDWt/Z7/2w3boQnbdp3nu0fzI661GmLOaoiAXx1+tuG66zgG3huCBAEIJCLgmNxNBWDxwPDlURCS3RLJ2uds9pD024Y70K4H6tTlm5efXJHyIeA5K02uHnJf5bgkJAhAIEjgoZIubmjQcZAev7erEygmqFZxl+/NI//KT588yDBDPM+q7jbvjcKamjB40ejG4oF5qo5UECiDgMOvNnHHOYkd76hjpOUEHCAnl0BLqe/Qm8jPy0QdQXCooZ6X16h8zrjueLJgE68Xfy/pTvmoiiQQKIeAN8fxHXrqDvp7ku5eDobOJXXY0yZfv6S2b5f5mZPDPjtAFaksAl414BUaqeuPY2JsWRYKpIVAtwS8z3oTm/o4xOum3apWVOm3kHRBA51i6k626/x893isJPMilUtgE0nHNFDfvQX2NcvFguQQaJeAN0dJ2an7UZy38yStTsBO2EmJ7ZDSpjnk5f0CDpPkXShJ/SGwVwOvHr1LJQkCEFhC4B8SDzqO4OfNXkjVCHizkxwG2dxk8BOR944njzr6HKmfBO6s9BtCOXQ4CQIQWIOAZ0z/LuHA813uztYgvfjr2/He/0rnxxHevGOfHaLd2blvccXp2a/ea+D7CfsjT2j2JlkkCEBghoDvpr6esLGdIOn6M2Xw72oEHBCpqTtvB0rx5E7vhJfLn+udB/mPjyfxvWA0IWxPSb4L5C5/tTrT17M2l+TdLFO1By8NXb+vsNALAnUJHJqwkXljGsL41rOENzVJ1dk5H8diP1rSw8dbp7KnQj27cFV3BDYeO4ip2sVLulOFkiGQHwEvwfGdYYoG5tUD18lPxWIk8l1wCjv4VY4nyLHqohjTI+gCAo4XkCp6oJeL3nVBWfwEgcEQuMbo7vCbiQYdP8rdbDDk0iu6XaKAP461cMv04pEjBDol4MBhqTYVcl9FoKhOzUnhORD4+0SD/08IuBE25wsT2MKvX3DCwqYgg0wJOEDZTxO0Ez9le3KmOiIWBFoh4Ak25yZoTJ5d67DBpBiB7wRt4UhqhFeO2YCr8yfg8L4pViudQ3vJ39hI2ByB1wcHHHvRjlHvTT1IMQI3DtrCm5+w8U3MBlxdDoHHJHpd9ppyVEZSCKQj4H3lU0z8e3k6kQadkzf8iUz+e9Wg6aH8EAmkCJblCYG3GiI8dB42gfcEBxwPVp6Qs+GwMSbT/oiAPbz7nV/nkCAwJAIOl31KoN1MHG7CBA+p1qCrHGErusOcI7TtBMtkBD4W6Mjel0wKMoJAWQR2HG397L1GJoN5nU8/Cb15WWojLQTqE/CWqXUayvQ1z6hfPFfOIfDDgE38+oAEgaESeE6g7Uz6tDcNFR56D4vATSR5wtik4tf59GM3xw8gpSMQ2faXNf/p7EBO5RFwXxSND3CxpG3KUx2JIVCNgCeL1Rn0J9d41r/D1ZLSEVhPkve0nzCu+knkxXS2IKcyCewaaD+T9saE5jJtj9QrEvCEvV8GG8oxK5bFaasT8L4Jk06o6qfXQ5MgAAHp2EA7crs7m82nqEZ9JvA3wQbiiX9b9xlQR7ptErCLXx2QIACBKx7hR19vPgKQEOgrgeMDA409ZAcOIqUngAOQnik5DpPAUcE+7qPDxIbWfSewbfA9syfJ3LTvkDrSDwegI/AU2zsC3lArssTZc3GYDNi7aoFCBwY947eDsDECOTkADkn8MEl7Sro7O6Y1ZnMybo7AO4N93fObE42cIdANgehe2g4dTDI9s+cAAAxGSURBVGqGQA4OwPaSPjInvvpZkvZpRm1yhUAjBG4XdAC+1IhUZAqBjgh4C00v36s6w3xy/okdyT2UYrt2AG6/wq6Qrx2KMdCzFwS+HOjv/Bpgy15QQAkISHpSoDHYCdgbio0S6NIBcDz1VaMQEnGw0WpA5gkJPDnY5z0hoSxkBYFOCRwXaAzeaIZAM82ar0sHwI/3J096ln3+oFkM5A6BZATcZ7nvWlan1/r9/ckkISMIdEjAwX8iDeFdHco+lKK7dAA+WLGTJOzwUGpl+XpGdjy9kKBA5VcANJDuVrGDn/WIHwXExgl06QBUnRx638ZpUAAE0hB4TLDvu1MaMcgFAt0R2D/QCLz2f9PuRB9MyV06AJ+uWD/uPBiroGjpBDYLxgTYr3QAyA8BP8Kfvatf9f9Pga8VAl06AIdUqB9+LOpJgyQIlELgsxXq92y/eHQpSiInBNYi8L1AA/A+26TmCXTpADhCpPd4mO385v3vnSRJECiJwAEr1u159f07JSmKrBCYJXC94Pp/tv2dJdrM/106ANZolddE35Z03WbUJ1cINEbgPgEHwLFTeAXamGnIuGkC9wxU/kslbdy0gOT/RwJdOwAWYt8Fq0X8KuiG2AoCBRLwckAH9pl3h7/Kd/+vQJ0RGQJ/JLBXoOJ/E4atEcjBAbCyjn72LEnvlfRhSa+RxKz/1qoBBTVEwE+vVhns553jPTFIECiSwEGBis/mP+2ZPBcHoD2NKQkC7RF4R6AffEF7YlISBNISeGug4rMjVlpbLMoNB2ARHX6DQIxA5EboqFjRXA2B7ghUXeM9/QiMR1/t2Q0HoD3WlDQ8ApFXoccPDxca94XA6YEnAEx+aa8W4AC0x5qShkcgMhn6tOHhQuO+EDg34ABs1RcIBeiBA1CAkRCxWAJbB/rBc4rVGsEHT2DVAC/Tj/4nxxsMnl57AHAA2mNNScMjcM2AA/C74eFC4z4QuHqg0l/SBwAF6YADUJCxELU4AutJclyTyc1NlU8HA7pacRoj8OAJOABGlYo+fe75g6fXLgAcgHZ5U9rwCHgfi+k+rsoxAdGGV1+K19hBXapU8ulzzype+7IUwAEoy15IWx6Bnwf6Q6JglmfvwUvsTV6mB/Uqx/87eHrtAsABaJc3pQ2PgPu0Kn3g9LnuS0kQKIrATQMV/odFaVq+sDgA5dsQDfIm4D5telCvcuy+lASBogjgAJRjLhyAcmyFpGUSwAEo025IXZMADkBNcB1chgPQAXSKHBQBHIBBmRtlcQDKqQM4AOXYCknLJIADUKbdkLomARyAmuA6uCw3B8CBU67fAQeKhEBTBHAAmiJLvlkSwAHI0ixzhcrBAXDkx/0lnTI1WeoCSe+SdMu5UvMlBMohgANQjq2QNAEBHIAEEFvKomsHYDNJn58a+GdnSDsc6iNbYkExEGiCAA5AE1TJM1sCOADZmmYdwbp2AD62YPCfOAMXSbrTOpLzBQTKIIADUIadkDIRARyARCBbyKZLB2D3FQb/iRPwmRZYUAQEmiCAA9AEVfLMlgAOQLamWUewLh2At1dwALwxyp+tIz1fQCB/AjgA+dsICRMSwAFICLPhrLp0AE6s4AD4ScC9GmZB9hBoggAOQBNUyTNbAjgA2ZpmHcG6dAAWTf6bPPqf/rznOtLzBQTyJ4ADkL+NkDAhgW0q3tlNd/KnJ5SDrJYT6NIBeGOFeuI91Tdfrg5nQCA7Au7Tpvu4KsfuS0kQKIrAtQMV3o+FSe0R6NIB8B39qp3hh9pDQkkQSErgSxXq+Wx7cF9KgkBxBOo+9jqqOE3LFrhLB8Dk3r1C5+igQDuUjRnpB0zgzSvU8dmB3///YMDMUL1wAofXrPS7Fa53aeJ37QBcS9IHF9SVcyXtWhpU5IXAFIEHLKjf8wb+yXeHTeXBIQSKInADSb5zm1TmVT7/pygN+yFs1w6AKa43jvZ3vKTzJF0s6fuS/kXSDfuBGS0GTMD1u+qEV7eDLQbMDNV7QOAvJV22ohNwtqRte6BzaSrk4ACUxgx5IVCVgFdGuY9b5UbIfeZDqxbA+RDIkYCdgGVPAr7Lpi+dmQ4HoDP0FDwwAp7H4r5ukRNwvqSHDYwL6vacwJaS/lXSj2cq/9ckPU3Shj3XP2f1cABytg6y9Y2A+zr3eV+V5OiWE2fgR+NXXn51SoJAbwlsOn7U733fSd0TwAHo3gZIMEwCG0nyOv/rDFN9tIYABLomgAPQtQUoHwIQgAAEBkFgx9HjvwdLeoik245nwHepOA5Al/SHWbZnxe80bgNuC24TJAhAAAK9JLCBpP3nzIHw+7+fSnq2JD8O7CLhAHRBfZhl+rXfcyT9bOrd9+QduOcH+d242woJAhCAQC8IeFLPKmuAvyLpRh1ojAPQAfQBFrnV6I7fk34nA/5anyew/n2AtQOVIdBDAr7jqRIH/CRJG7fMAQegZeADLM517JsrDP4Tp+CLHT4RG6B5UBkCEGiCwIsqdHqTzq/t8J84AE1YnjynCTii46R+r/r5gukMOIYABCBQEgGv93U4z1U7vMl5v235KQAOQEm1qjxZXb9+V6Md/Jr5AOUZG4khAIErCNyvRqc3cQLajASGA0CNbZKAI4FO6nXVz/s0KRh5QwACEGiKwL6Bjs+rAtpKOABtkR5mOZ71X3Xgn5z/1GEiQ2sIQKB0Av8U6Phe2qLyOAAtwh5gUa7LkwG96qfbEAkCEIBAcQQOCHR8OADFmRuB1yAQcQDchkgQgAAEiiOAA1CcyRC4AQI4AA1AJUsIQCBvAjgAedsH6dohgAPQDmdKgQAEMiKAA5CRMRClMwI4AJ2hp2AIQKArAjgAXZGn3JwI4ADkZA1kgQAEWiGAA9AKZgrJnAAOQOYGQjwIQCA9ARyA9EzJsTwCOADl2QyJIQCBIAEcgCBALu8FARyAXpgRJSAAgSoEcACq0OLcvhLAAeirZdELAhUI7CrpDZL+Z7w16KckHSzplhXyKOlUHICSrIWsTRHAAViX7A6SXiLJfaC3SXaf+HpJ9173VL6BQNkEtpb03wui4l0q6bWSvHtenxIOQJ+siS51CeAA/Imc+7jXSXKft1ZY5E9LuvGfLuEIAuUS2F7SWQsq+3Qj+EzPnAAcgHLrLZKnI4ADcAXLjZbcCE33hWdK2i6dCcgJAu0TWF/SqSsO/pPKf2T7YjZWIg5AY2jJuCACOABXGMuP+Cf93CqffjXgPpQEgSIJeCvPVSr69Dl+NOb3Y31IOAB9sCI6RAngAEi3XvLYf7oPnD5+chQ+10OgKwJfquEAuPIf0pXAicvFAUgMlOyKJIADIB1asy/8QpEWR+jBE9hA0mU1K73nAvQh4QD0wYroECWAAyB9tmZf6CeivAaI1kCub52AZ7FOP8qqcvy91qVtpkAcgGa4kmtZBHAAJPdpVfrA6XO3KsvcSAsB6aaBCv/DngDEAeiJIVEjRAAHQHKfNj2oVzl2X0qCQFEEcAAkHICiqizCNkQABwAHoKGqRba5EsABwAHItW4iV7sEcABwANqtcZTWOQEcAByAzishAmRBAAcAByCLiogQ7RHAAcABaK+2UVLOBHAAcAByrp/I1gABHAAcgAaqFVkWSAAHAAegwGqLyBECOAA4AJH6w7X9IYADgAPQn9qMJisRwAHAAViponBS7wngAOAA9L6So+BVCeAA4ABctUbw31AJ4ADgAAy17g9W74gDUCVIBufWDzACO9hRB/KvA+5LSRAoigAOQP4dC50/NqIO5F8HcACKGvoQ1gRwAPLvWOj8sRF1IP86gAPAmFocARyA/DsWOn9sRB3Ivw7gABQ3/CEwDkD+HQudPzaiDuRfB3AAGE+LI4ADkH/HQuePjagD+dcBHIDihj8ExgHIv2Oh88dG1IH86wAOAONpcQRuEtj/mk4p/04JG2Ej6kA7dcB9KQkCRRHYUNLlOAGik2ynk4QznPtYB9yHui8lQaA4AqfgAOAAUAeoA9SB2nXgpOJ6fQSGwJjAATT82g2/j3cz6MRdOnWgWh14LqMJBEolsLGkn+IE4ARQB6gD1IHKdeAMSdcutfNHbgiYwF0k/ZbGX7nxc6dU7U4JXvDqUx1wn3knhhAI9IHAHSX9ACcAJ4A6QB2gDiytA6dJukMfOn50gMCEwAaSniTpeElnsUJgaSfQp7sZdOHunDqwdh3wTH/3iZ+QtI8k95WkFgj8f55MOV7RWxFEAAAAAElFTkSuQmCC;" parent="1" vertex="1">
          <mxGeometry x="1096.1499999999999" y="99" width="66" height="66" as="geometry" />
        </mxCell>
        <mxCell id="UaRX52oiEMcUlokc9c1a-56" value="Balconista" style="shape=image;verticalLabelPosition=bottom;labelBackgroundColor=default;verticalAlign=top;aspect=fixed;imageAspect=0;image=data:image/png,iVBORw0KGgoAAAANSUhEUgAAAgAAAAIACAYAAAD0eNT6AAAAAXNSR0IArs4c6QAAIABJREFUeAHtnQfYNEWxth9RQERFBEFMGPCY5SAHsyiCYg6YFROKWTFgTpgVjjnjMaMiZsScRVHMGcUcMCASVIIY/n8f2ZVlvw1TPT0zPTt3X9f77u7sTHf13b3dNT3VVRIJAhCAAAQgAAEIQAACEIAABCAAAQhAAAIQgAAEIAABCEAAAhCAAAQgAAEIQAACEIAABCAAAQhAAAIQgAAEIAABCEAAAhCAAAQgAAEIQAACEIAABCAAAQhAAAIQgAAEIAABCEAAAhCAAAQgAAEIQAACEIAABCAAAQhAAAIQgAAEIAABCEAAAhCAAAQgAAEIQAACEIAABCAAAQhAAAIQgAAEIAABCEAAAhCAAAQgAAEIQAACEIAABCAAAQhAAAIQgAAEIAABCEAAAhCAAAQgAAEIQAACEIAABCAAAQhAAAIQgAAEIAABCEAAAhCAAAQgAAEIQAACEIAABCAAAQhAAAIQgAAEIAABCEAAAhCAAAQgAAEIQAACEIAABCAAAQhAAAIQgAAEIAABCEAAAhCAAAQgAAEIQAACEIAABCAAAQhAAAIQgAAEIAABCEAAAhCAAAQgAAEIQAACEIAABCAAAQhAAAIQgAAEIAABCEAAAhCAAAQgAAEIQAACEIAABCAAAQhAAAIQgAAEIAABCEAAAhCAAAQgAAEIQAACEIAABCAAAQhAAAIQgAAEIAABCEAAAhCAAAQgAAEIQAACEIAABCAAAQhAAAIQgAAEIAABCEAAAhCAAAQgAAEIQAACEIAABCAAAQhAAAIQgAAEIAABCEAAAhCAAAQgAAEIQAACEIAABCAAAQhAAAIQgAAEIAABCEAAAhCAAAQgAAEIQAACEIAABCAAAQhAAAIQgAAEIAABCEAAAhCAAAQgAAEIQAACEIAABCAAAQhAYG0InF/SJSVdXdKukvaQtKekO43/bjU+dgNJO0q6uKRN16b2VAQCEIAABCCwpgS2kLSLpLuP6neApLeMJvpPS/qRpNMk/b/Ev5MkfUPSeyQdKOmeYyVi4zXlSLUgAAEIQAACxRLYRtJtR9J5ov+ApF8mTu6pSoGvO13S5yQ9U9KNJaEQFNtdEAwCEIAABPpK4GKjO/m7SXr1aLn++5L+1cGEv0pZOFnSoZLuLOm8fQWN3BCAAAQgAIEuCWwlaW9J/zda0j+2wMl+lTLgxwZWVnbqEiJlQwACEIAABPpAYHtJ+42f2/+jh5P+IqXAdgi3lHSuPjQCMkIAAhCAAATaIHCV0bP0x4+s779Q6LL+okk95fjR410GbXClDAhAAAIQgEBxBC4l6amSfrxGd/kRheBDox0Kly2uVRAIAhCAAAQg0ACBzcbb8z4+mvz/OdCJf1pJ8LbEJ0k6dwOsyRICEIAABCDQOYGdJb1U0glM+nP9EHxZ0g6dtxICQAACEIAABDIQsPe8+0r6NpP+3El/eiXA70+RZC+EJAhAAAIQgEAvCVxkZMj3NEm/Z+KvNPFPKwJ+LGJjSBIEIAABCECgNwRsyf+6sWe86UmtxPeeaP8wdib0eUlHju6+vzbz9y1Jv+toV8IrR54FN+pNyyMoBCAAAQgMkoAD6ny0o4lykXJxpqQfjoL5vG/kje/540cR1x956LuipK2De/Ht2tfBg64r6Q5jl782YrTHv0Xl5zj+VknnGWSPotIQgAAEIFA0getJ+mTDk2CVifTv4zv3l43dBF+hJX/8vkO/sqT7jxWNOoGGFtXzjUFlpegOg3AQgAAEINBvAtca3/EvmrSaPu6J9iOSnizpRpI2LwTn+STdaxQQyI8UcjJ4YSH1QwwIQAACEBgogf+RdETmya3qRPnT0dL9KyTdXJJ9CZSe/nscECiXK+MHll5h5IMABCAAgfUj4P3p7235Gb+j/Nkt8KMkeUm/r+nqkj6RQWn62+hxi20YSBCAAAQgAIHGCZx/VMIBks7IMIFVvdN3iF+XebnGa9duAXeSdHxNjsdJcnREEgQgAAEIQKARAnZL+6AME1bVSf9nI2v3Z0vyNsJ1TttkWA149zoDom4QgAAEINAdgT0kfafmnWqVid/Pxt8v6WYD2+9u5ep5Nfneo7vuQckQgAAEILBuBByZzxNylcm7zjlexn6GpEusG8BgfR5aIxiSPSxuGSyP0yEAAQhAAALnIOC97A+T9OeGJ38b9O2FY5tzsN+nhmHlW8Y+CLz1kAQBCEAAAhAIEfAz96ManPhtyX841utL28S7HOqsqPhaGxd+VdLbx7smvFsAxWApdr6EAAQgMEwCm4yqbUt7by2rO/nMu95ueN88AKO+XL3n4Abawd4Rvz52W2z/DefKJSz5QAACEIBAPwlcZxwAZ97EXfeYFQo767E9Aak6AStkX2lACZhuz99IcoAhOygiQQACEIDAgAg4qIzDzPrufHpiyPHekfUOW8O9+212D/s9aNoOY9LWjnr4gJ54VGyzDSgLAhCAwNoRuExDz/r9jP+d4wh7awetgwrt14ByNpn05716VWBfDDM7aGmKhAAEINACgb1HhmGnNDCxOPwvy8l5G9CrNN9qoK3mTf7Txxw22WGOsRPI257kBgEIQKATAheUdEgDk8mxo9C7t+qkRsModPcG2mx6sl/2/mOSLjkMzNQSAhCAwHoSsNW33esuG+yj33kV4XGSbLBGapbApzO3XaStT5Z032arR+4QgAAEINAEAcejPz3jBGIDvzdKumgTwpLnXAI7S/I2vsjEnftcR3+8wFzpOAgBCEAAAkUR8PPjl2SeNByZ77pF1XI4wjwpc1umKAiOCXHp4SCnphCAAAT6R2BrSTmXjb2f3/76N+0firWS2Bb6J3SsCNjLoD0LkiAAAQhAoDACO0n6RcZJ4kuSrlpYHYcszuaS7jJq36ePHsO8Zuzu9whJR0r6VcZ2X7ZCcNqoPBsnkiAAAQhAoBACtx8Z5nlwXjZ4V/3uVEmPGFho3kKasZYY9vm/o6S7Snr5OJSz7TaqtnvV89w/blRLUi6GAAQgAIEsBB4o6R+ZBvpv4MwnS5uUksmFR6sDjjT4qRohh+cpBn8dPWratZRKIgcEIACBIRLwcvC8ATp6zHeKB7G1b6270MUlPUvSSZn6zIkj/xI7rDUxKgcBCECgQALnlvTqTAO53cDyXLfARm5IpC1GcSC8s8D7/KOK4uz532OLYEOtRLYQgAAE5hA4r6T3ZBi8PZgfPnpevNWcMji0/gS2G4VpfleGfvQ+7EXWv7NQQwhAoHsCm422Yn0yw6DtJf+n4vO9+wYtQILbSPpTzT712ALqgQgQgAAE1paAXe9629fsMmz0s1353nZtKVGxFAL2++/QwNG+NDn/jNFqwlVSCuYaCEAAAhBYTmDjUcS999cYoCcD9TclXXZ5UXw7UAL2M+BHQpO+En213wjbppAgAAEIQCATAQ+qh9UYmCcD+aGSvFecBIFFBLzK9IEafW3/RRlzHAIQgAAEYgQ2kvTWGgPyZPI/kOf9MfADPttKwAcT+9yfR7tTth0wO6oOAQhAIBuBlyUOxJOJ3w6CHp5NGjIaCgGvFH0rse+9aiiQqCcEIACBpgjYg9tkIk95tWHWnZsSjnzXnsD2kv6Y0AetdF557elQQQhAAAINEdht5KzlzITBd6Io2Nsb4XsbapwBZXtTSf9K6IfvHhAjqgoBCEAgG4HLSHLo1clkHn315H/NbNKQ0dAJOPJgtA9aabji0MFRfwhAAAIRAheQ9N2EAXcyQDP5R2hzbhUCF0wMN4wtQBW6nAMBCEBgbKVfZ6+/vbldA5IQaICAHUdNlMyqrw4bjJvpBhqDLCEAgfUj8JCEQXYyGPvOf6f1Q0KNCiJwZEL/fGJB8iMKBCAAgSIJ2I3qaQkDrBWAv0my0SAJAk0SuEFC//xRkwKRNwQgAIG+E7Cnv6MTBldP/ja22rvvAJC/NwQ+ktBPr92b2iEoBCAAgZYJPCZhUJ0s/T+lZVkpbtgEbpLQV18xbGTUHgIQgMB8AjaS+mvCoGoFwD7bSRBok8C5Rs6lfhDsrydIOk+bQlIWBCAAgT4QeHxwMJ3c+fvVjoIe2odKIuNaEUgxVr3RWhGgMhCAAAQyEHhvDQVgogy8lEA/GVqCLKoSuJAku5me9L8qr/9bNXPOgwAEIDAUAp8KDqSLBlt7a/PyLAkCbRCI+qs4pg2hKAMCEIBAnwi8MZMCYMXgGX2qOLL2msBdEvrt5XpdY4SHAAQgkJnA7RIG0kWrAN4SePfM8pEdBOYR2FzS6cG+6+iWJAhAAAIQGBPYSNJRwYF0kQLg495RQBAWulcbBD4Z7Levb0MoyoAABCDQJwKXlfTz4GC6TAn4uiQ7FyJBoEkC+wf77LFNCkPeEIAABPpKYFtJvkOyW99lk3vV7x7RVxDI3RsCV0/oq+7nJAhAAAIQmEPg/JJuKelFoz3+f0wYYCcKwimStpuTP4cgkIuAH185CNWkz1V5vXmuwskHAhCAwDoT2EKSt/dVGVjnnfO2dYZD3Yog8PFg/3xCEVIjBAQgAIGeEHj4OOjPvEl+1bFde1JHxOwngWcGFYB39LOaSA0BCECgOwKOq75qsp/3/ae7E5mSB0DgNsF+6TgCJAhAAAIQCBLw3dO8SX7VsesHy+F0CFQlYOc+q/rf9PeOX8EOlap0OQ8CEIDAmIB9sP8qOOB68HUM99xpT0mHjw0V7RDGrl6fL2mb3AWRX2MEbi/po2NDPk/M35f0HEmOUFk12RDw1GCfvEzVzDkPAhCAAATOJrBXcLCd3H3tcnYWtd5tOt6uOMl39tWhX+9WqwQubpqAt+IdsaQfHS/pugEh7Hdith8s+7x7IG9OhQAEIACBKQK+a1s2wM777p1T16e+9cTxxYplHyZp69SCuK4xAreS9IcKbWiPklUfHb2nQn7TffIBjdWOjCEAAQisOYFrBgdcD752MHTRGlzs9CXqrfBPkjzYE6WwBvhMl55XksNGO17E9GS87L2VgBtUKP/lgTxd3rMq5MkpEIAABCCwgMCHgoOuB94nLchr1WE/K/5LQnmTycUhj6+wqhC+b4yAJ/EfJrbfyaPHBf+zQjL3q0lbV3l93Yr8+BoCEIAABJYQ2Dl4N+eB+ZcJFtj7SfpncICfNwnYyOy1ki6ypE58lZeAHUn5rr9u+9nb3zIl4D7B/vHBvNUkNwhAAALDI/Dh4MDridluhqskLxkfkpD/vMl/+pgfCzhOwcZVhOCcZAJetTkuY/vZLfXVFkhz02A5X12QD4chAAEIQKAigejA64nYBlurko33Ph8c1Kcn+SrvfzG2DzjPKmH4PkTAoaBTHg9VaTPvDrjKHGmuGuwrP5uTB4cgAAEIQCBAwHuwfxIcfM8YLQtvuaQMG/t5cq4yIeQ4x4aFNhREEVjSKBW+8t59L/f/veG28w6CK83Ic+Fgmb+fuZ6PEIAABCCQQOCxwcHXk/aibVh3kGTL7xwTezSPH0m6/8iZkB89kKoT8HP+p0mysV6Ueer5v5FkD4CTZM9+kbxsUEqCAAQgAIGaBHznZ098kQHYy/vTydv0Hp/BWCwiw6Jzvcxsj4KXmBaQ9xsQcNhot5ltKhaxbPK4PVJedkqqyMqDjRLZGjoFj7cQgAAEUglEjfW8F3zijnWz0Ra91BgDTU4w9lvwlpG74WukQlnT6+zL4RkjQ8oTO5r4p9vcz/IvOeb856A87nckCEAAAhCoSSDFGNDRBbeTdHRw4J6eANp6bx/1vtut48ioJuLOL7ci5G2U0dWeptvox5IuLskrN5GyIvEGOoePABCAAARKJWBjQD+XjQzAfuYevWZR/t6O2MYz6H9IclmONTCEO0gHf9pX0peCbbuonRYd92rLou+qHLeTod8G85isHJT6m0IuCEAAAr0h8MLgAFxlYF91jifkR40JOU7AmxKcE60qY9H3p4z9FNw9GL2u9Aa1fwT7anDshqbv9t1+LxpHcKy77TOqRHi7IgkCEIAABDIQ8BLxosmyieO25L7NHLntMe7LLctio7KvjY0HHcDGKyJ9SptLuvXY5qGtZ/vfHq2mOKbEJFmGukpApJ9deVIwrxCAAAQgUJ/AD1qaeH+6wCHMpAbeFvZgSQ4NHJkUcp37u/Fk+hBJOxXoY+B8knYbsXm6pM+0sHd/muupkh63gIm3FNpL3/T5Tb2//KSz8AoBCEAAAvUJHNDC4O27xKphfj2hPLtD3wKTycu+DT4r6X8l7TO+871AfdyVcrCtgldFXK6X2x1OObpcPqlH3dcPzOzfn1cBO/X5Zgv9aPt5hXMMAhCAAATSCPi5at1JYtn1r5e0SYJo3m3wyg4nvkV1ssdD34G/eayoeNXiVpKuO17hsKGalZh5adPxs3PfyXqCv4mke0l6iqSDJX1kZKxoQ0s/Z19UflvH/XjkRvMqseCYFbzvNiz3xRaUzWEIQAACEEgk8L0GBm5PYo9JlGf6Mk+ojh3ftHFbWxNr6eU4+uM9Ep3u2KjzmAb60oQZUSGnfxm8hwAEIJCBgJ8rTwbZHK928OK74pzJd39eDo86j8lRnyHkYX/9dhFd162y28n7/Jtg5i2OJAhAAAIQyEjAgVpyDdgO1ONIb00lL6/v33LwoVxsSszHjzQeltlHgldt7PEvd32964AEAQhAAAKZCeR4fnvk6Ll9W8u0jgR455Fl/Oda9COQe0LrMj/v/ri3JPsQaCLZbbR9/+eqo7dteqcICQIQgAAEMhN4Xs3B+o2SbOTWRbqCpING2wi9jJ1rwlnHfGyXcfjYaVAbfg92GHklPC5Tm5zURceiTAhAAAJDIHDDxIHad2beI15C8m6DO4728Xvr2hmJ9VnHid/umx0MqAtXut5l8vsMbWE/EiQIQAACEGiAgI23opOfDfLsja7EZIMxL3E7DsCZCXWLsijtfLfN28eeF/24pMtkm5Bo4J9Znt/psgKUDQEIQGCdCUQVADumuXpPgDiK3H3GvvLbcps7O4G18XkS6+B2Gaz5czftf0v6Uw1FzP4RSBCAAAQg0ACBqAJgl719TDYku97IoOxZYxe2foTRxuTcRBn/Gnvgs/2DwzvX3cLXdHva+VFqBEjvKiBBAAIQgEADBIaiAMyi87bCm4+9+tn1r++im5isc+TpRxnfkPRaSXdtccfFLLM6n6+T6MuBFYA61LkWAhCAwBICQ1UAZpGcS5Jd9XqL4fMlvW/s3a5tX/xeYTlK0hvG+/Sv1YM7/FmWiz7fYOR0yAGGIkqRo0WSIAABCECgAQIoAMuh2pDO29r2GBsXPlXSq8cKgmMD+M7cy9S2MZhnZ/D38fHfSrJFu0PrfmwUaOetkl449sK39ygegCd6B9dZ92TnQxEF4D3rDoT6QQACEOiKAApAV+SHWe49gwrAO4eJiVpDAAIQaJ4ACkDzjCnhbAIoAGez4B0EIACBTgmgAHSKf3CFowAMrsmpMAQgUCoBFIBSW2Y95UIBWM92pVYQgEAPCaAA9LDReiwyCkCPGw/RIQCB9SKAArBe7Vl6bVAASm8h5IMABAZDAAVgME1dREVRAIpoBoSAAAQgIKEA0AvaJIAC0CZtyoIABCCwhAAKwBI4fJWdAApAdqRkCAEIQCCNAApAGjeuSiOAApDGjasgAAEIZCeAApAdKRkuIYACsAQOX0EAAhBok0BfFABH79tFkv3mP03SgePoeO+Q9EZJrxkH8XmcpL1Gvvp3lLR5myA7LGuzcX3vJOmJYw7mcYikt4w5mdeTx9EEHZ73Qh3JiwLQEXiKhQAEIDBLoFQF4CKS7i7p4NHrsUH/8ZNgM/8YB995paR7jIL4bDtb+Z5+Pp+kW42DCX1d0j8T+fxwHHVwH0mXbokFCkBLoCkGAhCAwCoCJSkAntg86X9odLfqKHqTiTzXqxWCz0naT9IlVoEp7PtzS9pzfEf/lwbYmPHXJD1J0hUarDsKQINwyRoCEIBAhEApCoDvQo9vaGKbp0BYwXiTpC0jsDo6d/fR0r3v1ufVo4lj/xorYU2sCqAAdNSJKBYCEIDALIESFICntzi5zU6Yx0jaehZKQZ/9XL+J1ZBZDvM+/1HSlTKzQAHIDJTsIAABCKQS6FoB2HVk1Oc7znkTUFvHbEhYYnLb/LVjNt+UtFFGOCgAGWGSFQQgAIE6BLpWAPy8v62JflE5NqK7ZB2IDV37vALYmNlNM9YPBSAjTLKCAAQgUIdAlwqADdvOKGSSs/FhaemrhbB5bkYwKAAZYZIVBCAAgToEulQAvNVv0V1528cfXgdiQ9f+shA+r81YPxSAjDDJCgIQgEAdAl0qABuPtp2dWcgkd5c6EBu69iuFsHlWxvqhAGSESVYQgAAE6hDoUgGw3J8oYJKzfwBzKC09pwA2XonxNsRcCQUgF0nygQAEIFCTQNcKwB4FTHKl7gK4uKTTOubzHXYB1PyFcTkEIACBQgl0rQAYy0EVJzkbDH5xZLH/+rHHugeMYwPcR9LDRhPVM0de7DyZe+ua7+qr2BH8YhRH4KKFto3FunfFbZLeyfAtSW8bXXSApAeOr3XshAeP3AU/dez46MuSTq/Ixh4Hd8rMhhWAzEDJDgIQgEAqgRIUAMtuI7yT5kxMfxoH+rmxJAe9qZouIOlmI09/L5X06zn5Wjn4VKHb/2breLsFdfBE/q5x8KOIR8NNR3W/gaRnL/Ew+H1JO88KkuEzCkAGiGQBAQhAIAeBUhQA1+WCkuz5ztH+njDef75JhkqeS9K1JD1mHCnPr46I16d0Xkm3GK98+G7+DmNeOepwVUkPHbNxxEA/88/p/GdaRhSAaRq8hwAEINAhgZIUgA4xUHRLBFAAWgJNMRCAAARWEdhuwfL4oufnXpInQSCVwL2C/e3Q1IK4DgIQgAAElhPYKjgg2zCMBIFUAvsG+9ubUwviOghAAAIQWE7AxnKL7vbnHf/b8uz4FgJLCXi3xrx+tejYwUtz40sIQAACEEgmYIvwRYPvvOOO3GejOhIEUgg8OtjfXpFSCNdAAAIQgMBqAp7Mo+F4vWpAgkAKAe/wmKdYLjr2wpRCuAYCEIAABKoRODE4KF+6WracBYENCLws2NeeskEOHIAABCAAgWwEfhwclJtwEJOtMmRUNIG3B/vag4quDcJBAAIQ6DmBLwUH5T17Xl/E747Ax4J97c7diUrJEIAABNafwBHBQdlbuUgQSCHwg2BfswtoEgQgAAEINETgtcFB2T7kSRCIErDB6anBvvZf0UI4HwIQgAAEqhN4YnBQdsQ5EgSiBKJeJ707xTEQSBCAAAQg0BCBuwYVgKMbkoNs15uAIxAu2u437/hx642D2kEAAhDonsC1gwOzl3GbihbXPQ0kaIqAIw7Om+gXHTuyKUHIFwIQgAAEziIQjQfgAfvywINAkMCrgwrAG4L5czoEIAABCCQQ+E1wcHY8ehIEIgS+GOxjj4pkzrkQgAAEIJBG4MPBwfnAtGK4aqAENk7YAbD7QFlRbQhAAAKtEnh+UAHw3RwJAlUJXCfYv/yYaZuqmXMeBCAAAQikE7hLcIA+Q5IjCZIgUIXAY4L9y4+kSBCAAAQg0AKBSwQHaN+h7dqCXBSxHgQOD/avd65HtakFBCAAgX4Q+GVwkH5uP6qFlB0T2ETSn4N96+Edy0zxEIAABAZFIBqp7ZuDokNlUwnYmG/RXv9Fx3dKLYzrIAABCEAgTsChVxcNyPOO21XrxeLFcMXACPxvsF+dJOncA2NEdSEAAQh0SuDSwYHaSsHDOpWYwvtA4CfBfnVYHyqFjBCAAATWjcAxwcH68+sGgPpkJXCtYH+yUnnfrBKQGQQgAAEIVCLwouCA7ccAl6qUMycNkUBKf+Kx0hB7CnWGAAQ6J7BbUAHwHdvjOpcaAUokcB5Jvw32p6+VWBFkggAEIDAEAo7yFx20/Yz3XEOAQx1DBG4bnPxRJkN4ORkCEIBAfgKvSBi4vXJAgsA0gSMS+tHlpjPgPQQgAAEItEvgBgkDN57b2m2j0kvbXtI/gv3o6NIrhXwQgAAE1p2AHwP8PDh4/13SZdYdDPWrTODFwf7j5f9HVM6dEyEAAQhAoDECT00YwF/SmDRk3CcCW0r6S7D/nC7pwn2qJLJCAAIQWFcCF5fku3rfmVX986C/1boCoV6VCTwp0GcmfeuQyrlzIgQgAAEINE4gGsHNg/nzGpeKAkomcEFJf0pQAG5YcqWQDQIQgMDQCNw0YSD/q6RtewDKvua9c8Fx6p8m6e6Sti5I7p3Hz8Qt276S7Ka5D+npCX3mO2wj7UPTIiMEIDAkAt7b/62EAd0GYCUn323+cE69TpP0zI4D0VxB0hfnyPbPkRLwJkkXKBisH/+cPEf2yTL/otd7FVwnRIMABCAwWAIenBcN3IuOnynJE1mJ6RYVbBs+Iun8HQh/4woTqD3lna8D2aoU+cqEvvIbSZtUyZxzIAABCECgXQIenH+dMLB/sF0xK5W2xSh64QkV6+I96W0+yrirpDMqylbibourVlCs5imM+1dqOU6CAAQgAIFOCDy44sQ0O8DfrBNpFxf68GA9fj9ajr/J4uyyfHPeke1B1POiFQUb25WUPhlk677yB0mbl1QJZIEABCAAgXMS2FjSzxIG+F90tJR+TunP/vTehDo42uEbGloN2HOBLcKsIjXv883Prlbn7+6dwNV1elTnkiMABCAAAQisJHC/xEH+hStzbu+EzyXWwZPVKZJeIGm7DOLuLinljnlaESjFcM47J45P4OqAU6XaMmRoYrLIScB3IFeTdMex1vgUSc/nDwY97wPeMvVYSfeQtEthd8uzv1+Hdj0mYaC3P/hrz2bW0ed3J8g/Pen6vQ0cPzRaEfEEXDVuvbccelvfAZJ+lEEGy+HVgxLSoYn1eVAJwiNDuQSsWfqZ3UcleW/x7A+RzzBZtz5gz3tHjX6SniguX+BP08/DU5j/tJBn1g9JlH9ZnR0K+QOSvPXxieO9+1bq3Iavk/TZCpb9y/Kf951EZh4WAAAgAElEQVS3K3axS2G2S94zkef3JFmhJEFgAwK+03/76Mf0t8TONe8Hw7G0gRtu3XLz5FHSs17/WD+c+Lv0c/Sukw3OvPTc935dgrdFB37yY5EUlk0bVnbdzyg/gYCfrdkftI1uUjoV18BtXfuAVwV2SvhNNXHJFcfL4Cms7W2v6+RQxw48kyJ/Cdd8poB9894a+qVEhu/pugNQfnkE7tbAMlkJP1Zk6O9AW1rb+Vn6cwpZOn124uDvpesSFJldezre2LdCCYZzr05s/z9LumR50w8SdUXAz4FSO1NpAzTyMNm30Qc+X4DP+k0lfT9xEvh5IREDd5T0u8Q6tNHOs2XYDXAJz833rsHsoV1NNJRbHoHNJKVEG5v9YfCZiXdofcB+7Lfv+Cd9fUn2T5/C/mOFTGb29PeJxDqk1DvlGhuGPr6QYDnXrfH4xPENNuq4z1J8IQS8re+Iwn94KT9WrkmbEOAW52bL+ot2/Ht+aY3f8MEdyz4p3nfVz6qhzDTZd93G3h5aQtpB0h8T2/tUSbYdIUHg3wRsEdzkD4e84TuEPvCNkXMar6R1lezG9rs1fsveNldKusZ4C2YJ/ca+BqxclRL5z1uy6/gveGApjYwc3RO4f40Bo4QfJzKgXJTUB7zXvMt0FUk27kth4h0/3ptfSvIS9b6SHKEupT51rzEPG/qVFEnRMQe+WoOHnSY5rDQJArrsyPOZl4Pq/lC4Hob0gbP7wG07HluiQXam2852BPYlX1LyNjd7+kvxfDhdt6rvzcATfynL/ZO2sN+EL9QYrx1F0qsHJAj8m4A7edUfBefBij5QrQ/8soCoanbeldpe3uJor3KlJbvwtd9+P7I8uUb9FnH51tgVdIlb4/z4wT4HFsm+6rgduZXiArq0fjVIeXar0Zkmne1ESe+X9DJJjgdg61j+YNDHPvCEsfvYd0j6VYbfhhl0mWyLYJuEyW81+url70d0WYEVZdvewR7s7APhyERreD9acHvbD/5/rSivy68vlMEeguf+XbZggWXXiX71ZUmOLV7CPtgC0SJSzwn4Gen/jAJe2UtaqidMx1bv2kmMLcWtpEcn/8n5rnvXikzVrmR7gUuPlQLbNVnuZ45WYg4aB6h68mjV4JEj4zk7OXPbblE1447Ps0dWr0xM2iTltQS3zx1jpPhpAjZqSelItoa1JokRyTRN3q8zgT0knZD4eylhGd1e9s5IlH8yRtiw0VuFSe0SsEHnL2q2nUMu21EUCQL/IWAXppMfd9VXDyJ+/kaCwNAI2Fj2uITfzMcLAWVFJHUlYzI+2Hq8lG1whWBtVAw/3qhr5/CD0fbFLRuVksx7SSBlr3BplsG9BI/QvSVgi/Bo0Bp7jStl0nxqggIzmfwnr55QcCDTbBf26urjRjZVNsSccE95tVtlRwgkQeAcBLZJuBtwyFESBIZOICXozi0LgvbimpOKJyIHkNmroDqtkyhWFt+doY3+NLJfcRh3EgQ2IOABKapR2isXCQJDJ2AnLNFl2QMKgua7y1zBvt5SwFbHgtDWFsUrTMcmjM2zY/kpBfovqA2HDPIReEywk7lTkiAAgbMIHBL8/Xg/fknJ1vKevGcnjpTPjkD43yVVroey2LfBk0Z/NrBOaYPpa/4qyUafJAgsJBANGOLzSRCAwFkE7JFuetBd9d5R10pLXgl4ebAei+ppO4eXYGme1MRXz7DFb9IuXplydEASBJYSiAb+efTS3PgSAsMi4DusyaBb5fU7heKxEpDDJmDCwHef9ttPWk3Aj5I+lWCLNWE9+3r8KJQ7j2lXc+eMkRXvocEBzHc8JAhA4CwCtoKfHYCXff5Z4eBso1B3i+B0/Y+SVKIr3VKaYe+E3STTfGff2+30lUqpHHKUT+CdwQHMHZYEAQicRcAuY2cH4WWff94DcPeRZF/xy+oR+c7bJZ8hyXe6pLMIXEuSnfJEOK4692uS7CmQBIHKBFAAKqPiRAhsQGAdFQBX8saSTso8QXk7mlcYhqwIeDveYZlXWawYfLQgHxMb/Eg4UC4BFIBy2wbJyiewrgqAydtFuJ39rLrzjH7vZ9RPH1go2huOQwrnfLxi7s7vuZK8e4AEgTABFIAwMi6AwH8IrLMC4EraGc27GlACPHmdNvZDcNX/0FyvN45QeHdJX2mIn/f43269kFGbtgmgALRNnPLWicC6KwBuK+8Q2D/T3vRFqwVfGoVd3mdNlrGt0HgrpB95LKpv3ePfHq/QrNNvibp0QAAFoAPoFLk2BIagAEwaa2dJP2xwUvOkaIPBD0rybqNS4iZM6r/s1aGH95P0hYb5eMn/tQWEll7Ggu96RAAFoEeNhajFERiSAmD4m0s6uOFJbnJ37EcEHxlPrLZHKCltJmnP8Z1+00rRhIed+9ysJAjI0n8CKAD9b0Nq0B2BoSkAE9I/bkkJmEx+fv3t2B7Bd9reRmdlpK10KUm3Hd15HyjJ3hxzbpOcruOy9w9uq7KUMxwCKADDaWtqmp/AUBWAr3egAMxOjv+UZEXkPZKeL+mB47tyO2faemy7ULXFfUd/iXHgnDuNQ/C+ZrQd8vMNbIecrUfVzzhhq9qanFeZAApAZVScCIENCKAANGfoVnViXHSen5f/UdJPx5H17Chn8vet8XF7zju1AGVmUR2mj6MAbPDz40BdAigAdQly/ZAJoACUqwBMT57r8B4FYMgjTUN1RwFoCCzZDoIACgAKQFvKBQrAIIaUdiuJAtAub0pbLwIoACgAKADr9ZseVG1QAAbV3FQ2MwEUgGoKgKMgtjVR9qEcGzA6MFREVlYAMv94yU5CAaAXQCCdAApAtUnMIWrvPN5CF5n01u1cu+99paQdxq+R+qEApP9OuXIBARSABWA4DIEKBFAAqikA5jRJdurjbXsOChSZAPt8rncfPEDS+ScQUACmSPC2MwIoAJ2hp+A1IIACUG0Sn1YAJs2+qaS9JB06ijXw1zVUBo4Z+SJ4hiSvfsxLXgmIKDWsAMyjyLFaBFAAauHj4oETQAGoNonNUwCmu875xo8IDunxyoCf639V0jMl7ThduQXvUQAWgOFwewRQANpjTUnrRwAFII8CMN0zNhp75HuqpE8Xvjpg48a3SNpb0jbTlajwHgWgAiROaZYACkCzfMl9vQmgAORXAGZ7zHnGCsEjJb1Vkr34deGL3zYLnxxFKXyhJLsLvtisoMHPKABBYJyenwAKQH6m5DgcAigAzSsA83rTxpKuKukOoxWC/ccGdR8eff7uOGhQioLw51EYYt/RHyXpHZKeK2lfSbtL2naeEDWPoQDUBMjl9QmgANRnSA7DJYAC0I0CUKXHXUDSpcdb7naW5L/rj1cT/P5qo+X7y0rabjTZb1Ilw8znoABkBkp2cQIoAHFmXAGBCQEUgHIVgEkblfqKAlBqywxILhSAATU2Vc1OAAUABSC1U6EApJLjumwEUACyoSSjARJAAUABSO32KACp5LguGwEUgGwoyWiABFAAUABSuz0KQCo5rstGAAUgG0oyGiABFAAUgNRujwKQSo7rshFAAciGkowGSAAFAAUgtdujAKSS47psBFAAsqEkowESQAFAAUjt9igAqeS4LhsBFIBsKMlogARKVwDOLWl7STeStI8ku9d1JL5XSXqDpMMkfUTSJ4J/dpoTCWRjTqRzEogqAN8LttFsm7qt3ybpZaO2e7qkh0m6vaSdJG15TtH4NBQCKABDaWnq2QSBkhSAS0m6i6QXS/qYpGM7cpk7TzFAAdiw90UVgHlccx47SdIXJb1G0oMlXVeSIzaS1pgACsAaNy5Va5xAVwqAA+ZcR9JjJb137P4252SQOy8UgA27YmkKwLw2P2OsFBwk6eaSHLWRtEYEUADWqDGpSusE2lQAHHzmgHGEPN+tzRuwSz12jdZbpvwCP96zNnTfcsjj348fJdiNMqnnBFAAet6AiN8pgaYVAC/B+tm9g9SUOrlXketoSZt12lJlFb6bpH/1vE3d7l+X9PCEUMhltcaApUEBGHDjU/XaBJpSAC43NtY7YQ0miYmC8EFJjuI39LSLpKgR5YRhqa//GBsoOkyyDU9JPSGAAtCThkLMIgnkVAA8cN5O0kfHS62lDvZ15LIVuu0XhprcX/6wRkrdvL7wU0mPkHT+oTZyn+qNAtCn1kLW0gjkUAB8V+y4879Y84lhMlm8vLRGbEkehyb+9UDa2G194mgXwfN4PNBS70osBgUgERyXQUBSHQXAd/z3lPSTAU0KEyXgGQPrPduOt2VO6j+k17+OFYGtBtbmvaguCkAvmgkhCyWQogB4CfzOo78fDHDin574Hllom+YW60KSvjnwtna7nyLpySPblvPmBkx+6QRQANLZcSUEogrAcaP91LaIn54Ih/reVvD3XvMu5H3zR9Le5+jvP5dkY0FSAQRQAApoBEToLYGoArAOW79yKiy2Hr9jb1t/ueC27fgQk/85Jv/pvvMpSTssR8i3TRNAAWiaMPmvM4GoAjA9ALb1/k+SvirJv3UbZT1kfOftu7CbSrqhpJ0T/uxLPkcd/iZpzzXrJH7M845MfOwDIqV9pq9xLIg9xq6i3f6OCXHwyN2vnRHZZfTfM8ka7Q+nSXqcpPOsWfv3pjooAM01lQ1/niXpXZI+3OKf7zr+j2W25hp2KufSFAA/YniPpMeM9mVfT5KfPzeV/Cz31EwTh/Ox7/l1SS/JxMUT6gtbgGKHU/bW6Ecyr8soe1WF4Csj74KXb6GeFDFDAAVgBkiGj5uM7qo+08GPaN6P7S9rvMSaoalqZ1GSAnBU7drEM7BiO6/fpRyz06Mrx0Uo7ornZmRijl6laTNdKbP8VfuCx6r7tVlRyjprWbBqA/m8vYG2lIAn/9929ANa1I5+7vzApVLzZSqBkhSA76RWosZ1dviyqN+lHP+NpMvUkKfrS3Pz8BJ52y6Ur5+5TaP94FCcCLXXjVkByMs65x1R9Iez7HwbW22dt6rkluAHYFkb1f3Oy/9tpyYUIPtFuGjbFclQ3r0a8O9/RAa5olnYG2Xdvlj3+h+ObFa8EkFqmAAKQD7Adn1ZspW3jZJIeQk0MQGmDp42pusiNeHIyKsZW3ZRmcQyPWk2YUjnQDttp/sHFQAHBPpd8JoqffzkcQjitus/qPJQAPI1t61rq3Tsrs7xowlSXgJNKQAO9/sUSY7HHukvF8hbvUq5NRXX/kuSNq8kQbcn3Tihnaq2aRfb5B4f7HMvHjv3eWgD7qytVD2o2+Zd79JRAPK1b07L36oDROQ8u+Qk5SWQWwFwlDjvHJlY70ftSexvvu106+CEEemznxhtXbSFeqnpmqMdFzZei9Sp6rne/tdFOjBYHyuqk2TfBw5fnXtVyDKda1IIr/kIoADkY/nq4A+n6kCQ6zwbFJHyErhipja3jYYVyFk7je8G8/+fvNWrlJvv0qMrFZE+7W2NJYaYvaok+1iI1CVybldBk94QrNOD5/QSK21WDDzmROq87NzXF9oP5lS/P4dQAPK1FQpAPpZ9yenaGQY4+4n3neS8FN1O2pVDnU9m4LBs8Pdvq6R02VEERxtdLpO57ne37KjChwfrtcyt7yXGflDqsphc7x0CXmUgZSKAApAJpCQUgHws+5KTne1MBqfoq5f791txV/PuYP736Ajc/kE5o6x8/nM6qttssdtI+lHD9fWKio2Ku0hfDNbNNhCr0m0z2gd4RQjPgauIV/weBaAiqAqnoQBUgLRmp6TaANgPuu+OVqXXBgdj70PvInk5PGVSj17z2C4qN1XmFi1F9rOL3q5SVLm5ekVBbaCayz3yIZLsbplUkwAKQE2AU5ejAEzBGMjbFAXgGSvu+qfR+a43Mkk6767SL4OyRuo1OdfbbPftqIJtRvZ7dEd1dLFRu4aLB2W1U7LTM/QVxzLAMDAIf/Z0FIBZIumfowrAmeOY8I4Ln/IXHXAxAkxv20VXRhWA3y/KaMFxTwSTya/Kq7fkdZU8IFeRse45Npi8c8uVtIfPNp18deUS2caW/wy2o2NCRNOOmR6jHBAtmPPPSQAF4Jw86nyKKgC/qlPYOIpbZDBFAagJfM7lUQXAsdAjycFZIm1sI6mu0h2CskbqNXuunR7drKWKelKMjpOz8kY+/7qles0r5iLBNvQWyNTkRwKHBcub5egVIf9GSIkEoh2bWACLQaMALGazrt80rQDYEnx20Fv22db4XaULSvKq1jL5Zr+Lnj99vSMI2m99k8lLzHVXNqJb4Wz30VWKbmv9RU1B/Ry/rv8UK4O71ZRjsJejAORrehSAfCz7klPTCkB0m6G3FHaZPhdUAI6u6ULX7mL/u8EKvyBYn2kFxe/9aG/22KrPt2+wPquyjgYC+tqqDCt+790wddyo226hz0GkKmLKfxoKQD6mKAD5WPYlp6YVAMdIXzVhTH/f5fKx2+xJQXntnfI+Cc+dp+v8h3FQptx95onBukzL5PfHjhwkPSGYh13feqdBV8nb9WbrsezzxzIK6mBKdeIpfKODyIkZq99NVigA+bijAORj2ZecmlYAHBBn2QA8+52tq7tMOwXltfzeR24/8rN1iXz+qaTtMlbcSkmdO1IrYttLijrV+WzGOqRkdb9gO7wtpZAl19ymplfJ1yzJm6/mEEABmAMl8RAKQCK4Hl/WtALgZ9DRu6IuA+hY3mj8Ai+zO9miOzLpz55rt8kXPiurWv+9BO+dBrP5V/18vCQ/S/fOgWicAK8YdJmigYBe1oCwXoWow3+ZZ8IGxO13ligA+doPBSAfy77k1LQCYA6eUKpOPj7vUh3De1NQXof+naQXBq+d5fLlmh709qh5B3qKpJ3Hldk9oS5N2jNMGC97jQYCevqyzGp8Z18Bs21b9fOJki5Zo+xBXYoCkK+5UQDysexLTm0oAMcEB8NrdAzvrkF5PbBPBmyvIDjoS9XBft553gmREkHQBpfRO/bp8m3tv+sU+4OC9fhdAY5touz96KapZKdW03wj7z/alFDrli8KQL4WRQHIx7IvObWhABwZHAhv0jE82y1El3D97HmSvO8+GgNhdnJ4X9Bf/NUSPOBNl+ntjLPBe6KRHB2Fr+v0gWBfs7LXZPIjhmnOkfc2KiStIIACsAJQ4GsUgACsNTm1DQXg/cFB8G4FsP1SUOZ3zcjs5+e2MI8M+LPn+lGEVxRWpcsl2C1Ml2XPebPMHechakR4l1WCtvB9NBCQH5k0mawMfiKxH5wgyYGbSEsIoAAsgRP8CgUgCGwNTm9DAYguyz6sAK5+Njw9Sa5672fns2Fe7Snuq8F8Zst56QoWF5P0s5plPHJOGY5XMCvLss9eMdlqTj5tH/phUO42bBa2raGgvbVtgH0rDwUgX4uhAORj2Zec2lAAos5oSvCPfq3gROLJcZ5Xv60lfT8hr+nJdpFlvSfcunnb78G8FH2E4TvvEpLvmqfZrXo/sd1oWvYbJjxWsuxehblB08L1OX8UgHythwKQj2VfcmpDAXhccFB+eQHw7OI1unvhWQvkdrQ5x1BYNRkt+t6TgK3Kp5Mj+0WXu2fzX7QFzrHqTwrK+7Rp4Tp67zaLBgLarEVZo6tKk/b6OqGDF7cSCsBiNtFvUACixPp/fhsKQNQ5y9sLwWo5JoNwlddlbmV3GE3itpKvks+8czyxTQzWbF9gK/F551U99uYl9gW+46yaz+S8XQpoM6+2TOSp8tp2cDErKN7hUUW22XMwCFzQwVAAFoBJOIwCkACt55e0oQBE3bN+vBCmHnRnB+Jln32n7ue9i5It9b3He1key76zpf6tM0SgW7XD4DlBGf9YyB1qNBBQ3Wimi9p52XEbV/45yNd9wnYeszYmy8oZzHcoAPmaGgUgH8u+5NSGAhAN0OIlzxKSQ8tGl5TvuUJws3AUwGUT/bLvopb5s3nZIn2VjwHzn71u2edDVtS5ra+vF5Tbvve7SPsH5Zywf0AXwpZeJgpAvhZCAcjHsi85taEAXCk44P2yIHjRybCKb/m63vomE0L01ZELz7+C7UUTtv+VEmI9utJkZaiL5Dv5qI8Ft7VXLFYpb13Up9MyUQDy4UcByMeyLzm1oQD4TjoyWTnCXinp2UHZqy6H75VoFR7hOH1u1TgD9w7W1yskpexVj9qavKPDTuaVoJTVnGmHUx2KX07RKAD52gIFIB/LvuTUhgJgZyjRpfQ2rbOXtVWKQdw1l2U49V3diH3TE/yy9440aH8BVVLU8NF+DkpJ0d0mr+hYcBtiLmu3ed/Zz4GNCUljAigA+boCCkA+ln3JqQ0FwCyixm82liohNb0l7okJk8C8iWHRsT9IchtXSTm3PlYpL/c5ffM34cctXu1a1HaLjs+6bM7NsVf5oQDkay4UgHws+5JTWwrAj4MD3Y4FAbSb30WD8bzjRwVlj05c88qcd+xkSRFPdynOj2x4V0qKepx8eAGCPz/Yt9zOdjFNGhNAAcjXFVAA8rHsS05tKQBR3/oORVtKun9wkI66xbW//9cGy5g34U8f806DeZ4JlzG1B8bpPFa9t7Mgr5CUkqKBgO5egOD25mg30qtYT39v2wHHfyBJQgHI1w1QAPKx7EtObSkARwQHuTsXBLCNwDhefj80yGh6Uph+/zdJN0vgF1XSDksoo8lLvhDkd9MmhQnknbIKsMjrZKDY9TgVBSBfO6IA5GPZl5zaUgCiBk8PKQzgd4KTyxsT5Pf2sA8Hy5me+P3eqw93Sij7wgm7EvZJKKfJS6KBgHZuUphA3nYVbaVtti2Xff4NxoBnEUYBCPS0FaeiAKwAtIZft6UAvDA4wD21MNYHBuW3298qoXxnq2kf/0cGy5pMFF4a9uOKlORwwJN8qry6LE9cJaVoIKDtCxI+qiC7jW5UkPydiYICkA89CkA+ln3JqS0FwFHnqkwsk3NeUhjAGwfldz0iBnjT1d1Ckr3UTVhUfX3sdCbB928KlvftYP5Nn+5HKF79qMrK561yitS0zNP5Xzsou+V/1XQGQ32PApCv5VEA8rHsS05tKQCOZhcZnEtxLztpRwfgifpwXxTGd5Lnslc714ksadd5JuyVit8G28fPrUtK0UBAp5ck/FiWbwXbwNEqSzLC7AQpCkA+7CgA+Vj2Jae2FIA7BAe3jxQIMGpl/tmadbiMpOMqcKt7J7hThTJmlbfdatYt9+VXCNbBz9BLS/sF6+A22bW0SrQtDwpAPuIoAPlY9iWnthQAP6+cnUSWfS7Jw9ykLW2YuEzm2e/+LsnL+XXSZSV9b0G59q7oyH0ptgbTMkUfz9h5TWk+6aOBgHy3XVqyY6DoY4znllaJtuVBAchHHAUgH8u+5NSWAuBQuLMT5LLPDn9aWvId+TKZ5313+wyV8O4AG/d9VNKPJHny8m811cZgVqTPBev1/tkMCvgcDQT0qQJknifCp4Nt0VVEw3myd3IMBSAfdhSAfCz7klNbCsB2wYHNz9tLTJHn8lYI7OCn5HRBSWcG2+ZBBVbIWxLnKWCLjnneKDGZ7SKZ5x33bgyvHAw2oQDka3oUgHws+5JTWwqAjeg8WM0bxBYdK22Z2W3q3QmL5J13/NeFd4SobYbr6McSpaVoIKC6dhNN1d9Op+b1o2XHUvw+NCV/6/miAORDjgKQj2VfcmpLATCPqBW9Vw1KS/awt2wwnvfdlUurxJQ8Bwfrc8zUtSW9jcZTeGZJws/I8v1gm5S2ZXamOs1+RAHIxxcFIB/LvuTUpgLw8+DAZruB0tJ5JdnP/ryJftGxR5dWiSl5fhmsy4umri3pbTQQkC3uS01Rp1lfK7UibciFApCPMgpAPpZ9yalNBcCW/YsmyXnHS/V05i2K8+RddOzjhXaGqwTr4frtWWhdbJi4iP+843sXWg+LdbtgXbzbxIrpIBMKQL5mRwHIx7IvObWpANiKfd5gvOjYHQuFGN2vfUZhXucmWPcPtsdpkjabXFzYazQQUEqwpLaqbKdGUXuZa7QlXGnloADkaxEUgHws+5JTmwrA24ITjr0HlpiiTmes4NyywIp8ItgeHyqwDhORorszdplcWOirt3suUoznHb93ofVoXCwUgHyIUQDysexLTm0qAC8NDmpPLhjiT4N1eXlhddlcklcm5k0mi449orA6TItjt7iL5J53vMSdDNP1iYaGtt3AIBMKQL5mRwHIx7IvObWpADwtOEjb2M4+571XvbTkbWTzJpZFx0pzbHTroPyu1+VLawRJtmPwysQi7ouOl9inpvFa+V0k+7zjh09fPKT3KAD5WhsFIB/LvuTUpgLw0OCgNhno/ijJz91LCnxym4S67FBQp3hFUP7SFBjvl7eTpajrXPcpOz6q6z656aaM9q/vNi1QqfmjAORrGRSAfCz7klObCsBdgpPORAGYvHoPeilOT1KW0B9WUKf4SbAtrDCUkBzC9wBJNkic9IvoqyMflp7sOyJSL8dnGGRCAcjX7CgA+Vj2Jac2FYA9goPaogHQftxLsHq2HItknHf8iEI6hZfy58m37NitOpbd8RAeIOkPCbLP1qsPd8vnS9gJcJGO26iT4qMKwD07kbIfhaIA9KOdckoZtWi3M5/UlDLxzA7ek8+OhPdWSZdKFSbDdY8NTka2aShhv7aN+SYcq7z+rcNtjF6q93bQHwdlXlavUhSxVV3w98E62x5icOlNQUiPHByh6hVGAajOal3OvH7w9+PQtKlpI0l+nr9scI5+d/pob7rdwF4oVaga10UjHLpuN6lRXq5Lo0Zz3i7YRbqupKMy9xe3Qcm7S6Y5fzNY912nLx7Ke2+viQwaBw0FTEI9UQASoPX8kuhz+S/VrO/Tg7/Xqr/tiaGggw61maKudLverpXiyvgxbQId7zZ4d8ISeJW+YtuBbVuuT2pxUT8Ne6UW1OfrnhAcUL7e58o2LDsKQMOAC8w+GgzmXTXr4AnISkSVwTrlnF9IuleLVt6vC9bFgV66THblG+Xa1tLyhcfbPqP+CSL1uX+X8INlR30B3DvIlBgAABqjSURBVC+Y/1qcfvtgh7aLxZK245TUCCgAJbVG87I43G70OeOzM4i1paT3Bn+3kUHe53rp2EvITSc/n47Ktn3TQi3J38F8IvK2Ec7Y7oUfL+nkoGyRejgS5T2WcCnxq6hyXtIuk9Z4Xjqh09h4iLQhARSADZms8xHbw0QGUZ+bc5nRluW2KYjKEDnfS8lNOrCxQxnvK4/IZGv2rpK3UkZk9STUVLJNiI2yo49RIvI7UI7rcLGmKtFgvtHH2yVHnWwQk2QnFZFOYQvi3RuVqJ+ZowD0s91SpLbi/KeE342XaXOmc0vaR5LvNCO/4ci5NhR8VE6hZ/L6fFB2r350kS4ZlNOMcyp803W2LJ9JkCfS7o4QeKXpQnv2PhoW+Ik9q182caOakjuRBz/vgSadTQAF4GwW6/zOd63fThh8HXGtqWTjPXv7OylBrqqTgu2FmkhRt61ejva+9rbTg4Jsffe8RQNCuv/ZFqJqu0XPO3qkXNywAbnbzvJ5QUZ2tT3IdM0gqEmHshKw2yCJza80CsB8Lut01EFQUpfd24jONzEE81375Hea69VuY5uw/7FToqiMXUxQ7wvK+bmGOn40KFRVto6gZ0+Rpbv5rYr1ucH28g6bwaZvBGFNOpUHBT8juvhgyZ1dcRSAs1ms2zu7UPUA8ZfE34kNtNrca3+Z0bN7hw+OxkWf/K4XvfquKnfyhGP3sovKnHe8CTmW1csrDlEjuyaWlC2H3dbOY5J67HcjD4EP7mhVZRnzut+hAAQIpljjTnc4KwKflfTU8TYib5ex69Ih/Tmi1DSTVe9/FWifeaf6LmhVGdPf2yPZkNpjXl3vOxpA9x8PeDdbwePu43P9LLSO73S3QQ7r/3l9YNWxnSV9MthPpvvM7Hvn1UR6c1BGO3lpM3mlc5bFqs87NSDgjglyLJLTyqyVWiu365hQAAKtaovSr2TsXIs6HcfPHkjaVgBgfzb7NlnY/7q37nWZrAylrvJNs7LBXhPpbsGxxysbbVqmO6zyNIdV731X3cRSeurj2ml5vevCkQAv2kRDFpQnCkCwMXy3kBIecrpz8b76QIECUJ1Vn/vVvYO/wyZO926BA4OT2Dzmdh3eRLLtQnTsuU8TgizIM2r0+cYF+dQ9vM1oldW7sOa1TdVjftxyrbqC9OB6FICERnpGzc5VtRNynoQCUG8g60Mf8mOhJu4EIz/trSVF3aIuYnu7SMHBc78cHHvs6a2NtF2CLcVdGxQsum1yXlvaW2CX/hQaxPOfrFEA/oOi+hvfKeR8Zjiv83HsrIkPBWC9FQBHYGvT8G/er9yrenbvm+M3d2TDyozj1EfkPFGSx6umk/0sROTySsZWDQplD43R1ZJF8v+fJHu0XMeEApDYqt5nmuN54aJOx/GzBhQUgNjA2qd+c3wBfjK8RJ5rO6C3PjYdL/3awYnW/eE6iWNc5LJoyHS7UW46OV5DLiXAtl92LLRuCQWgRos64lM0nGKfBugSZEUBWE8FwM9Yr17jt1f30vOMg8Lk6uMOf9uGEaPv5k8IKgF+ZNlkskxRj49t7Se/0Wg3iw1Mc7Szo0HaUHSdEgpAzda0F6tczw5zdNJ1y8NLxHWSJ5l1Y9L3+thDm/fgd5VsGf/FTP3Clva2fvcOobbSO4Ky22tdk+l6QXncf22p31bynXuu3VteUXBQoa5tVnKxQwHIQNIasDXaXMtNfR/gc8pfNza8vdLllIe86vG05ffmGX5zqVl4soo61FnU5qeM3B07UmjbyTsmFsk077gt4m0Z31R6ZlAe30m3qTC53g4R/fqgnPNYTo7Z74UfA/c9oQBkbEE7oMh1ZzHpaEN/daS1OgkFIDZZNNXffjK6C7tFnYbMcO3DE6LqLeLx3YYjAC6rrvemR70X2mFTU+mrwYnV3he7SuvSB3LxQwHIRXKcj5eGvA0o15LTogFoKMdtXFQnoQB0qwB44t9XkgPxdJkOCk5Sy35f3lrX5SqGOUYNkN/SEHxvn4zuuXd43i7T9SXZCdGyNq76nQ1ZfePX14QC0GDL2c3liyQ5gETVDsV552SFAnBOHn3oH8eNl1vtGrbtpd55P+e7ZPr9OXLdY+YV0MGx5wTr5ImqibbYOyiHVy7sM6DrlNMO5FhJm3VdocTyUQASwUUvcyCg20p6rKSXSXqDpMMG+GeDpMgk1rYC4FCxQ2qXqGOZn87w8Z3lKyU5XK2jpF0h+sNo4fwcYWFLswDfNfg78m/O/g5yp7cG5fhabgFq5JdzJ8j9asjR5aUoAF3SH2DZ0TuGthWAbw2sTaL+5e0fvU/p0sEJap5yWuIecE9eVlbnybvomJW0nMkrCtEtdl0FfFpW7xy+IN6zrICCv0MBKLhx1lE0FICyWnXdFYCULWrTE6i9wNmCvMRkA9lpWVe9t5fCnGmXYPmWz8/fS0x1vUF6Ja2PCQWgj63WY5lRAMpqvHVXAK6SMElNJlI/8+9658Ky3mLjyomsVV69TdkBhXIlhzWvUu7kHG+b3DhX4ZnzsZHq+4L1mdTLrx/JLE9b2aEAtEWacv5NAAWgrI6w7gpAyjL19MD+t472+lfpJZdI2A54xyoZVzwnuuX5XRXzbfs0r/B8sMbk7/7yxLaFzlQeCkAmkGRTjQAKQDVObZ217gqAOT6h5uDulQBzKjHZH8G0wrLqvR9p5Eh2e2wuq8qb/r5EQ7nzSfp4sB7TdfJ7r2x4O2QfEwpAH1utxzKjAJTVeENQALzsXDd6p5fPbSxWWor6N/hNJje2d06YNEsLpnMBSZ9NqMe0AmAfCHuV1ikC8qAABGBxan0CKAD1GebMYQgKgHnZcU9dJcB72B+RE36GvHZPmMCulqHcqFvd72QoM2cWjuHiiITTk3n0vZXC++YUqoO8UAA6gD7kIlEAymr9oSgApu7l3o/VHPStBDy6oCa08dpfgnWyL5I6yd5OvZIQmTBfUKfAzNf68UXUH8lsXT35d+3RMAcWFIAcFMmjMgEUgMqoWjlxSAqAgda19p5MBG2Fs63SCQ4PTsafqpLpknPs+nbCoerrjZfk1+ZXDor07QT5p+tpw9A+L/tP80YBmKbB+8YJoAA0jjhUwNAUAMOxTYAt0qcH9ZT3DgNcQnpIsC6ewPz8OzU5HG6E118lbZpaWMbrHETpe0HZZ+t5xtija0axOs0KBaBT/MMrHAWgrDYfogLgFnAI7zfVnAw8Obwik1FdnV5xmYR63KZGgZ8JlufQuV2nS0n6cVDu2cn/1FG015t0XZHM5aMAZAZKdssJoAAs59P2t0NVAMzZz7I9gc8O9NHPr2ko0E6kL0QDjr0qkvnUuecfbav0XXCE0YOnru/irRWknwVlnq2fVzFKeYyRkyEKQE6a5LWSAArASkStnjBkBcCgrQS8pObk4MniEEn2z99VemmwDj9PFNShzmcnx1WfHZK7q3TFBIPF2fqcPDIevU5XFWi4XBSAhgGT/TkJoACck0fXn4auAEz4PythYpudKA7t0NXtzRPkT4nc+OpgOcdMAHfwajfQvw3KO9umJ0q6Zgeyt1UkCkBbpCnn3wRQAMrqCCgAZ7dH1LhtdrLwZ7uU7cLgzfHoTwtOdvudXfXK7xwOel69Fx17ceWc857o4D4nBGWdrYMjHV49r1jF5YYCUFyTrLdAKABltS8KwDnb43E1Jw1PIh+W5Am57fTRoOzRADZXCuZvFnu2DUGSI0DaPe/shB75/LvRThGvIKx7QgFY9xYurH4oAGU1CArAhu3hbXV2+BOZMGbPtYtZG8y1mR4ZlPn0sXOkqjI+Kpi/VyTaVoR2HTlq+nNQztm2++XIpmOHqlB6fh4KQM8bsG/iowCU1WIoAPPb4wGS7Od9dnKIfD5S0gXnZ9/IURu8ReTzuTcLSBL1ouiVkDaT6xJ9DDLLy8aRXRottsnLZaEAtE184OWhAJTVAVAAFrfH3RMi3s1OKF+TtNXiIrJ/E31G7x0QVVKKjUGbcRNuJckrGrP8I59/KMkhloeUUACG1NoF1BUFoIBGmBIBBWAKxpy3jnp3Zs2J5ZuSLjIn7yYOeX9/dNKrIsctgvlahv+qknGGc3K00Q8kXSyDLH3LAgWgby3Wc3lRAMpqQBSA1e2R4+7S2+HamGBumzBRV1nyjvoZsOOdNlKOVZpvjBxCbd2GsAWWgQJQYKOss0goAGW1LgpAtfbwPvu6z5ftre+S1YpLPsthj5vw1HdsULF4ZXINql+Yw06j7Uc01WvXzpkoAO1wppQxARSAsroCCkD19rhhBgvzX0i6XPUik878dHCy/sCKUlJiDdx6RZ51v86xU6NtI826dW7iehSAJqiS50ICKAAL0XTyBQpADPv1M+wxt3e6K8eKDZ0d9WWwKlrfQ4MKhaMNNrkFMofDpi62aYYasaWTUQBaAk0xZxFAASirJ6AAxNsjh5e530u6WrzoSlfYe13EENDnLgt0Y++Gkfw+WUnKtJNyTP5dOWpKq3GzV6EANMuX3GcIoADMAOn4IwpAWgP8t6TjgxPj7CRqP/O7pBW/8qpfBWU7cEGOm0j6SzCv/RfkVfdwjngNVmbOW1eQNboeBWCNGrMPVUEBKKuVUADS28OucY8LTo6zSsBJkq6dLsLCK/8vKNd3FuS0RzAf1++qC/JKPZwrYuM7OwzWlFr3pq9DAWiaMPmfgwAKwDlwdP4BBaBeE3iv+68TJslpRaCJWPN3SpBp3g6Fg4L5mIUn7Fxpo5FznqgyM8128v5tHYdrzsUjdz4oALmJkt9SAigAS/G0/iUKQH3k20v6SXCinExMk9dTJd2kvij/yWGLBAdG9/vP1We/+V6wXq87+9La784t6U3B8ic8p18PlmRFgrQhARSADZlwpEECKAANwk3IGgUgAdqcS3z3HN0rPz1J+b3379uRT67kbW6zZSz7/K6Zgu0Wd9n58767w0weqR9te2B55pUROWbPiDlXJFLrU+p1KACltsyayoUCUFbDogDka49tJflZemSCmj3XW+hyTaJPCcriELobT+HYN3j93yVdaOr61Lee/N8XLHuWoz8vMmxMlWsdr0MBWMdWLbhOKABlNQ4KQN72uLCkr9ScvP4h6V4ZxPJ2xXkT47Jj9nMwSe8JXv/5yYU1Xs8nKRp1cF59nl9DhiFdigIwpNYuoK4oAAU0wpQIKABTMDK99V3wl4KT5+wkZiVgn5ryeOnb/gZm8172+dnjMs8j6eTgtU+qKa/dGH8qWOa8ujytphxDuhwFYEitXUBdUQAKaIQpEVAApmBkfGtPeFGXvLOT2b8k1Q2p+5bghGrf+E67Bq+z7NcYX5vyYqPFoxLKnGZmXo9KKXzA16AADLjxu6g6CkAX1BeXiQKwmE3db7yc/YkMk9qjawjiaHnTk+Sq955EtxvZAjwneN3vahjbbSnp6GB5s/Ww3A+vwWmol6IAtNjy/mHtJumBkrxM9YLRj+21A/uL3hXZMMmxulP/otuzThhYe0SXXN0OQ+uzderrPewOADQ7YUU/+848RY43j8YaT46R8vwb/WPwGkc6TJHPKxR/CpY1WxfXz779U8of+jXfDLJP7YdRzp4bPUd6rrzRqG09d/YubTNyEuK9tYdIcgCQ2Y7LZ5jQB+gD9AH6AH1gdR+w1823jm1jLlKqNmDnFd7Gc3iCIw46wepOACMY0QfoA/SBYfeBMyU5jPVekjzndp68f9Zbd37InT4rHfQB+gB9gD5AH2ilD/xM0n6SNu1KC/BzfT8bRSuFAX2APkAfoA/QB9rvAz8ebb/ds00lYCtJhzLxo/jQB+gD9AH6AH2giD7wdkneWdJochxvLz2g6cGAPkAfoA/QB+gD5fSBX0m6blMawP0x8EPxQfmjD9AH6AP0gWL7gONq3De3EvD4hH21aIblaIa0BW1BH6AP0AeG0QfsI+KAXErAM9H2itX2+EEP4wdNO9PO9AH6QLQPPL2uEvAQJn8mf/oAfYA+QB+gD/SyDyTH1biNpH/S6L1s9KimyPncXdAH6AP0gfXrA46weYvoSsD2GXxVT3emUyV9RtKrJT1xHMDiASNXwUP988rKiyS9aezm0a4e2/o7WNKTB8x+Xp97qKQXS7IP+VdKegx8Ovlt+nHj6yW9QZJD9M5rqzrHHizpwPHvzmORQ/nOy+9Bkg6S9Maxr/0nLDhv3rVVj/nO7GWSHBfgFeOIflWv5bz57ZbKZdIW/v2/fOxgJzWv1Osc1Mlz42vGMR5Oy3jz7RgXl6iqBNjFYN0QlZ78Pel7gttd0iZVC+c8CEAAAhCAwMAJ2MPfTcY3JTmUgSMlbVSF6cNqah5njCP+OSgQCQIQgAAEIACBdALbjlekvMVvemU9+t4rW0vTRSWdXKMQrxxcYWkJfAkBCEAAAhCAQJTAFSUdXWN+PlHS0hvzV9XI3M+zHByIBAEIQAACEIBAfgJ+nG47pejd/+R8z9Nz03aSTk/M2MY0JAhAAAIQgAAEmifwlMS52vYEXunfINnqdaIlRF6fs0FOHIAABCAAAQhAoEkCL0ics33dOZKX7o9PyOwISec6R058gAAEIAABCECgaQKeez+QMG//YfZx/W0TMvn9aB/rhZuuIflDAAIQgAAEIDCXwNaSvM8/smrvc281nduhCRncazoD3kMAAhCAAAQg0DqBfRLm77dNpPQyQlSDOKaqU4FJIbxCAAIQgAAEIJCdgJ33/TCoBPgxwL8f3+8YvNDLB/fPXgUyhAAEIAABCEAghYBdEEcfA1zNBdkPeuRCu/i9YIqEXAMBCEAAAhCAQHYCW0iKugx2bIx/B6KIKACHZxedDCEAAQhAAAIQqEPgw8Gb+Ze6sI8HL3p0HQm5FgIQgAAEIACB7AQeG5zLP2oJjg1etEd2sckQAhCAAAQgAIE6BG4anMttOCjv5488Arh0HQm5FgIQgAAEIACB7AQuG5zLf2sJbNQXUQAulF1sMoQABCAAAQhAoA4BO+aLzOV/dWH/CF60WR0JuRYCEIAABCAAgewEzhecy/9uCU4JXmTXgyQIQAACEIAABMohsE1wLj/Jov8meNGVy6kvkkAAAhCAAAQgIOmqwbn8V6b2neBFtwc1BCAAAQhAAAJFEbhDcC7/lqV/b/Ci5xRVZYSBAAQgAAEIQOAFwbn8XUb23OBFR8MZAhCAAAQgAIGiCHwtOJc/29LfI3jRvyR5vyEJAhCAAAQgAIHuCewgyXNzZBvgXS32xYMXuYB/aw7d1xkJIAABCEAAAoMn8LzgPG5lYbsJtWgsYW8fICLghB6vEIAABCAAgW4IbCnp5KAC8P1pUV8cvNirAAdNZ8B7CEAAAhCAAARaJ/CSuvP3NRIyOFOSryNBAAIQgAAEINA+gV0k2aNf5Nm/z91xVtTvJWTyY0lbzGbEZwhAAAIQgAAEGiXgpf+fJczb354n1YMSMrIm8VlJ552XIccgAAEIQAACEMhOwHPu5xPn7H3nSbOppOMSM/yYpPPPy5RjEIAABCAAAQhkI3ABSZ9InKvt/neTRZLsl5ipVwK+LulyizLmOAQgAAEIQAACtQhcXtI3a8zTD11W+saSUmwBJgYI3orgRwkbLSuE7yAAAQhAAAIQqEzg3JIekhC9dzI3+9XP/s+zqsQbJngUmi7E778xCjK0F4rAKtR8DwEIQAACEFhIwDfTdxxP3rPzbOSzHf9cf2EpM1+8ssYSw7RQft7wfEm7YSg4Q5iPEIAABCAAgQ0J2MDvxpIOlPTrTHPxSzcsZvERC+C7+OnJvO5771X0tsFPjfYgvk/SYfzBgD5AH6AP0AfoA/+eEz03eo78R+a596vLDP8WqQEOLvDHzILUVSK4Pq9SBk940gfoA/SB9e0Df5B0mUWT/Krj9jL0F5SArCsh/NjW98dG29K29AH6QCl94FRJ1141ya/6fk9Jp6EEoATQB+gD9AH6AH2gF33Ak/9NVk3uVb+/lqQTaPheNHwp2idycCdEH6AP0Afa7wMnRiz+qyoBV5P0U5QAlAD6AH2APkAfoA8U2QdsRHjlqpN69LwLSjqUhi+y4dG029e0YQ5z+gB9oJQ+8F5JF4pO6inn78MOAZQAFEH6AH2APkAf6LwPHC/pPikTeZ1rtpL02sRYxKVoTMiB9k4foA/QB+gDfewDZ0p6taQL15nI6167vSR7GTodTbBzTbCPnRiZGXzpA/QB+kD1PvA3SW+RZF89xaQtJT1A0hdQBFAE6AP0AfoAfYA+kLUPfH90o/14SdsUM+svEOSSku491lIstDUWNDwY0AfoA/QB+gB9YHUfOGMcmffN47n0Egvm2l4cdijDy0m6niQ7FroTfzCgD9AH6AP0AfrAf/qA50bPkZ4rPWeSIAABCEAAAhCAAAQgAAEIQAACEIAABCAAAQhAAAIQgAAEIAABCEAAAhCAAAQgAAEIQAACEIAABCAAAQhAAAIQgAAEIAABCEAAAhCAAAQgAAEIQAACEIAABCAAAQhAAAIQgAAEIAABCEAAAhCAAAQgAAEIQAACEIAABCAAAQhAAAIQgAAEIAABCEAAAhCAAAQgAAEIQAACEIAABCAAAQhAAAIQgAAEIAABCEAAAhCAAAQgAAEIQAACEIAABCAAAQhAAAIQgAAEIAABCEAAAhCAAAQgAAEIQAACEIAABCAAAQhAAAIQgAAEIAABCEAAAhCAAAQgAAEIQAACEIAABCAAAQhAAAIQgAAEIAABCEAAAhCAAAQgAAEIQAACEIAABCAAAQhAAAIQgAAEIAABCEAAAhCAAAQgAAEIQAACEIAABCAAAQhAAAIQgAAEIAABCEAAAhCAAAQgAAEIQAACEIAABCAAAQhAAAIQgAAEIAABCEAAAhCAAAQgAAEIQAACEIAABCAAAQhAAAIQgAAEIAABCEAAAhCAAAQgAAEIQAACEIAABCAAAQhAAAIQgAAEIAABCEAAAhCAAAQgAAEIQAACEIAABCAAAQhAAAIQgAAEIAABCEAAAhCAAAQgAAEIQAACEIAABCAAAQhAAAIQgAAEIAABCEAAAhCAAAQgAAEIQAACEIAABCAAAQhAAAIQgAAEIAABCEAAAhCAAAQgAAEIQAACEIAABCAAAQhAAAIQgAAEIAABCEAAAhCAAAQgAAEIQCAngf8PNdhnpyOiJEcAAAAASUVORK5CYII=;" parent="1" vertex="1">
          <mxGeometry x="1093" y="322.72" width="72.29" height="72.29" as="geometry" />
        </mxCell>
        <mxCell id="UaRX52oiEMcUlokc9c1a-43" value="Web Application - BalcÃ£o" style="image;html=1;image=img/lib/clip_art/computers/Monitor_128x128.png" parent="1" vertex="1">
          <mxGeometry x="841.5" y="333.35999999999996" width="62" height="53" as="geometry" />
        </mxCell>
        <mxCell id="ExuR_AfsgaEFRH0pLKmp-33" value="App Service" style="swimlane;whiteSpace=wrap;html=1;" vertex="1" parent="1">
          <mxGeometry x="754" y="5" width="245" height="448" as="geometry" />
        </mxCell>
        <mxCell id="ExuR_AfsgaEFRH0pLKmp-34" value="SoluÃ§Ã£o de AutenticaÃ§Ã£o de clientes" style="swimlane;whiteSpace=wrap;html=1;" vertex="1" parent="1">
          <mxGeometry x="754" y="-222" width="906" height="222" as="geometry" />
        </mxCell>
        <mxCell id="ExuR_AfsgaEFRH0pLKmp-45" style="edgeStyle=orthogonalEdgeStyle;rounded=0;orthogonalLoop=1;jettySize=auto;html=1;" edge="1" parent="ExuR_AfsgaEFRH0pLKmp-34" source="ExuR_AfsgaEFRH0pLKmp-18" target="ExuR_AfsgaEFRH0pLKmp-43">
          <mxGeometry relative="1" as="geometry" />
        </mxCell>
        <mxCell id="ExuR_AfsgaEFRH0pLKmp-18" value="" style="outlineConnect=0;dashed=0;verticalLabelPosition=bottom;verticalAlign=top;align=center;html=1;shape=mxgraph.aws3.api_gateway;fillColor=#D9A741;gradientColor=none;" vertex="1" parent="ExuR_AfsgaEFRH0pLKmp-34">
          <mxGeometry x="69" y="75.5" width="76.5" height="93" as="geometry" />
        </mxCell>
        <mxCell id="ExuR_AfsgaEFRH0pLKmp-36" value="APIM" style="text;html=1;align=center;verticalAlign=middle;whiteSpace=wrap;rounded=0;fontSize=13;" vertex="1" parent="ExuR_AfsgaEFRH0pLKmp-34">
          <mxGeometry x="81" y="45.5" width="60" height="30" as="geometry" />
        </mxCell>
        <mxCell id="ExuR_AfsgaEFRH0pLKmp-1" value="" style="image;aspect=fixed;html=1;points=[];align=center;fontSize=12;image=img/lib/azure2/compute/Function_Apps.svg;" vertex="1" parent="ExuR_AfsgaEFRH0pLKmp-34">
          <mxGeometry x="298" y="45.5" width="68" height="60" as="geometry" />
        </mxCell>
        <mxCell id="ExuR_AfsgaEFRH0pLKmp-43" value="" style="image;aspect=fixed;html=1;points=[];align=center;fontSize=12;image=img/lib/azure2/compute/Function_Apps.svg;" vertex="1" parent="ExuR_AfsgaEFRH0pLKmp-34">
          <mxGeometry x="298" y="134" width="68" height="60" as="geometry" />
        </mxCell>
        <mxCell id="ExuR_AfsgaEFRH0pLKmp-44" style="edgeStyle=orthogonalEdgeStyle;rounded=0;orthogonalLoop=1;jettySize=auto;html=1;entryX=0.044;entryY=0.525;entryDx=0;entryDy=0;entryPerimeter=0;" edge="1" parent="ExuR_AfsgaEFRH0pLKmp-34" source="ExuR_AfsgaEFRH0pLKmp-18" target="ExuR_AfsgaEFRH0pLKmp-1">
          <mxGeometry relative="1" as="geometry" />
        </mxCell>
        <mxCell id="ExuR_AfsgaEFRH0pLKmp-46" value="&lt;span style=&quot;color: rgb(0, 0, 0); font-family: Helvetica; font-size: 12px; font-style: normal; font-variant-ligatures: normal; font-variant-caps: normal; font-weight: 400; letter-spacing: normal; orphans: 2; text-align: center; text-indent: 0px; text-transform: none; widows: 2; word-spacing: 0px; -webkit-text-stroke-width: 0px; white-space: nowrap; background-color: rgb(255, 255, 255); text-decoration-thickness: initial; text-decoration-style: initial; text-decoration-color: initial; float: none; display: inline !important;&quot;&gt;Az-Function - CpfAuthCustomer&lt;/span&gt;" style="text;whiteSpace=wrap;html=1;" vertex="1" parent="ExuR_AfsgaEFRH0pLKmp-34">
          <mxGeometry x="253" y="22" width="166" height="36" as="geometry" />
        </mxCell>
        <mxCell id="ExuR_AfsgaEFRH0pLKmp-3" value="&lt;span style=&quot;color: rgb(0, 0, 0); font-family: Helvetica; font-size: 12px; font-style: normal; font-variant-ligatures: normal; font-variant-caps: normal; font-weight: 400; letter-spacing: normal; orphans: 2; text-align: center; text-indent: 0px; text-transform: none; widows: 2; word-spacing: 0px; -webkit-text-stroke-width: 0px; white-space: nowrap; background-color: rgb(255, 255, 255); text-decoration-thickness: initial; text-decoration-style: initial; text-decoration-color: initial; float: none; display: inline !important;&quot;&gt;Az-Function - CpfRegisterCustomer&lt;/span&gt;" style="text;whiteSpace=wrap;html=1;" vertex="1" parent="ExuR_AfsgaEFRH0pLKmp-34">
          <mxGeometry x="249.0004749177633" y="186.00050061677643" width="166" height="36" as="geometry" />
        </mxCell>
        <mxCell id="ExuR_AfsgaEFRH0pLKmp-48" value="" style="image;aspect=fixed;html=1;points=[];align=center;fontSize=12;image=img/lib/azure2/identity/Managed_Identities.svg;" vertex="1" parent="ExuR_AfsgaEFRH0pLKmp-34">
          <mxGeometry x="797" y="77" width="68" height="66" as="geometry" />
        </mxCell>
        <mxCell id="ExuR_AfsgaEFRH0pLKmp-49" value="&lt;span style=&quot;color: rgb(0, 0, 0); font-family: Helvetica; font-size: 12px; font-style: normal; font-variant-ligatures: normal; font-variant-caps: normal; font-weight: 400; letter-spacing: normal; orphans: 2; text-align: center; text-indent: 0px; text-transform: none; widows: 2; word-spacing: 0px; -webkit-text-stroke-width: 0px; white-space: nowrap; background-color: rgb(255, 255, 255); text-decoration-thickness: initial; text-decoration-style: initial; text-decoration-color: initial; float: none; display: inline !important;&quot;&gt;Azure AD&lt;/span&gt;" style="text;whiteSpace=wrap;html=1;" vertex="1" parent="ExuR_AfsgaEFRH0pLKmp-34">
          <mxGeometry x="800" y="39.5" width="166" height="36" as="geometry" />
        </mxCell>
        <mxCell id="ExuR_AfsgaEFRH0pLKmp-50" style="edgeStyle=orthogonalEdgeStyle;rounded=0;orthogonalLoop=1;jettySize=auto;html=1;" edge="1" parent="ExuR_AfsgaEFRH0pLKmp-34" source="ExuR_AfsgaEFRH0pLKmp-51" target="ExuR_AfsgaEFRH0pLKmp-48">
          <mxGeometry relative="1" as="geometry" />
        </mxCell>
        <mxCell id="ExuR_AfsgaEFRH0pLKmp-51" value="" style="aspect=fixed;sketch=0;html=1;dashed=0;whitespace=wrap;verticalLabelPosition=bottom;verticalAlign=top;fillColor=#2875E2;strokeColor=#ffffff;points=[[0.005,0.63,0],[0.1,0.2,0],[0.9,0.2,0],[0.5,0,0],[0.995,0.63,0],[0.72,0.99,0],[0.5,1,0],[0.28,0.99,0]];shape=mxgraph.kubernetes.icon2;kubernetesLabel=1;prIcon=api" vertex="1" parent="ExuR_AfsgaEFRH0pLKmp-34">
          <mxGeometry x="482" y="75.5" width="71.88" height="69" as="geometry" />
        </mxCell>
        <mxCell id="ExuR_AfsgaEFRH0pLKmp-52" value="&lt;span style=&quot;color: rgb(0, 0, 0); font-family: Helvetica; font-size: 12px; font-style: normal; font-variant-ligatures: normal; font-variant-caps: normal; font-weight: 400; letter-spacing: normal; orphans: 2; text-align: center; text-indent: 0px; text-transform: none; widows: 2; word-spacing: 0px; -webkit-text-stroke-width: 0px; white-space: nowrap; background-color: rgb(255, 255, 255); text-decoration-thickness: initial; text-decoration-style: initial; text-decoration-color: initial; float: none; display: inline !important;&quot;&gt;Microsft Graph API / Users&lt;/span&gt;" style="text;whiteSpace=wrap;html=1;" vertex="1" parent="ExuR_AfsgaEFRH0pLKmp-34">
          <mxGeometry x="450" y="64" width="166" height="36" as="geometry" />
        </mxCell>
        <mxCell id="ExuR_AfsgaEFRH0pLKmp-53" value="&lt;font style=&quot;font-size: 10px;&quot;&gt;HTTP/ HTTPS - JSON&lt;/font&gt;" style="text;html=1;align=center;verticalAlign=middle;whiteSpace=wrap;rounded=0;rotation=0;" vertex="1" parent="ExuR_AfsgaEFRH0pLKmp-34">
          <mxGeometry x="553.88" y="100" width="223" height="38" as="geometry" />
        </mxCell>
        <mxCell id="ExuR_AfsgaEFRH0pLKmp-54" style="edgeStyle=orthogonalEdgeStyle;rounded=0;orthogonalLoop=1;jettySize=auto;html=1;entryX=0.005;entryY=0.63;entryDx=0;entryDy=0;entryPerimeter=0;" edge="1" parent="ExuR_AfsgaEFRH0pLKmp-34" source="ExuR_AfsgaEFRH0pLKmp-1" target="ExuR_AfsgaEFRH0pLKmp-51">
          <mxGeometry relative="1" as="geometry" />
        </mxCell>
        <mxCell id="ExuR_AfsgaEFRH0pLKmp-55" style="edgeStyle=orthogonalEdgeStyle;rounded=0;orthogonalLoop=1;jettySize=auto;html=1;entryX=0.005;entryY=0.63;entryDx=0;entryDy=0;entryPerimeter=0;" edge="1" parent="ExuR_AfsgaEFRH0pLKmp-34" source="ExuR_AfsgaEFRH0pLKmp-43" target="ExuR_AfsgaEFRH0pLKmp-51">
          <mxGeometry relative="1" as="geometry" />
        </mxCell>
        <mxCell id="ExuR_AfsgaEFRH0pLKmp-35" style="edgeStyle=orthogonalEdgeStyle;rounded=0;orthogonalLoop=1;jettySize=auto;html=1;" edge="1" parent="1" source="MkQLDR_bNPGldUpGhnma-1" target="ExuR_AfsgaEFRH0pLKmp-18">
          <mxGeometry relative="1" as="geometry">
            <mxPoint x="513.615478515625" y="-411.7692401592549" as="targetPoint" />
          </mxGeometry>
        </mxCell>
      </root>
    </mxGraphModel>
  </diagram>
</mxfile>
